<svg width="690" height="538" viewBox="0 0 690 538" version="1.1" xmlns="http://www.w3.org/2000/svg" xmlns:xlink="http://www.w3.org/1999/xlink">
<title>bg CL</title>
<desc>Created using Figma</desc>
<g id="Canvas" transform="translate(68 324)">
<g id="bg CL">
<g id="Rectangle 19">
<use xlink:href="#path0_fill" transform="translate(-20 -86)" fill="#FFFFFF" fill-opacity="0.5"/>
</g>
<g id="Rectangle 19">
<use xlink:href="#path1_fill" transform="translate(73 -205)" fill="#FFFFFF" fill-opacity="0.5"/>
</g>
<g id="Rectangle 19">
<use xlink:href="#path2_fill" transform="translate(31 -264)" fill="#FFFFFF" fill-opacity="0.5"/>
</g>
<g id="Rectangle 19">
<use xlink:href="#path3_fill" transform="translate(258 -324)" fill="#FFFFFF" fill-opacity="0.5"/>
</g>
<g id="Rectangle 19">
<use xlink:href="#path4_fill" transform="translate(23 -26)" fill="#FFFFFF" fill-opacity="0.5"/>
</g>
<g id="Vector">
<use xlink:href="#path5_fill" transform="translate(58 34)" fill="#FFFFFF" fill-opacity="0.5"/>
</g>
<g id="Vector">
<use xlink:href="#path6_fill" transform="translate(-68 94)" fill="#FFFFFF" fill-opacity="0.5"/>
</g>
<g id="Rectangle 19">
<use xlink:href="#path7_fill" transform="translate(124 154)" fill="#FFFFFF" fill-opacity="0.5"/>
</g>
<g id="Vector">
<use xlink:href="#path8_fill" transform="translate(99 -145)" fill="#FFFFFF" fill-opacity="0.5"/>
</g>
</g>
</g>
<defs>
<path id="path0_fill" d="M 0 30C 0 13.4315 13.4315 0 30 0L 586 0C 602.569 0 616 13.4315 616 30C 616 46.5685 602.569 60 586 60L 30 60C 13.4315 60 0 46.5685 0 30Z"/>
<path id="path1_fill" d="M 0 30C 0 13.4315 13.4315 0 30 0L 519 0C 535.569 0 549 13.4315 549 30C 549 46.5685 535.569 60 519 60L 30 60C 13.4315 60 0 46.5685 0 30Z"/>
<path id="path2_fill" d="M 0 29.5C 0 13.2076 13.2076 0 29.5 0L 496.5 0C 512.792 0 526 13.2076 526 29.5C 526 45.7924 512.792 59 496.5 59L 29.5 59C 13.2076 59 0 45.7924 0 29.5Z"/>
<path id="path3_fill" d="M 0 30C 0 13.4315 13.4315 0 30 0L 244 0C 260.569 0 274 13.4315 274 30C 274 46.5685 260.569 60 244 60L 30 60C 13.4315 60 0 46.5685 0 30Z"/>
<path id="path4_fill" d="M 0 30C 0 13.4315 13.4315 0 30 0L 504 0C 520.569 0 534 13.4315 534 30C 534 46.5685 520.569 60 504 60L 30 60C 13.4315 60 0 46.5685 0 30Z"/>
<path id="path5_fill" fill-rule="evenodd" d="M 2.35423 59.9034C 3.13078 59.9674 3.91592 60 4.70846 60L 514.873 60C 530.959 60 544 46.5685 544 30C 544 13.4315 530.959 0 514.873 0L 4.70846 0C 3.91592 0 3.13078 0.0326026 2.35423 0.096576C 17.3396 1.33109 29.1268 14.2478 29.1268 30C 29.1268 45.7523 17.3396 58.6689 2.35423 59.9034Z"/>
<path id="path6_fill" fill-rule="evenodd" d="M 32.0816 0C 14.3634 0 0 13.4315 0 30C 0 46.5685 14.3634 60 32.0816 60L 591.718 60C 574 60 559.636 46.5685 559.636 30C 559.636 13.4315 574 0 591.718 0L 32.0816 0Z"/>
<path id="path7_fill" d="M 0 30C 0 13.4315 13.4315 0 30 0L 456 0C 472.569 0 486 13.4315 486 30C 486 46.5685 472.569 60 456 60L 30 60C 13.4315 60 0 46.5685 0 30Z"/>
<path id="path8_fill" fill-rule="evenodd" d="M 4.37594 58.6164C 5.80033 58.8688 7.26204 59 8.75187 59L 455.584 59C 455.988 59 456.391 58.9903 456.792 58.9711C 442.405 58.2822 430.936 45.3511 430.936 29.5C 430.936 13.6489 442.405 0.717794 456.792 0.0288721C 456.391 0.00969109 455.988 5.5896e-14 455.584 5.5896e-14L 8.75187 5.5896e-14C 7.26204 5.5896e-14 5.80033 0.131212 4.37594 0.383613C 17.2424 2.66351 27.0644 14.8315 27.0644 29.5C 27.0644 44.1685 17.2424 56.3365 4.37594 58.6164Z"/>
</defs>
</svg>
