<svg width="40" height="40" viewBox="0 0 40 40" version="1.1" xmlns="http://www.w3.org/2000/svg" xmlns:xlink="http://www.w3.org/1999/xlink">
<title>Vector</title>
<desc>Created using Figma</desc>
<g id="Canvas" transform="translate(-7603 48)">
<g id="Vector">
<use xlink:href="#path0_fill" transform="matrix(-1 1.22465e-16 -1.22465e-16 -1 7642 -9)" fill="#2F6A78"/>
<use xlink:href="#path1_fill" transform="matrix(-1 1.22465e-16 -1.22465e-16 -1 7642 -9)" fill="#2F6A78"/>
<mask id="mask0_outline_out">
<rect id="mask0_outline_inv" fill="white" x="-1" y="-1" width="40" height="40" transform="matrix(-1 1.22465e-16 -1.22465e-16 -1 7642 -9)"/>
<use xlink:href="#path0_fill" fill="black" transform="matrix(-1 1.22465e-16 -1.22465e-16 -1 7642 -9)"/>
<use xlink:href="#path1_fill" fill="black" transform="matrix(-1 1.22465e-16 -1.22465e-16 -1 7642 -9)"/>
</mask>
<g mask="url(#mask0_outline_out)">
<use xlink:href="#path2_stroke_2x" transform="matrix(-1 1.22465e-16 -1.22465e-16 -1 7642 -9)" fill="#2F6A78"/>
</g>
</g>
</g>
<defs>
<path id="path0_fill" d="M 19 0C 8.52296 0 0 8.52296 0 19C 0 29.477 8.52296 38 19 38C 29.477 38 38 29.477 38 19C 38 8.52296 29.477 0 19 0ZM 19 36.5385C 9.32973 36.5385 1.46154 28.6703 1.46154 19C 1.46154 9.32973 9.32973 1.46154 19 1.46154C 28.6703 1.46154 36.5385 9.32973 36.5385 19C 36.5385 28.6703 28.6703 36.5385 19 36.5385Z"/>
<path id="path1_fill" d="M 22.2727 26.2002C 22.7596 26.4978 23.3846 26.1474 23.3846 25.5767L 23.3846 12.5474C 23.3846 11.9848 22.7756 11.6332 22.2884 11.9145L 11.3272 18.2433C 10.8471 18.5205 10.8384 19.2105 11.3115 19.4997L 22.2727 26.2002ZM 21.9231 22.9707C 21.9231 23.5415 21.2981 23.8919 20.8111 23.5942L 14.1717 19.5355C 13.6987 19.2463 13.7073 18.5563 14.1875 18.2791L 20.8269 14.4459C 21.3141 14.1646 21.9231 14.5162 21.9231 15.0787L 21.9231 22.9707Z"/>
<path id="path2_stroke_2x" d="M 11.3272 18.2433L 11.4522 18.4598L 11.4522 18.4598L 11.3272 18.2433ZM 20.8111 23.5942L 20.6807 23.8075L 20.6807 23.8075L 20.8111 23.5942ZM 14.1717 19.5355L 14.3021 19.3222L 14.3021 19.3222L 14.1717 19.5355ZM 20.8269 14.4459L 20.7019 14.2294L 20.7019 14.2294L 20.8269 14.4459ZM 22.2727 26.2002L 22.4031 25.9869L 22.4031 25.9869L 22.2727 26.2002ZM 22.2884 11.9145L 22.1634 11.698L 22.1634 11.698L 22.2884 11.9145ZM 11.3115 19.4997L 11.1811 19.713L 11.1811 19.713L 11.3115 19.4997ZM 14.1875 18.2791L 14.3125 18.4956L 14.3125 18.4956L 14.1875 18.2791ZM 19 -0.25C 8.38489 -0.25 -0.25 8.38489 -0.25 19L 0.25 19C 0.25 8.66103 8.66103 0.25 19 0.25L 19 -0.25ZM -0.25 19C -0.25 29.6151 8.38489 38.25 19 38.25L 19 37.75C 8.66103 37.75 0.25 29.339 0.25 19L -0.25 19ZM 19 38.25C 29.6151 38.25 38.25 29.6151 38.25 19L 37.75 19C 37.75 29.339 29.339 37.75 19 37.75L 19 38.25ZM 38.25 19C 38.25 8.38489 29.6151 -0.25 19 -0.25L 19 0.25C 29.339 0.25 37.75 8.66103 37.75 19L 38.25 19ZM 19 36.2885C 9.4678 36.2885 1.71154 28.5322 1.71154 19L 1.21154 19C 1.21154 28.8083 9.19166 36.7885 19 36.7885L 19 36.2885ZM 1.71154 19C 1.71154 9.4678 9.4678 1.71154 19 1.71154L 19 1.21154C 9.19166 1.21154 1.21154 9.19166 1.21154 19L 1.71154 19ZM 19 1.71154C 28.5322 1.71154 36.2885 9.4678 36.2885 19L 36.7885 19C 36.7885 9.19166 28.8083 1.21154 19 1.21154L 19 1.71154ZM 36.2885 19C 36.2885 28.5322 28.5322 36.2885 19 36.2885L 19 36.7885C 28.8083 36.7885 36.7885 28.8083 36.7885 19L 36.2885 19ZM 23.6346 25.5767L 23.6346 12.5474L 23.1346 12.5474L 23.1346 25.5767L 23.6346 25.5767ZM 22.1634 11.698L 11.2022 18.0268L 11.4522 18.4598L 22.4134 12.131L 22.1634 11.698ZM 11.1811 19.713L 22.1423 26.4135L 22.4031 25.9869L 11.4419 19.2864L 11.1811 19.713ZM 20.9415 23.3809L 14.3021 19.3222L 14.0413 19.7488L 20.6807 23.8075L 20.9415 23.3809ZM 14.3125 18.4956L 20.9519 14.6624L 20.7019 14.2294L 14.0625 18.0626L 14.3125 18.4956ZM 21.6731 15.0787L 21.6731 22.9707L 22.1731 22.9707L 22.1731 15.0787L 21.6731 15.0787ZM 23.1346 25.5767C 23.1346 25.9522 22.7234 26.1827 22.4031 25.9869L 22.1423 26.4135C 22.7958 26.813 23.6346 26.3427 23.6346 25.5767L 23.1346 25.5767ZM 23.6346 12.5474C 23.6346 11.7924 22.8173 11.3205 22.1634 11.698L 22.4134 12.131C 22.7339 11.946 23.1346 12.1773 23.1346 12.5474L 23.6346 12.5474ZM 11.2022 18.0268C 10.5578 18.3989 10.5462 19.3249 11.1811 19.713L 11.4419 19.2864C 11.1306 19.0961 11.1363 18.6422 11.4522 18.4598L 11.2022 18.0268ZM 20.6807 23.8075C 21.3343 24.207 22.1731 23.7367 22.1731 22.9707L 21.6731 22.9707C 21.6731 23.3462 21.2619 23.5768 20.9415 23.3809L 20.6807 23.8075ZM 14.3021 19.3222C 13.9909 19.1319 13.9966 18.678 14.3125 18.4956L 14.0625 18.0626C 13.4181 18.4347 13.4064 19.3607 14.0413 19.7488L 14.3021 19.3222ZM 20.9519 14.6624C 21.2724 14.4773 21.6731 14.7086 21.6731 15.0787L 22.1731 15.0787C 22.1731 14.3237 21.3557 13.8519 20.7019 14.2294L 20.9519 14.6624Z"/>
</defs>
</svg>
