<svg width="315" height="264" viewBox="0 0 315 264" version="1.1" xmlns="http://www.w3.org/2000/svg" xmlns:xlink="http://www.w3.org/1999/xlink">
<title>auto icon</title>
<desc>Created using Figma</desc>
<g id="Canvas" transform="translate(-9025 73)">
<g id="auto icon">
<g id="Vector">
<use xlink:href="#path0_stroke" transform="translate(9117.44 2.96078)" fill="#13CA6E"/>
</g>
<g id="Vector">
<use xlink:href="#path1_fill" transform="translate(9026.12 -71.8791)" fill="#13EA6E"/>
</g>
<g id="Vector">
<use xlink:href="#path2_fill" transform="translate(9043.34 -57.4915)" fill="#CAF9E0"/>
</g>
<g id="Vector" opacity="0.5">
<use xlink:href="#path3_fill" transform="translate(9059.23 -14.9331)" fill="#13CA6E"/>
</g>
<g id="Group">
<g id="Vector">
<use xlink:href="#path4_fill" transform="translate(9026 -72)" fill="#2F6A78"/>
<mask id="mask0_outline_out">
<rect id="mask0_outline_inv" fill="white" x="-1" y="-1" width="153" height="152" transform="translate(9026 -72)"/>
<use xlink:href="#path4_fill" fill="black" transform="translate(9026 -72)"/>
</mask>
<g mask="url(#mask0_outline_out)">
<use xlink:href="#path5_stroke_2x" transform="translate(9026 -72)" fill="#2F6A78"/>
</g>
</g>
</g>
<g id="Vector">
<use xlink:href="#path6_fill" transform="translate(9093.26 -5.06641)" fill="#13CA6E"/>
</g>
<g id="Vector">
<use xlink:href="#path7_stroke" transform="translate(9085.54 -12.7568)" fill="#2F6A78"/>
</g>
<g id="Vector">
<use xlink:href="#path8_stroke" transform="translate(9101.31 -50.9626)" fill="#2F6A78"/>
</g>
<g id="Vector">
<use xlink:href="#path9_stroke" transform="translate(9101.31 20.0083)" fill="#34AD59"/>
</g>
<g id="Vector">
<use xlink:href="#path10_stroke" transform="translate(9046.74 3.80705)" fill="#2F6A78"/>
</g>
<g id="Vector">
<use xlink:href="#path11_stroke" transform="translate(9063.71 14.5676)" fill="#34AD59"/>
</g>
<g id="Vector">
<use xlink:href="#path12_stroke" transform="translate(9111.86 -36.2123)" fill="#2F6A78"/>
</g>
<g id="Vector">
<use xlink:href="#path13_stroke" transform="translate(9062.87 -34.5196)" fill="#2F6A78"/>
</g>
<g id="Vector">
<use xlink:href="#path14_stroke" transform="translate(9112.47 14.0839)" fill="#34AD59"/>
</g>
<g id="Group">
<g id="Vector">
<use xlink:href="#path15_fill" transform="translate(9309.53 0.421829)" fill="#13CA6E"/>
</g>
<g id="Group">
<g id="Vector">
<use xlink:href="#path16_fill" transform="translate(9204.15 -59.9095)" fill="#13EA6E"/>
</g>
<g id="Vector">
<use xlink:href="#path17_fill" transform="translate(9199.42 -59.9095)" fill="url(#paint17_linear)"/>
</g>
<g id="Vector">
<use xlink:href="#path18_stroke" transform="translate(9198.69 -60.0304)" fill="#2F6A78"/>
</g>
<g id="Vector">
<use xlink:href="#path19_fill" transform="translate(9204.15 48.0582)" fill="#13CA6E"/>
</g>
<g id="Vector">
<use xlink:href="#path20_fill" transform="translate(9204.15 -54.5897)" fill="#13CA6E"/>
</g>
</g>
<g id="Vector">
<use xlink:href="#path21_fill" transform="matrix(0.708169 -0.70603 0.708169 0.70603 9307.91 12.9949)" fill="#2F6A78"/>
</g>
<g id="Vector">
<use xlink:href="#path22_fill" transform="translate(9301.16 2.35628)" fill="url(#paint22_linear)"/>
</g>
<g id="Vector">
<use xlink:href="#path23_stroke" transform="translate(9300.68 2.35628)" fill="#2F6A78"/>
</g>
<g id="Group">
<g id="Group">
<g id="Vector">
<use xlink:href="#path24_fill" transform="translate(9295.34 -6.22792)" fill="url(#paint24_linear)"/>
</g>
</g>
<g id="Vector">
<use xlink:href="#path25_stroke" transform="matrix(-1.79354e-10 1 -1 -1.78272e-10 9321.13 -6.14664)" fill="#2F6A78"/>
</g>
</g>
<g id="Vector">
<use xlink:href="#path26_fill" transform="translate(9306.02 -56.1615)" fill="#13EA6E"/>
</g>
<g id="Vector">
<use xlink:href="#path27_fill" transform="translate(9300.68 -56.1615)" fill="url(#paint27_linear)"/>
</g>
<g id="Vector">
<use xlink:href="#path28_stroke" transform="matrix(-1 -3.79835e-10 3.8214e-10 -1 9315.32 -6.10704)" fill="#2F6A78"/>
</g>
<g id="Group">
<g id="Vector">
<use xlink:href="#path29_fill" transform="translate(9328.93 16.6231)" fill="url(#paint29_linear)"/>
</g>
<g id="Vector">
<use xlink:href="#path30_stroke" transform="translate(9328.69 16.6231)" fill="#2F6A78"/>
</g>
</g>
<g id="Vector">
<use xlink:href="#path31_fill" transform="translate(9307.96 25.9326)" fill="url(#paint31_linear)"/>
</g>
<g id="Vector">
<use xlink:href="#path32_stroke" transform="translate(9307.96 25.9326)" fill="#2F6A78"/>
</g>
<g id="Group">
<g id="Vector">
<use xlink:href="#path33_fill" transform="translate(9315.6 20.1292)" fill="url(#paint33_linear)"/>
</g>
<g id="Vector">
<use xlink:href="#path34_stroke" transform="matrix(0.398413 0.917161 -0.918037 0.396388 9328.94 20.1359)" fill="#2F6A78"/>
</g>
</g>
<g id="Vector">
<use xlink:href="#path35_fill" transform="translate(9295.34 -45.0383)" fill="url(#paint35_linear)"/>
</g>
<g id="Vector">
<use xlink:href="#path36_stroke" transform="matrix(-1.79354e-10 1 -1 -1.78272e-10 9321.13 -44.9559)" fill="#2F6A78"/>
</g>
<g id="Group">
<g id="Vector">
<use xlink:href="#path37_fill" transform="translate(9197.96 -67.6474)" fill="#13EA6E"/>
</g>
<g id="Vector">
<use xlink:href="#path38_fill" transform="translate(9197.96 -58.8213)" fill="url(#paint38_linear)"/>
</g>
<g id="Vector">
<use xlink:href="#path39_stroke" transform="translate(9197.84 -68.131)" fill="#2F6A78"/>
</g>
<g id="Vector">
<use xlink:href="#path40_fill" transform="translate(9306.26 -62.6903)" fill="#2F6A78"/>
</g>
<g id="Vector">
<use xlink:href="#path41_fill" transform="translate(9203.3 -62.6903)" fill="#2F6A78"/>
</g>
</g>
<g id="Group">
<g id="Vector">
<use xlink:href="#path42_fill" transform="translate(9281.15 68.9747)" fill="#2F6A78"/>
</g>
<g id="Group">
<g id="Vector">
<use xlink:href="#path43_fill" transform="translate(9311.35 62.2039)" fill="#2F6A78"/>
</g>
<g id="Vector">
<use xlink:href="#path44_fill" transform="translate(9315.11 65.1058)" fill="url(#paint44_linear)"/>
</g>
</g>
<g id="Vector">
<use xlink:href="#path45_fill" transform="translate(9277.03 57.1261)" fill="#13EA6E"/>
</g>
</g>
<g id="XMLID 14">
<use xlink:href="#path46_fill" transform="translate(9105.55 136.681)" fill="#F2F2F2"/>
</g>
<g id="XMLID 12">
<use xlink:href="#path47_stroke" transform="translate(9105.55 136.681)" fill="#2F6A78"/>
</g>
<g id="XMLID 11">
<use xlink:href="#path48_fill" transform="translate(9050.86 -9.85506)" fill="#13EA6E"/>
</g>
<g id="XMLID 10">
<use xlink:href="#path49_fill" transform="translate(9050.98 127.492)" fill="#F2F2F2"/>
</g>
<g id="XMLID 9">
<use xlink:href="#path50_fill" transform="translate(9059.35 -0.061821)" fill="#FEFEFF"/>
</g>
<g id="XMLID 8">
<use xlink:href="#path51_fill" transform="translate(9096.22 180.207)" fill="#F2F2F2"/>
</g>
<g id="XMLID 7">
<use xlink:href="#path52_stroke" transform="translate(9096.34 180.207)" fill="#2F6A78"/>
</g>
<g id="XMLID 6">
<use xlink:href="#path53_stroke" transform="translate(9050.86 -9.85506)" fill="#2F6A78"/>
</g>
<g id="XMLID 5">
<use xlink:href="#path54_stroke" transform="translate(9050.98 127.492)" fill="#2F6A78"/>
</g>
<g id="Group">
<g id="Vector">
<use xlink:href="#path55_fill" transform="translate(9074.62 34.2749)" fill="url(#paint55_linear)"/>
</g>
<g id="Vector">
<use xlink:href="#path56_fill" transform="translate(9106.4 32.0891)" fill="url(#paint56_linear)"/>
</g>
<g id="Vector" opacity="0.5">
<use xlink:href="#path57_fill" transform="translate(9113.92 55.4332)" fill="#13CA6E"/>
</g>
</g>
<g id="XMLID 1">
<g id="XMLID 4">
<use xlink:href="#path58_fill" transform="translate(9156.12 55.3125)" fill="#97F7BE"/>
</g>
<g id="XMLID 3">
<use xlink:href="#path59_fill" transform="translate(9156.12 65.3477)" fill="#97F7BE"/>
</g>
<g id="XMLID 2">
<use xlink:href="#path60_fill" transform="translate(9156.12 75.3827)" fill="#97F7BE"/>
</g>
</g>
</g>
</g>
</g>
<defs>
<linearGradient id="paint17_linear" x1="0" y1="0" x2="1" y2="0" gradientUnits="userSpaceOnUse" gradientTransform="matrix(-7.17797e-15 -116.871 117.225 -7.15628e-15 -56.2624 116.849)">
<stop offset="0" stop-color="#78E9AC"/>
<stop offset="1" stop-color="#BBF3D9"/>
</linearGradient>
<linearGradient id="paint22_linear" x1="0" y1="0" x2="1" y2="0" gradientUnits="userSpaceOnUse" gradientTransform="matrix(13.9873 0 0 13.945 -0.0360174 -0.21527)">
<stop offset="0" stop-color="#13EA6E"/>
<stop offset="1" stop-color="#15E9A6"/>
</linearGradient>
<linearGradient id="paint24_linear" x1="0" y1="0" x2="1" y2="0" gradientUnits="userSpaceOnUse" gradientTransform="matrix(25.7717 0 0 25.6939 0.0411108 -5.62182)">
<stop offset="0" stop-color="#13EA6E"/>
<stop offset="1" stop-color="#15E9A6"/>
</linearGradient>
<linearGradient id="paint27_linear" x1="0" y1="0" x2="1" y2="0" gradientUnits="userSpaceOnUse" gradientTransform="matrix(0 -49.9878 50.1393 0 -22.4131 50.0402)">
<stop offset="0" stop-color="#78E9AC"/>
<stop offset="1" stop-color="#BBF3D9"/>
</linearGradient>
<linearGradient id="paint29_linear" x1="0" y1="0" x2="1" y2="0" gradientUnits="userSpaceOnUse" gradientTransform="matrix(10.0934 20.5259 -20.5881 10.0629 13.9035 -3.17911)">
<stop offset="0" stop-color="#13EA6E"/>
<stop offset="1" stop-color="#15E9A6"/>
</linearGradient>
<linearGradient id="paint31_linear" x1="0" y1="0" x2="1" y2="0" gradientUnits="userSpaceOnUse" gradientTransform="matrix(8.26371 21.3238 21.3884 -8.23875 -6.86959 5.6088)">
<stop offset="0" stop-color="#78E9AC"/>
<stop offset="1" stop-color="#BBF3D9"/>
</linearGradient>
<linearGradient id="paint33_linear" x1="0" y1="0" x2="1" y2="0" gradientUnits="userSpaceOnUse" gradientTransform="matrix(13.4445 -5.80504 5.82263 13.4039 -1.32489 2.88098)">
<stop offset="0" stop-color="#13EA6E"/>
<stop offset="1" stop-color="#15E9A6"/>
</linearGradient>
<linearGradient id="paint35_linear" x1="0" y1="0" x2="1" y2="0" gradientUnits="userSpaceOnUse" gradientTransform="matrix(-25.7095 -0 -0 -25.6319 25.7691 20.2117)">
<stop offset="0" stop-color="#13EA6E"/>
<stop offset="1" stop-color="#15E9A6"/>
</linearGradient>
<linearGradient id="paint38_linear" x1="0" y1="0" x2="1" y2="0" gradientUnits="userSpaceOnUse" gradientTransform="matrix(-117.225 -0 -0 -116.871 117.199 60.7676)">
<stop offset="0" stop-color="#78E9AC"/>
<stop offset="1" stop-color="#BBF3D9"/>
</linearGradient>
<linearGradient id="paint44_linear" x1="0" y1="0" x2="1" y2="0" gradientUnits="userSpaceOnUse" gradientTransform="matrix(5.57191 0 0 5.55508 -0.0314091 0.0463064)">
<stop offset="0" stop-color="#78E9AC"/>
<stop offset="1" stop-color="#BBF3D9"/>
</linearGradient>
<linearGradient id="paint55_linear" x1="0" y1="0" x2="1" y2="0" gradientUnits="userSpaceOnUse" gradientTransform="matrix(43.4637 18.8106 -18.8676 43.3324 10.5519 1.58737)">
<stop offset="0" stop-color="#13EA6E"/>
<stop offset="1" stop-color="#15E9A6"/>
</linearGradient>
<linearGradient id="paint56_linear" x1="0" y1="0" x2="1" y2="0" gradientUnits="userSpaceOnUse" gradientTransform="matrix(34.7666 15.0466 -15.0922 34.6616 3.53775 -7.77332)">
<stop offset="0" stop-color="#78E9AC"/>
<stop offset="1" stop-color="#BBF3D9"/>
</linearGradient>
<path id="path0_stroke" d="M 37.594 1.5C 38.4224 1.5 39.094 0.828427 39.094 0C 39.094 -0.828427 38.4224 -1.5 37.594 -1.5L 37.594 1.5ZM 1.85045e-06 -1.5C -0.828425 -1.5 -1.5 -0.828427 -1.5 0C -1.5 0.828427 -0.828425 1.5 1.85045e-06 1.5L 1.85045e-06 -1.5ZM 37.594 -1.5L 1.85045e-06 -1.5L 1.85045e-06 1.5L 37.594 1.5L 37.594 -1.5Z"/>
<path id="path1_fill" d="M 12.6122 45.9437C 11.1569 48.9663 7.64006 50.4172 4.48702 49.0872C 2.54669 54.2861 1.33398 59.485 0.606354 64.8048C 4.00194 65.0466 6.54862 67.9483 6.30608 71.3336C 6.18481 74.719 3.27431 77.3789 1.80708e-09 77.258C 0.242542 83.1823 1.09144 89.1066 2.66796 94.7891C 5.821 93.701 9.33785 95.3936 10.4293 98.5371C 11.642 101.681 10.0655 105.187 6.91244 106.517C 9.21658 111.353 12.0058 116.068 15.2801 120.421C 17.8268 118.245 21.7075 118.486 24.0116 121.025C 26.3158 123.564 26.1945 127.312 23.7691 129.73C 28.0136 133.72 32.7431 137.227 38.079 140.249C 39.6556 137.227 43.2937 136.018 46.3255 137.468C 49.3572 138.919 50.8125 142.425 49.4785 145.569C 54.6931 147.503 59.9078 148.712 65.2437 149.559C 65.4863 146.174 68.3967 143.635 71.7923 143.876C 75.1879 143.997 77.7346 146.899 77.7346 150.163C 83.6769 150.042 89.6191 149.075 95.3189 147.503C 94.3487 144.36 96.0465 140.854 99.1995 139.766C 102.353 138.557 105.869 140.128 107.203 143.272C 112.054 140.975 116.784 138.194 121.15 134.929C 118.967 132.39 119.209 128.521 121.756 126.345C 124.303 124.048 128.062 124.169 130.487 126.587C 134.489 122.355 138.006 117.519 141.038 112.32C 138.006 110.748 136.793 107.242 138.249 104.099C 139.704 101.076 143.221 99.6253 146.374 100.955C 148.314 95.7563 149.648 90.5574 150.255 85.2376C 146.859 84.9958 144.312 82.0941 144.555 78.7088C 144.676 75.3235 147.587 72.7845 150.982 72.7845C 150.74 66.8602 149.891 60.9359 148.314 55.2533C 145.161 56.3415 141.644 54.6488 140.553 51.5053C 139.461 48.3618 140.917 44.8556 144.07 43.5256C 141.766 38.5685 138.976 33.9742 135.702 29.6216C 133.155 31.7979 129.275 31.5561 126.971 29.0171C 124.666 26.4781 124.909 22.73 127.213 20.3119C 122.969 16.3221 118.118 12.8159 112.903 9.79326C 111.327 12.8159 107.688 14.0249 104.657 12.5741C 101.625 11.1232 100.17 7.61698 101.504 4.47347C 96.289 2.53899 91.0744 1.20904 85.7385 0.604522C 85.4959 3.98985 82.5854 6.52884 79.1898 6.28703C 75.7943 6.04522 73.2476 3.26442 73.2476 1.80161e-09C 67.3053 0.120904 61.363 1.08814 55.6633 2.6599C 56.7547 5.80341 55.057 9.30964 51.9039 10.3978C 48.7509 11.6068 45.234 10.0351 43.9 6.89155C 38.9279 9.18874 34.3196 11.9695 29.9539 15.234C 32.1368 17.773 31.8942 21.6419 29.3475 23.8182C 26.8009 26.1154 22.9202 25.9945 20.616 23.5764C 16.6141 27.808 13.0972 32.6442 10.0655 37.8431C 12.7334 39.294 13.9461 42.9211 12.6122 45.9437ZM 97.9868 26.1154C 125.03 38.6894 136.793 70.6082 124.303 97.5699C 111.69 124.532 79.6749 136.38 52.5103 123.806C 25.3456 111.353 13.5823 79.3133 26.1945 52.2307C 38.6854 25.269 70.8222 13.5413 97.9868 26.1154Z"/>
<path id="path2_fill" d="M 100.048 23.0928C 89.983 9.18874 73.6114 0 55.057 0C 24.618 0 2.31306e-07 24.5436 2.31306e-07 54.8906C 2.31306e-07 63.3539 1.94033 71.3336 5.33592 78.5879L 2.66796 65.4093L 4.24448 46.5482L 11.5207 30.4679L 21.7075 18.7402L 29.9539 13.1786L 47.4169 6.52884L 67.184 5.68251L 85.1321 12.4532L 96.289 20.7956L 100.048 23.0928Z"/>
<path id="path3_fill" d="M -4.62611e-07 55.4951C 9.94421 69.5201 26.437 78.5879 44.8702 78.5879C 75.3092 78.5879 99.9272 54.0443 99.9272 23.6973C 99.9272 15.234 97.9868 7.25427 94.5912 9.22428e-07L 97.2592 13.1786L 95.6827 32.0397L 88.4064 48.12L 78.2197 59.8477L 69.9733 65.4093L 52.5103 72.0591L 32.7431 72.9054L 14.795 66.1347L 3.63812 57.7923L -4.62611e-07 55.4951Z"/>
<path id="path4_fill" d="M 71.3072 1.93447C 72.0349 5.3198 75.0666 7.9797 78.7048 8.22151C 78.826 8.22151 79.0686 8.22151 79.1898 8.22151C 82.7067 8.22151 85.7385 5.92432 86.8299 2.7808C 90.9531 3.38533 94.9551 4.47347 98.957 5.80342C 98.3506 9.30965 100.17 12.8159 103.565 14.3876C 104.657 14.8713 105.748 15.1131 106.961 15.1131C 109.386 15.1131 111.569 14.0249 113.146 12.3323C 117.148 14.7503 120.907 17.5312 124.424 20.6747C 122.605 23.6973 122.847 27.6871 125.273 30.347C 126.849 32.0397 129.032 33.0069 131.336 33.0069C 132.549 33.0069 133.762 32.7651 134.853 32.1606C 137.279 35.5459 139.461 39.173 141.281 42.9211C 138.37 44.9765 137.157 48.7245 138.491 52.2307C 139.704 55.3743 142.736 57.5505 146.131 57.5505C 146.374 57.5505 146.495 57.5505 146.738 57.5505C 147.829 62.1449 148.557 66.7393 148.799 71.3336C 145.282 72.0591 142.736 75.0817 142.493 78.7088C 142.251 82.4569 144.676 85.6004 147.95 86.8094C 147.344 90.9202 146.253 94.91 144.919 98.8999C 144.555 98.779 144.07 98.779 143.585 98.779C 140.432 98.779 137.521 100.593 136.308 103.494C 134.732 106.88 135.702 110.628 138.37 113.046C 135.945 117.036 133.155 120.784 130.002 124.29C 128.668 123.443 127.213 123.081 125.758 123.081C 123.696 123.081 121.877 123.806 120.301 125.136C 117.511 127.675 116.905 131.544 118.482 134.688C 115.086 137.106 111.569 139.282 107.81 141.096C 106.355 139.04 103.929 137.831 101.261 137.831C 100.291 137.831 99.3208 137.952 98.4719 138.315C 94.9551 139.524 92.8935 142.909 93.136 146.415C 88.649 147.624 83.9194 148.229 79.3111 148.471C 78.5835 145.085 75.5517 142.425 71.7923 142.184C 71.6711 142.184 71.5498 142.184 71.3072 142.184C 67.7904 142.184 64.7586 144.481 63.6672 147.624C 59.544 146.899 55.4208 145.932 51.5401 144.602C 52.1465 141.096 50.3274 137.589 46.9318 136.018C 45.8404 135.534 44.7489 135.292 43.5362 135.292C 41.1108 135.292 38.9279 136.38 37.3514 138.073C 33.3495 135.655 29.5901 132.874 26.0732 129.731C 28.0136 126.708 27.771 122.839 25.2243 120.058C 23.6478 118.365 21.4649 117.398 19.1608 117.398C 17.9481 117.398 16.7354 117.64 15.6439 118.245C 13.2185 114.859 11.0356 111.353 9.21658 107.605C 12.1271 105.55 13.3398 101.802 12.0058 98.2953C 10.7931 95.1518 7.76133 92.9755 4.48702 92.9755C 4.24448 92.9755 4.12321 92.9755 3.88067 92.9755C 2.78923 88.3812 2.0616 83.7868 1.81906 79.1924C 5.33592 78.467 7.8826 75.4444 8.12514 71.6964C 8.24642 67.9483 5.94227 64.8048 2.66796 63.5958C 3.39558 59.485 4.36575 55.3742 5.69973 51.5053C 6.18481 51.6262 6.54862 51.6262 7.03371 51.6262C 10.1867 51.6262 12.976 49.8126 14.31 46.9109C 15.8865 43.5256 14.9163 39.6567 12.2484 37.3595C 14.6738 33.3696 17.463 29.6216 20.4948 26.1154C 21.8287 26.9617 23.284 27.3244 24.8605 27.3244C 26.9221 27.3244 28.7412 26.599 30.3177 25.269C 32.9857 22.8509 33.7133 18.8611 32.1368 15.7176C 35.5324 13.2995 39.1705 11.1232 42.9299 9.30964C 44.3851 11.365 46.8105 12.5741 49.4785 12.5741C 50.4487 12.5741 51.4188 12.4532 52.2677 12.0904C 55.7846 10.8814 57.8462 7.49608 57.6036 3.86894C 61.9694 2.7808 66.699 2.17628 71.3072 1.93447ZM 75.3092 130.819C 97.0167 130.819 116.905 118.124 126 98.5371C 132.306 84.9958 132.913 69.8828 127.819 55.9788C 122.726 42.0748 112.418 30.8306 98.8357 24.6645C 91.4382 21.1583 83.4343 19.3447 75.3092 19.3447C 53.6017 19.3447 33.7133 32.0397 24.618 51.6262C 11.642 79.4342 23.8904 112.683 51.7826 125.62C 59.3014 129.005 67.184 130.819 75.3092 130.819ZM 73.005 0C 67.0628 0.120904 61.1205 1.08814 55.4208 2.6599C 56.5122 5.80341 54.8144 9.30965 51.6614 10.3978C 50.9337 10.6396 50.2061 10.7605 49.4785 10.7605C 47.0531 10.7605 44.6277 9.30964 43.6575 6.89156C 38.6854 9.18874 34.0771 11.9695 29.7114 15.234C 31.8942 17.773 31.6517 21.6419 29.105 23.8182C 27.8923 24.9063 26.437 25.3899 24.8605 25.3899C 23.1627 25.3899 21.5862 24.7854 20.3735 23.4555C 16.3716 27.6871 12.8547 32.5233 9.82294 37.7222C 12.8547 39.1731 14.0674 42.8002 12.6122 45.9437C 11.5207 48.2409 9.33785 49.5708 6.91244 49.5708C 6.06354 49.5708 5.21465 49.4499 4.48702 49.0872C 2.54669 54.2861 1.33398 59.485 0.606354 64.8048C 4.00194 65.0466 6.54862 67.9483 6.30608 71.3336C 6.18481 74.8399 3.39558 77.3789 0.121271 77.3789L 0 77.3789C 0.242542 83.3032 1.09144 89.2275 2.66796 94.91C 3.27431 94.6682 4.00194 94.5473 4.60829 94.5473C 7.15498 94.5473 9.5804 96.1191 10.4293 98.6581C 11.642 101.802 10.0655 105.308 6.91244 106.638C 9.21658 111.474 12.0058 116.189 15.2801 120.542C 16.4928 119.575 17.8268 119.091 19.2821 119.091C 20.9799 119.091 22.6776 119.816 23.8904 121.146C 26.1945 123.685 26.0732 127.433 23.6478 129.851C 27.8923 133.841 32.6218 137.347 37.9578 140.37C 39.0492 138.194 41.2321 136.985 43.5362 136.985C 44.3851 136.985 45.3553 137.227 46.2042 137.589C 49.236 139.04 50.6912 142.546 49.3572 145.69C 54.5719 147.624 59.7865 148.833 65.1224 149.68C 65.365 146.415 68.1542 143.997 71.3072 143.997C 71.4285 143.997 71.5498 143.997 71.6711 143.997C 75.0666 144.118 77.6133 147.02 77.6133 150.284C 83.5556 150.163 89.4979 149.196 95.1976 147.624C 94.2274 144.481 95.9252 140.975 99.0783 139.886C 99.8059 139.645 100.534 139.524 101.261 139.524C 103.687 139.524 106.112 140.975 107.082 143.393C 111.933 141.096 116.663 138.315 121.028 135.05C 118.845 132.511 119.088 128.642 121.635 126.466C 122.847 125.378 124.303 124.894 125.879 124.894C 127.577 124.894 129.153 125.499 130.366 126.829C 134.368 122.597 137.885 117.761 140.917 112.562C 137.885 110.99 136.672 107.484 138.127 104.341C 139.219 102.043 141.402 100.713 143.827 100.713C 144.676 100.713 145.404 100.834 146.253 101.197C 148.193 95.9982 149.527 90.7993 150.133 85.4795C 146.738 85.2377 144.191 82.336 144.434 78.9506C 144.555 75.6862 147.344 73.0263 150.618 73.0263L 150.74 73.0263C 150.497 67.102 149.648 61.1777 148.072 55.4952C 147.465 55.737 146.738 55.8579 146.131 55.8579C 143.585 55.8579 141.159 54.2861 140.31 51.7471C 139.219 48.6036 140.674 45.0974 143.827 43.7674C 141.523 38.8103 138.734 34.216 135.46 29.8634C 134.247 30.8306 132.913 31.3143 131.458 31.3143C 129.76 31.3143 128.062 30.5888 126.728 29.2589C 124.424 26.7199 124.666 22.9719 126.971 20.5538C 122.726 16.5639 117.875 13.0577 112.661 10.0351C 111.569 12.2114 109.386 13.4204 107.082 13.4204C 106.233 13.4204 105.263 13.1786 104.414 12.8159C 101.382 11.365 99.9272 7.85879 101.261 4.71527C 96.0465 2.7808 90.8318 1.45085 85.4959 0.846331C 85.2534 4.11075 82.4642 6.52884 79.3111 6.52884C 79.1898 6.52884 79.0686 6.52884 78.9473 6.52884C 75.5517 6.16613 72.8838 3.38533 73.005 0ZM 75.3092 129.005C 67.6691 129.005 60.0291 127.433 52.6315 124.048C 25.4669 111.474 13.7036 79.4342 26.3158 52.3516C 35.4111 32.7651 54.9357 21.1583 75.3092 21.1583C 82.9492 21.1583 90.7106 22.73 97.9868 26.2363C 125.03 38.8103 136.793 70.7291 124.303 97.6908C 115.207 117.398 95.6827 129.005 75.3092 129.005Z"/>
<path id="path5_stroke_2x" d="M 71.3072 1.93447L 71.5517 1.88194L 71.5069 1.67365L 71.2941 1.68482L 71.3072 1.93447ZM 78.7048 8.22151L 78.6882 8.47095L 78.6965 8.47151L 78.7048 8.47151L 78.7048 8.22151ZM 86.8299 2.7808L 86.8662 2.53345L 86.6616 2.50345L 86.5937 2.6988L 86.8299 2.7808ZM 98.957 5.80342L 99.2033 5.84602L 99.24 5.63402L 99.0358 5.56617L 98.957 5.80342ZM 103.565 14.3876L 103.46 14.6145L 103.464 14.6162L 103.565 14.3876ZM 113.146 12.3323L 113.275 12.1183L 113.101 12.0133L 112.963 12.1619L 113.146 12.3323ZM 124.424 20.6747L 124.638 20.8036L 124.745 20.6262L 124.59 20.4883L 124.424 20.6747ZM 125.273 30.347L 125.088 30.5155L 125.09 30.5174L 125.273 30.347ZM 134.853 32.1606L 135.056 32.015L 134.927 31.834L 134.732 31.9419L 134.853 32.1606ZM 141.281 42.9211L 141.425 43.1253L 141.598 43.0029L 141.505 42.8119L 141.281 42.9211ZM 138.491 52.2307L 138.258 52.3196L 138.258 52.3207L 138.491 52.2307ZM 146.738 57.5505L 146.981 57.4927L 146.935 57.3005L 146.738 57.3005L 146.738 57.5505ZM 148.799 71.3336L 148.85 71.5785L 149.06 71.5351L 149.049 71.3205L 148.799 71.3336ZM 142.493 78.7088L 142.244 78.6921L 142.244 78.6927L 142.493 78.7088ZM 147.95 86.8094L 148.198 86.8459L 148.227 86.6452L 148.037 86.5749L 147.95 86.8094ZM 144.919 98.8999L 144.84 99.1371L 145.077 99.2158L 145.156 98.9791L 144.919 98.8999ZM 136.308 103.494L 136.535 103.6L 136.539 103.591L 136.308 103.494ZM 138.37 113.046L 138.584 113.176L 138.691 112.999L 138.538 112.86L 138.37 113.046ZM 130.002 124.29L 129.868 124.501L 130.047 124.614L 130.188 124.457L 130.002 124.29ZM 120.301 125.136L 120.139 124.945L 120.132 124.951L 120.301 125.136ZM 118.482 134.688L 118.627 134.891L 118.801 134.767L 118.705 134.576L 118.482 134.688ZM 107.81 141.096L 107.606 141.24L 107.728 141.413L 107.918 141.321L 107.81 141.096ZM 98.4719 138.315L 98.5532 138.551L 98.5618 138.548L 98.5701 138.545L 98.4719 138.315ZM 93.136 146.415L 93.201 146.657L 93.3996 146.603L 93.3854 146.398L 93.136 146.415ZM 79.3111 148.471L 79.0667 148.523L 79.1115 148.732L 79.3242 148.72L 79.3111 148.471ZM 71.7923 142.184L 71.8084 141.934L 71.8004 141.934L 71.7923 141.934L 71.7923 142.184ZM 63.6672 147.624L 63.6239 147.871L 63.8335 147.907L 63.9034 147.706L 63.6672 147.624ZM 51.5401 144.602L 51.2938 144.559L 51.2574 144.769L 51.459 144.838L 51.5401 144.602ZM 46.9318 136.018L 47.0368 135.791L 47.0331 135.789L 46.9318 136.018ZM 37.3514 138.073L 37.2221 138.287L 37.3959 138.392L 37.5344 138.243L 37.3514 138.073ZM 26.0732 129.731L 25.8628 129.595L 25.7477 129.775L 25.9066 129.917L 26.0732 129.731ZM 25.2243 120.058L 25.4087 119.889L 25.4073 119.888L 25.2243 120.058ZM 15.6439 118.245L 15.4407 118.39L 15.5703 118.571L 15.7651 118.463L 15.6439 118.245ZM 9.21658 107.605L 9.07237 107.401L 8.899 107.523L 8.99167 107.714L 9.21658 107.605ZM 12.0058 98.2953L 12.2395 98.2064L 12.2391 98.2054L 12.0058 98.2953ZM 3.88067 92.9755L 3.63744 93.0333L 3.6831 93.2255L 3.88067 93.2255L 3.88067 92.9755ZM 1.81906 79.1924L 1.76856 78.9476L 1.55808 78.991L 1.56941 79.2056L 1.81906 79.1924ZM 8.12514 71.6964L 8.37475 71.7125L 8.37501 71.7044L 8.12514 71.6964ZM 2.66796 63.5958L 2.42178 63.5522L 2.38537 63.7579L 2.58136 63.8303L 2.66796 63.5958ZM 5.69973 51.5053L 5.76019 51.2627L 5.53802 51.2074L 5.46338 51.4238L 5.69973 51.5053ZM 14.31 46.9109L 14.0833 46.8054L 14.0828 46.8065L 14.31 46.9109ZM 12.2484 37.3595L 12.0347 37.2296L 11.9247 37.4107L 12.0852 37.5489L 12.2484 37.3595ZM 20.4948 26.1154L 20.6287 25.9043L 20.4467 25.7888L 20.3057 25.9518L 20.4948 26.1154ZM 30.3177 25.269L 30.479 25.4602L 30.4856 25.4543L 30.3177 25.269ZM 32.1368 15.7176L 31.9918 15.5139L 31.8173 15.6382L 31.9133 15.8297L 32.1368 15.7176ZM 42.9299 9.30964L 43.1339 9.16518L 43.0117 8.99259L 42.8213 9.08448L 42.9299 9.30964ZM 52.2677 12.0904L 52.1864 11.854L 52.1779 11.857L 52.1695 11.8606L 52.2677 12.0904ZM 57.6036 3.86894L 57.5432 3.62636L 57.3402 3.67695L 57.3542 3.88562L 57.6036 3.86894ZM 126 98.5371L 125.774 98.4316L 125.774 98.4319L 126 98.5371ZM 98.8357 24.6645L 98.7286 24.8905L 98.7324 24.8922L 98.8357 24.6645ZM 24.618 51.6262L 24.8445 51.7319L 24.8447 51.7315L 24.618 51.6262ZM 51.7826 125.62L 51.6774 125.847L 51.68 125.848L 51.7826 125.62ZM 73.005 0L 73.2549 0.00894989L 73.2643 -0.255328L 73 -0.249948L 73.005 0ZM 55.4208 2.6599L 55.3543 2.41889L 55.0971 2.48983L 55.1846 2.7419L 55.4208 2.6599ZM 51.6614 10.3978L 51.7402 10.635L 51.7429 10.6341L 51.6614 10.3978ZM 43.6575 6.89156L 43.8895 6.79847L 43.7915 6.55424L 43.5526 6.66461L 43.6575 6.89156ZM 29.7114 15.234L 29.5616 15.0337L 29.3473 15.194L 29.5218 15.3969L 29.7114 15.234ZM 29.105 23.8182L 28.9425 23.6281L 28.938 23.6321L 29.105 23.8182ZM 20.3735 23.4555L 20.5582 23.287L 20.3768 23.0881L 20.1919 23.2837L 20.3735 23.4555ZM 9.82294 37.7222L 9.60698 37.5963L 9.47032 37.8306L 9.71502 37.9477L 9.82294 37.7222ZM 12.6122 45.9437L 12.838 46.051L 12.839 46.0487L 12.6122 45.9437ZM 4.48702 49.0872L 4.59855 48.8635L 4.34994 48.7395L 4.2528 48.9998L 4.48702 49.0872ZM 0.606354 64.8048L 0.35866 64.7709L 0.32251 65.0352L 0.588596 65.0542L 0.606354 64.8048ZM 6.30608 71.3336L 6.05655 71.3158L 6.05623 71.325L 6.30608 71.3336ZM 0 77.3789L 0 77.1289L -0.260444 77.1289L -0.249791 77.3891L 0 77.3789ZM 2.66796 94.91L 2.42706 94.9769L 2.50159 95.2455L 2.76056 95.1422L 2.66796 94.91ZM 10.4293 98.6581L 10.1919 98.7374L 10.196 98.748L 10.4293 98.6581ZM 6.91244 106.638L 6.81528 106.407L 6.57421 106.509L 6.68674 106.745L 6.91244 106.638ZM 15.2801 120.542L 15.0803 120.692L 15.2349 120.898L 15.436 120.737L 15.2801 120.542ZM 23.8904 121.146L 24.0755 120.978L 24.0751 120.978L 23.8904 121.146ZM 23.6478 129.851L 23.4713 129.674L 23.2884 129.857L 23.4766 130.034L 23.6478 129.851ZM 37.9578 140.37L 37.8345 140.588L 38.0634 140.717L 38.1812 140.482L 37.9578 140.37ZM 46.2042 137.589L 46.3122 137.364L 46.3024 137.359L 46.2042 137.589ZM 49.3572 145.69L 49.1271 145.592L 49.0248 145.833L 49.2703 145.924L 49.3572 145.69ZM 65.1224 149.68L 65.0833 149.927L 65.3516 149.969L 65.3717 149.698L 65.1224 149.68ZM 71.6711 143.997L 71.68 143.747L 71.6711 143.747L 71.6711 143.997ZM 77.6133 150.284L 77.3633 150.284L 77.3633 150.539L 77.6184 150.534L 77.6133 150.284ZM 95.1976 147.624L 95.2641 147.865L 95.5125 147.797L 95.4365 147.551L 95.1976 147.624ZM 99.0783 139.886L 98.9994 139.649L 98.9967 139.65L 99.0783 139.886ZM 107.082 143.393L 106.85 143.486L 106.949 143.732L 107.189 143.619L 107.082 143.393ZM 121.028 135.05L 121.178 135.251L 121.392 135.09L 121.218 134.887L 121.028 135.05ZM 121.635 126.466L 121.797 126.656L 121.802 126.652L 121.635 126.466ZM 130.366 126.829L 130.181 126.997L 130.363 127.196L 130.548 127.001L 130.366 126.829ZM 140.917 112.562L 141.133 112.688L 141.265 112.461L 141.032 112.34L 140.917 112.562ZM 138.127 104.341L 137.902 104.233L 137.901 104.236L 138.127 104.341ZM 146.253 101.197L 146.154 101.427L 146.395 101.53L 146.487 101.284L 146.253 101.197ZM 150.133 85.4795L 150.382 85.5078L 150.411 85.2486L 150.151 85.2301L 150.133 85.4795ZM 144.434 78.9506L 144.683 78.9685L 144.683 78.9599L 144.434 78.9506ZM 150.74 73.0263L 150.74 73.2763L 151 73.2763L 150.989 73.0161L 150.74 73.0263ZM 148.072 55.4952L 148.313 55.4283L 148.238 55.1597L 147.979 55.2629L 148.072 55.4952ZM 140.31 51.7471L 140.547 51.6678L 140.547 51.6651L 140.31 51.7471ZM 143.827 43.7674L 143.924 43.9978L 144.163 43.8971L 144.054 43.662L 143.827 43.7674ZM 135.46 29.8634L 135.659 29.7131L 135.505 29.5076L 135.304 29.668L 135.46 29.8634ZM 126.728 29.2589L 126.543 29.4271L 126.552 29.4359L 126.728 29.2589ZM 126.971 20.5538L 127.152 20.7262L 127.325 20.544L 127.142 20.3716L 126.971 20.5538ZM 112.661 10.0351L 112.786 9.81878L 112.556 9.68559L 112.437 9.923L 112.661 10.0351ZM 104.414 12.8159L 104.306 13.0416L 104.316 13.0458L 104.414 12.8159ZM 101.261 4.71527L 101.491 4.81293L 101.594 4.57194L 101.348 4.48088L 101.261 4.71527ZM 85.4959 0.846331L 85.5241 0.59792L 85.2659 0.568668L 85.2466 0.827808L 85.4959 0.846331ZM 78.9473 6.52884L 78.9208 6.77743L 78.934 6.77884L 78.9473 6.77884L 78.9473 6.52884ZM 52.6315 124.048L 52.5265 124.275L 52.5275 124.275L 52.6315 124.048ZM 26.3158 52.3516L 26.5424 52.4572L 26.5425 52.4569L 26.3158 52.3516ZM 97.9868 26.2363L 97.8783 26.4615L 97.8814 26.463L 97.9868 26.2363ZM 124.303 97.6908L 124.076 97.5857L 124.076 97.5861L 124.303 97.6908ZM 71.0628 1.98701C 71.8142 5.48298 74.9402 8.22184 78.6882 8.47095L 78.7213 7.97205C 75.1931 7.73755 72.2555 5.15662 71.5517 1.88194L 71.0628 1.98701ZM 78.7048 8.47151C 78.826 8.47151 79.0686 8.47151 79.1898 8.47151L 79.1898 7.9715C 79.0686 7.9715 78.826 7.9715 78.7048 7.9715L 78.7048 8.47151ZM 79.1898 8.47151C 82.8168 8.47151 85.9409 6.10337 87.0661 2.8628L 86.5937 2.6988C 85.536 5.74527 82.5966 7.9715 79.1898 7.9715L 79.1898 8.47151ZM 86.7936 3.02816C 90.9021 3.63006 94.8828 4.7128 98.8782 6.04066L 99.0358 5.56617C 95.0273 4.23413 91.0041 3.14059 86.8662 2.53345L 86.7936 3.02816ZM 98.7106 5.76081C 98.0846 9.3808 99.9642 12.9962 103.46 14.6145L 103.67 14.1608C 100.375 12.6355 98.6167 9.23849 99.2033 5.84602L 98.7106 5.76081ZM 103.464 14.6162C 104.579 15.1088 105.721 15.3616 106.961 15.3631L 106.961 14.8631C 105.775 14.8645 104.735 14.6338 103.667 14.1591L 103.464 14.6162ZM 106.961 15.3631C 109.464 15.3631 111.711 14.2399 113.329 12.5026L 112.963 12.1619C 111.428 13.8099 109.309 14.8631 106.961 14.8631L 106.961 15.3631ZM 113.016 12.5462C 117.008 14.9581 120.749 17.725 124.257 20.8611L 124.59 20.4883C 121.065 17.3373 117.287 14.5426 113.275 12.1183L 113.016 12.5462ZM 124.21 20.5458C 122.338 23.6562 122.583 27.7681 125.088 30.5155L 125.457 30.1786C 123.112 27.6062 122.872 23.7383 124.638 20.8036L 124.21 20.5458ZM 125.09 30.5174C 126.713 32.2598 128.961 33.2569 131.336 33.2569L 131.336 32.7569C 129.103 32.7569 126.986 31.8196 125.456 30.1766L 125.09 30.5174ZM 131.336 33.2569C 132.574 33.2557 133.848 32.9998 134.974 32.3793L 134.732 31.9419C 133.676 32.5304 132.524 32.7581 131.336 32.7569L 131.336 33.2569ZM 134.65 32.3062C 137.07 35.6833 139.242 39.2922 141.056 43.0302L 141.505 42.8119C 139.681 39.0539 137.487 35.4086 135.056 32.015L 134.65 32.3062ZM 141.136 42.7169C 138.133 44.8378 136.883 48.7063 138.258 52.3196L 138.725 52.1418C 137.432 48.7427 138.607 45.1151 141.425 43.1253L 141.136 42.7169ZM 138.258 52.3207C 139.506 55.5565 142.628 57.8005 146.131 57.8005L 146.131 57.3005C 142.844 57.3005 139.902 55.192 138.725 52.1408L 138.258 52.3207ZM 146.131 57.8005C 146.374 57.8005 146.495 57.8005 146.738 57.8005L 146.738 57.3005C 146.495 57.3005 146.374 57.3005 146.131 57.3005L 146.131 57.8005ZM 146.494 57.6083C 147.584 62.1934 148.308 66.7654 148.55 71.3468L 149.049 71.3205C 148.805 66.7131 148.074 62.0964 146.981 57.4927L 146.494 57.6083ZM 148.749 71.0888C 145.117 71.8379 142.493 74.9578 142.244 78.6921L 142.743 78.7255C 142.978 75.2055 145.448 72.2802 148.85 71.5785L 148.749 71.0888ZM 142.244 78.6927C 141.993 82.5654 144.5 85.8018 147.864 87.0439L 148.037 86.5749C 144.852 85.399 142.508 82.3484 142.743 78.725L 142.244 78.6927ZM 147.703 86.7729C 147.099 90.8689 146.013 94.8374 144.682 98.8206L 145.156 98.9791C 146.492 94.9827 147.589 90.9715 148.198 86.8459L 147.703 86.7729ZM 144.997 98.6626C 144.587 98.5262 144.056 98.529 143.585 98.529L 143.585 99.029C 144.084 99.029 144.523 99.0317 144.84 99.1371L 144.997 98.6626ZM 143.585 98.529C 140.338 98.529 137.332 100.397 136.078 103.398L 136.539 103.591C 137.71 100.788 140.525 99.029 143.585 99.029L 143.585 98.529ZM 136.082 103.389C 134.455 106.882 135.461 110.746 138.202 113.231L 138.538 112.86C 135.943 110.509 135.009 106.877 136.535 103.6L 136.082 103.389ZM 138.156 112.916C 135.737 116.896 132.962 120.625 129.816 124.123L 130.188 124.457C 133.349 120.942 136.152 117.175 138.584 113.176L 138.156 112.916ZM 130.136 124.079C 128.767 123.214 127.244 122.833 125.758 122.831L 125.758 123.331C 127.183 123.329 128.57 123.673 129.868 124.501L 130.136 124.079ZM 125.758 122.831C 123.649 122.835 121.749 123.592 120.139 124.945L 120.462 125.327C 122.006 124.021 123.743 123.326 125.758 123.331L 125.758 122.831ZM 120.132 124.951C 117.259 127.567 116.632 131.558 118.258 134.8L 118.705 134.576C 117.178 131.53 117.764 127.783 120.469 125.321L 120.132 124.951ZM 118.337 134.484C 114.948 136.897 111.449 139.063 107.701 140.87L 107.918 141.321C 111.689 139.501 115.224 137.314 118.627 134.891L 118.337 134.484ZM 108.014 140.951C 106.508 138.825 104.005 137.581 101.261 137.581L 101.261 138.081C 103.854 138.081 106.201 139.255 107.606 141.24L 108.014 140.951ZM 101.261 137.581C 100.275 137.582 99.2556 137.711 98.3737 138.085L 98.5701 138.545C 99.386 138.193 100.306 138.081 101.261 138.081L 101.261 137.581ZM 98.3906 138.078C 94.7616 139.326 92.6366 142.819 92.8866 146.433L 93.3854 146.398C 93.1503 142.999 95.1485 139.722 98.5532 138.551L 98.3906 138.078ZM 93.071 146.174C 88.6005 147.379 83.897 147.98 79.298 148.221L 79.3242 148.72C 83.9418 148.478 88.6975 147.87 93.201 146.657L 93.071 146.174ZM 79.5555 148.418C 78.8037 144.92 75.6759 142.183 71.8084 141.934L 71.7763 142.433C 75.4276 142.668 78.3633 145.251 79.0667 148.523L 79.5555 148.418ZM 71.7923 141.934C 71.6711 141.934 71.5498 141.934 71.3072 141.934L 71.3072 142.434C 71.5498 142.434 71.6711 142.434 71.7923 142.434L 71.7923 141.934ZM 71.3072 141.934C 67.6802 141.934 64.5562 144.302 63.431 147.542L 63.9034 147.706C 64.9611 144.66 67.9005 142.434 71.3072 142.434L 71.3072 141.934ZM 63.7105 147.378C 59.5942 146.654 55.4899 145.691 51.6212 144.365L 51.459 144.838C 55.3516 146.172 59.4937 147.144 63.6239 147.871L 63.7105 147.378ZM 51.7864 144.644C 52.4125 141.024 50.5329 137.409 47.0368 135.791L 46.8268 136.244C 50.1219 137.77 51.8804 141.167 51.2938 144.559L 51.7864 144.644ZM 47.0331 135.789C 45.9184 135.296 44.7761 135.044 43.5362 135.042L 43.5362 135.542C 44.7217 135.541 45.7623 135.771 46.8305 136.246L 47.0331 135.789ZM 43.5362 135.042C 41.0334 135.042 38.7865 136.165 37.1685 137.903L 37.5344 138.243C 39.0693 136.595 41.1882 135.542 43.5362 135.542L 43.5362 135.042ZM 37.4807 137.859C 33.4886 135.447 29.7479 132.68 26.2398 129.544L 25.9066 129.917C 29.4323 133.068 33.2103 135.863 37.2221 138.287L 37.4807 137.859ZM 26.2836 129.866C 28.2841 126.749 28.0334 122.755 25.4087 119.889L 25.04 120.227C 27.5086 122.923 27.743 126.667 25.8628 129.595L 26.2836 129.866ZM 25.4073 119.888C 23.7844 118.145 21.5357 117.148 19.1608 117.148L 19.1608 117.648C 21.3941 117.648 23.5112 118.586 25.0414 120.229L 25.4073 119.888ZM 19.1608 117.148C 17.9235 117.149 16.6493 117.405 15.5228 118.026L 15.7651 118.463C 16.8214 117.875 17.9726 117.647 19.1608 117.648L 19.1608 117.148ZM 15.8472 118.099C 13.4264 114.72 11.2545 111.232 9.44149 107.496L 8.99167 107.714C 10.8168 111.474 13.0107 114.998 15.4407 118.39L 15.8472 118.099ZM 9.3608 107.809C 12.3641 105.688 13.6142 101.82 12.2395 98.2064L 11.7722 98.3842C 13.0654 101.783 11.8901 105.411 9.07237 107.401L 9.3608 107.809ZM 12.2391 98.2054C 10.9916 94.9717 7.87124 92.7255 4.48702 92.7255L 4.48702 93.2255C 7.65142 93.2255 10.5946 95.332 11.7726 98.3853L 12.2391 98.2054ZM 4.48702 92.7255C 4.24448 92.7255 4.12321 92.7255 3.88067 92.7255L 3.88067 93.2255C 4.12321 93.2255 4.24448 93.2255 4.48702 93.2255L 4.48702 92.7255ZM 4.1239 92.9178C 3.03448 88.3327 2.31023 83.7606 2.06871 79.1793L 1.56941 79.2056C 1.81298 83.813 2.54397 88.4297 3.63744 93.0333L 4.1239 92.9178ZM 1.86957 79.4373C 5.50333 78.6877 8.12526 75.5659 8.37462 71.7125L 7.87567 71.6802C 7.63995 75.3228 5.16851 78.2463 1.76856 78.9476L 1.86957 79.4373ZM 8.37501 71.7044C 8.49992 67.844 6.12526 64.6059 2.75456 63.3612L 2.58136 63.8303C 5.75928 65.0037 7.99291 68.0526 7.87528 71.6883L 8.37501 71.7044ZM 2.91413 63.6393C 3.64043 59.5355 4.60588 55.4438 5.93607 51.5868L 5.46338 51.4238C 4.12562 55.3047 3.15074 59.4345 2.42178 63.5522L 2.91413 63.6393ZM 5.63927 51.7479C 6.15435 51.8743 6.54862 51.8762 7.03371 51.8762L 7.03371 51.3762C 6.54863 51.3762 6.21527 51.3781 5.76019 51.2627L 5.63927 51.7479ZM 7.03371 51.8762C 10.2866 51.8762 13.1632 50.0038 14.5371 47.0154L 14.0828 46.8065C 12.7887 49.6215 10.0869 51.3762 7.03371 51.3762L 7.03371 51.8762ZM 14.5366 47.0165C 16.1621 43.5259 15.161 39.5375 12.4115 37.17L 12.0852 37.5489C 14.6716 39.7759 15.6108 43.5253 14.0833 46.8054L 14.5366 47.0165ZM 12.462 37.4893C 14.8811 33.5093 17.658 29.7781 20.6839 26.2789L 20.3057 25.9518C 17.268 29.4651 14.4665 33.2299 12.0347 37.2296L 12.462 37.4893ZM 20.3608 26.3265C 21.7303 27.1915 23.2535 27.5725 24.8605 27.5744L 24.8605 27.0744C 23.3145 27.0763 21.9272 26.7319 20.6287 25.9043L 20.3608 26.3265ZM 24.8605 27.5744C 26.9693 27.5699 28.8697 26.8134 30.4789 25.4601L 30.1565 25.0779C 28.6126 26.3846 26.875 27.0789 24.8605 27.0744L 24.8605 27.5744ZM 30.4856 25.4543C 33.2364 22.9611 33.9873 18.8498 32.3602 15.6055L 31.9133 15.8297C 33.4393 18.8724 32.7349 22.7408 30.1498 25.0838L 30.4856 25.4543ZM 32.2818 15.9212C 35.6691 13.5088 39.2891 11.3433 43.0385 9.53481L 42.8213 9.08448C 39.0519 10.9031 35.3956 13.0902 31.9918 15.5139L 32.2818 15.9212ZM 42.7258 9.45411C 44.2311 11.5802 46.7351 12.8241 49.4785 12.8241L 49.4785 12.3241C 46.886 12.3241 44.5391 11.1499 43.1339 9.16518L 42.7258 9.45411ZM 49.4785 12.8241C 50.4641 12.8236 51.484 12.6945 52.366 12.3203L 52.1695 11.8606C 51.3536 12.2118 50.4332 12.3245 49.4785 12.3241L 49.4785 12.8241ZM 52.349 12.3269C 55.9801 11.0785 58.1026 7.58399 57.8531 3.85226L 57.3542 3.88562C 57.5897 7.40816 55.5891 10.6843 52.1864 11.854L 52.349 12.3269ZM 57.6641 4.11152C 62.0155 3.0265 66.7214 2.42527 71.3203 2.18413L 71.2941 1.68482C 66.6765 1.92729 61.9232 2.5351 57.5432 3.62636L 57.6641 4.11152ZM 75.3092 131.069C 97.1137 131.069 117.091 118.317 126.227 98.6424L 125.774 98.4319C 116.719 117.93 96.9196 130.569 75.3092 130.569L 75.3092 131.069ZM 126.227 98.6427C 132.561 85.0411 133.17 69.8591 128.054 55.8928L 127.585 56.0648C 132.655 69.9065 132.052 84.9506 125.774 98.4316L 126.227 98.6427ZM 128.054 55.8928C 122.938 41.9267 112.583 30.6311 98.9391 24.4369L 98.7324 24.8922C 112.253 31.0302 122.514 42.2229 127.585 56.0648L 128.054 55.8928ZM 98.9428 24.4386C 91.5199 20.922 83.4621 19.0963 75.3092 19.0947L 75.3092 19.5947C 83.4065 19.5932 91.3566 21.3946 98.7286 24.8904L 98.9428 24.4386ZM 75.3092 19.0947C 53.5047 19.0947 33.5276 31.8459 24.3912 51.5209L 24.8447 51.7315C 33.8989 32.2335 53.6987 19.5947 75.3092 19.5947L 75.3092 19.0947ZM 24.3914 51.5205C 11.3565 79.4548 23.6607 112.852 51.6775 125.847L 51.8878 125.393C 24.12 112.514 11.9275 79.4137 24.8445 51.7319L 24.3914 51.5205ZM 51.68 125.848C 59.2217 129.242 67.1558 131.067 75.3092 131.069L 75.3092 130.569C 67.2122 130.57 59.3812 128.768 51.8853 125.392L 51.68 125.848ZM 73 -0.249948C 67.0401 -0.128064 61.0671 0.843908 55.3543 2.41889L 55.4872 2.9009C 61.1739 1.33237 67.0854 0.369873 73.0101 0.249948L 73 -0.249948ZM 55.1846 2.7419C 56.2307 5.75494 54.602 9.11847 51.5798 10.1615L 51.7429 10.6341C 55.0268 9.50082 56.7937 5.85189 55.6569 2.5779L 55.1846 2.7419ZM 51.5825 10.1605C 50.8736 10.3969 50.1856 10.5113 49.4785 10.5105L 49.4785 11.0105C 50.2267 11.0097 50.9938 10.8823 51.7402 10.635L 51.5825 10.1605ZM 49.4785 10.5105C 47.1463 10.5105 44.8185 9.1138 43.8895 6.79847L 43.4255 6.98464C 44.4369 9.50549 46.9598 11.0105 49.4785 11.0105L 49.4785 10.5105ZM 43.5526 6.66461C 38.5682 8.96791 33.9375 11.7622 29.5616 15.0337L 29.8611 15.4342C 34.2167 12.1769 38.8026 9.40957 43.7624 7.1185L 43.5526 6.66461ZM 29.5218 15.3969C 31.6171 17.8342 31.381 21.5444 28.9426 23.6281L 29.2674 24.0082C 31.9224 21.7394 32.1713 17.7118 29.9009 15.071L 29.5218 15.3969ZM 28.938 23.6321C 27.7668 24.6901 26.3971 25.1432 24.8605 25.1399L 24.8605 25.6399C 26.477 25.6367 28.0178 25.1225 29.272 24.0043L 28.938 23.6321ZM 24.8605 25.1399C 23.2259 25.1399 21.719 24.56 20.5582 23.287L 20.1888 23.6239C 21.4535 25.0109 23.0996 25.6399 24.8605 25.6399L 24.8605 25.1399ZM 20.1919 23.2837C 16.1792 27.5274 12.6454 32.3866 9.60698 37.5963L 10.0389 37.8481C 13.064 32.66 16.5639 27.8469 20.5551 23.6272L 20.1919 23.2837ZM 9.71502 37.9477C 12.6151 39.3355 13.787 42.8109 12.3853 45.8387L 12.839 46.0487C 14.3478 42.7895 13.0943 39.0106 9.93085 37.4967L 9.71502 37.9477ZM 12.3864 45.8364C 11.3367 48.0456 9.24224 49.3208 6.91244 49.3208L 6.91244 49.8208C 9.43347 49.8208 11.7047 48.4361 12.838 46.051L 12.3864 45.8364ZM 6.91244 49.3208C 6.08121 49.3215 5.28899 49.2112 4.59855 48.8635L 4.37549 49.311C 5.1403 49.6886 6.04587 49.8202 6.91244 49.8208L 6.91244 49.3208ZM 4.2528 48.9998C 2.30736 54.2139 1.08813 59.4396 0.35866 64.7709L 0.854048 64.8387C 1.57983 59.5304 2.78602 54.3584 4.72124 49.1746L 4.2528 48.9998ZM 0.588596 65.0542C 3.8485 65.2863 6.28925 68.0703 6.05672 71.3158L 6.55544 71.3515C 6.808 67.8263 4.15538 64.8069 0.624112 64.5554L 0.588596 65.0542ZM 6.05623 71.325C 5.9397 74.6943 3.26316 77.1289 0.121271 77.1289L 0.121271 77.6289C 3.52801 77.6289 6.42993 74.9854 6.55593 71.3423L 6.05623 71.325ZM 0.121271 77.1289L 0 77.1289L 0 77.6289L 0.121271 77.6289L 0.121271 77.1289ZM -0.249791 77.3891C -0.00640982 83.3261 0.846748 89.2788 2.42706 94.9769L 2.90886 94.8432C 1.33613 89.1763 0.491493 83.2803 0.249791 77.3686L -0.249791 77.3891ZM 2.76056 95.1422C 3.34149 94.909 4.0225 94.7965 4.60829 94.7973L 4.60829 94.2973C 3.98138 94.2981 3.20713 94.4274 2.57535 94.6778L 2.76056 95.1422ZM 4.60829 94.7973C 7.05608 94.7973 9.38005 96.3083 10.1922 98.7373L 10.6664 98.5788C 9.78074 95.9299 7.25388 94.2973 4.60829 94.2973L 4.60829 94.7973ZM 10.196 98.748C 11.3575 101.759 9.85063 105.127 6.81528 106.407L 7.0096 106.868C 10.2803 105.489 11.9265 101.844 10.6625 98.5681L 10.196 98.748ZM 6.68674 106.745C 8.99593 111.591 11.798 116.328 15.0803 120.692L 15.4799 120.391C 12.2136 116.05 9.43724 111.356 7.13813 106.53L 6.68674 106.745ZM 15.436 120.737C 16.615 119.793 17.8701 119.337 19.2821 119.341L 19.2821 118.841C 17.7836 118.845 16.3707 119.356 15.1242 120.346L 15.436 120.737ZM 19.2821 119.341C 20.9097 119.341 22.5404 120.037 23.7056 121.315L 24.0751 120.978C 22.8149 119.596 21.05 118.841 19.2821 118.841L 19.2821 119.341ZM 23.7052 121.314C 25.9183 123.753 25.8036 127.349 23.4713 129.674L 23.8243 130.028C 26.3429 127.517 26.4707 123.618 24.0755 120.978L 23.7052 121.314ZM 23.4766 130.034C 27.732 134.033 32.4855 137.557 37.8345 140.588L 38.081 140.153C 32.7582 137.138 28.0526 133.649 23.819 129.669L 23.4766 130.034ZM 38.1812 140.482C 39.2271 138.397 41.3193 137.235 43.5362 137.235L 43.5362 136.735C 41.1448 136.735 38.8713 137.991 37.7343 140.258L 38.1812 140.482ZM 43.5362 137.235C 44.3547 137.233 45.2757 137.464 46.106 137.819L 46.3024 137.359C 45.4349 136.99 44.4156 136.737 43.5362 136.735L 43.5362 137.235ZM 46.0963 137.815C 49.0143 139.211 50.4059 142.579 49.1271 145.592L 49.5874 145.788C 50.9765 142.514 49.4576 138.869 46.3121 137.364L 46.0963 137.815ZM 49.2703 145.924C 54.5 147.864 59.7387 149.079 65.0833 149.927L 65.1616 149.433C 59.8344 148.588 54.6437 147.385 49.4442 145.456L 49.2703 145.924ZM 65.3717 149.698C 65.6041 146.571 68.2787 144.247 71.3072 144.247L 71.3072 143.747C 68.0297 143.747 65.1258 146.26 64.8731 149.661L 65.3717 149.698ZM 71.3072 144.247C 71.4285 144.247 71.5498 144.247 71.6711 144.247L 71.6711 143.747C 71.5498 143.747 71.4285 143.747 71.3072 143.747L 71.3072 144.247ZM 71.6622 144.247C 74.9133 144.363 77.3633 147.144 77.3633 150.284L 77.8633 150.284C 77.8633 146.895 75.22 143.873 71.68 143.747L 71.6622 144.247ZM 77.6184 150.534C 83.5783 150.412 89.5513 149.44 95.2641 147.865L 95.1311 147.383C 89.4445 148.952 83.5329 149.914 77.6082 150.034L 77.6184 150.534ZM 95.4365 147.551C 94.5048 144.532 96.1382 141.166 99.1598 140.123L 98.9967 139.65C 95.7122 140.784 93.95 144.43 94.9587 147.698L 95.4365 147.551ZM 99.1571 140.124C 99.866 139.887 100.554 139.773 101.261 139.774L 101.261 139.274C 100.513 139.275 99.7458 139.402 98.9994 139.649L 99.1571 140.124ZM 101.261 139.774C 103.593 139.774 105.921 141.17 106.85 143.486L 107.314 143.3C 106.303 140.779 103.78 139.274 101.261 139.274L 101.261 139.774ZM 107.189 143.619C 112.05 141.316 116.801 138.523 121.178 135.251L 120.879 134.85C 116.524 138.107 111.816 140.875 106.975 143.167L 107.189 143.619ZM 121.218 134.887C 119.122 132.45 119.359 128.74 121.797 126.656L 121.472 126.276C 118.817 128.545 118.568 132.572 120.839 135.213L 121.218 134.887ZM 121.802 126.652C 122.973 125.594 124.343 125.141 125.879 125.144L 125.879 124.644C 124.263 124.648 122.722 125.162 121.468 126.28L 121.802 126.652ZM 125.879 125.144C 127.514 125.144 129.021 125.724 130.181 126.997L 130.551 126.66C 129.286 125.273 127.64 124.644 125.879 124.644L 125.879 125.144ZM 130.548 127.001C 134.56 122.757 138.094 117.898 141.133 112.688L 140.701 112.436C 137.676 117.624 134.176 122.437 130.184 126.657L 130.548 127.001ZM 141.032 112.34C 138.119 110.83 136.955 107.468 138.354 104.446L 137.901 104.236C 136.389 107.5 137.651 111.151 140.802 112.784L 141.032 112.34ZM 138.353 104.448C 139.403 102.239 141.497 100.963 143.827 100.963L 143.827 100.463C 141.306 100.463 139.035 101.848 137.902 104.233L 138.353 104.448ZM 143.827 100.963C 144.656 100.963 145.334 101.074 146.154 101.427L 146.351 100.967C 145.474 100.594 144.697 100.464 143.827 100.463L 143.827 100.963ZM 146.487 101.284C 148.431 96.073 149.773 90.8446 150.382 85.5078L 149.885 85.4511C 149.281 90.7539 147.954 95.9233 146.018 101.11L 146.487 101.284ZM 150.151 85.2301C 146.891 84.9979 144.45 82.214 144.683 78.9685L 144.184 78.9328C 143.932 82.4579 146.584 85.4774 150.116 85.7288L 150.151 85.2301ZM 144.683 78.9599C 144.8 75.8315 147.477 73.2763 150.618 73.2763L 150.618 72.7763C 147.211 72.7763 144.31 75.5409 144.184 78.9413L 144.683 78.9599ZM 150.618 73.2763L 150.74 73.2763L 150.74 72.7763L 150.618 72.7763L 150.618 73.2763ZM 150.989 73.0161C 150.746 67.0791 149.893 61.1264 148.313 55.4283L 147.831 55.562C 149.404 61.2289 150.248 67.1249 150.49 73.0365L 150.989 73.0161ZM 147.979 55.2629C 147.398 55.4962 146.717 55.6087 146.131 55.6079L 146.131 56.1079C 146.758 56.107 147.533 55.9778 148.164 55.7274L 147.979 55.2629ZM 146.131 55.6079C 143.684 55.6079 141.36 54.0969 140.547 51.6678L 140.073 51.8264C 140.959 54.4753 143.486 56.1079 146.131 56.1079L 146.131 55.6079ZM 140.547 51.6651C 139.497 48.6417 140.897 45.2747 143.924 43.9978L 143.73 43.5371C 140.451 44.92 138.941 48.5655 140.074 51.8291L 140.547 51.6651ZM 144.054 43.662C 141.744 38.6926 138.941 34.0758 135.659 29.7131L 135.26 30.0137C 138.527 34.3562 141.303 38.9281 143.6 43.8728L 144.054 43.662ZM 135.304 29.668C 134.125 30.6125 132.87 31.068 131.458 31.0643L 131.458 31.5643C 132.956 31.5605 134.369 31.0488 135.615 30.0589L 135.304 29.668ZM 131.458 31.0643C 129.832 31.0643 128.196 30.3693 126.905 29.0818L 126.552 29.4359C 127.928 30.8083 129.688 31.5643 131.458 31.5643L 131.458 31.0643ZM 126.913 29.0909C 124.705 26.6578 124.929 23.0584 127.152 20.7262L 126.79 20.3813C 124.404 22.8853 124.143 26.782 126.543 29.4269L 126.913 29.0909ZM 127.142 20.3716C 122.885 16.3711 118.011 12.848 112.786 9.81878L 112.535 10.2514C 117.739 13.2674 122.567 16.7567 126.799 20.7359L 127.142 20.3716ZM 112.437 9.923C 111.391 12.0084 109.299 13.1704 107.082 13.1704L 107.082 13.6704C 109.474 13.6704 111.747 12.4143 112.884 10.1471L 112.437 9.923ZM 107.082 13.1704C 106.264 13.1723 105.343 12.9416 104.512 12.586L 104.316 13.0458C 105.183 13.4156 106.203 13.6685 107.082 13.6704L 107.082 13.1704ZM 104.522 12.5904C 101.604 11.1939 100.212 7.82648 101.491 4.81293L 101.031 4.61761C 99.6419 7.8911 101.161 11.5361 104.306 13.0414L 104.522 12.5904ZM 101.348 4.48088C 96.121 2.54215 90.8769 1.20495 85.5241 0.59792L 85.4678 1.09474C 90.7868 1.69676 95.972 3.01945 101.174 4.94967L 101.348 4.48088ZM 85.2466 0.827808C 85.0142 3.95539 82.3397 6.27884 79.3111 6.27884L 79.3111 6.77884C 82.5886 6.77884 85.4925 4.26612 85.7452 0.864855L 85.2466 0.827808ZM 79.3111 6.27884C 79.1898 6.27884 79.0686 6.27884 78.9473 6.27884L 78.9473 6.77884C 79.0686 6.77884 79.1898 6.77884 79.3111 6.77884L 79.3111 6.27884ZM 78.9739 6.28026C 75.694 5.9299 73.1388 3.24877 73.2549 0.00894989L 72.7552 -0.00894989C 72.6287 3.52188 75.4095 6.40236 78.9208 6.77743L 78.9739 6.28026ZM 75.3092 128.755C 67.6944 128.756 60.1068 127.196 52.7356 123.821L 52.5275 124.275C 59.9514 127.671 67.6438 129.254 75.3092 129.255L 75.3092 128.755ZM 52.7366 123.821C 25.6969 111.305 13.9888 79.4139 26.5424 52.4572L 26.0891 52.2461C 13.4184 79.4545 25.2368 111.643 52.5265 124.275L 52.7366 123.821ZM 26.5425 52.4569C 35.5952 32.9621 55.0291 21.4083 75.3092 21.4083L 75.3092 20.9083C 54.8422 20.9083 35.2269 32.5681 26.089 52.2463L 26.5425 52.4569ZM 75.3092 21.4083C 82.9243 21.407 90.6309 22.967 97.8783 26.4615L 98.0954 26.0111C 90.7903 22.4931 82.9742 20.9095 75.3092 20.9083L 75.3092 21.4083ZM 97.8814 26.463C 124.801 38.9793 136.508 70.7501 124.076 97.5857L 124.529 97.7959C 137.079 70.7082 125.26 38.6414 98.0922 26.0096L 97.8814 26.463ZM 124.076 97.5861C 115.023 117.202 95.589 128.755 75.3092 128.755L 75.3092 129.255C 95.7764 129.255 115.392 117.595 124.53 97.7956L 124.076 97.5861Z"/>
<path id="path6_fill" d="M 7.3239 0.0475088C 11.8109 -0.436109 15.8129 2.82831 16.2979 7.30178C 16.783 11.7752 13.5087 15.7651 9.02169 16.2487C 4.53467 16.7323 0.532734 13.4679 0.0476509 8.99444C -0.437432 4.52097 2.83688 0.531127 7.3239 0.0475088Z"/>
<path id="path7_stroke" d="M 30.5304 15.7176C 30.5304 23.843 23.9227 30.4352 15.7652 30.4352L 15.7652 32.4352C 25.0215 32.4352 32.5304 24.9533 32.5304 15.7176L 30.5304 15.7176ZM 15.7652 30.4352C 7.60775 30.4352 0.999998 23.843 0.999998 15.7176L -1 15.7176C -1 24.9533 6.50889 32.4352 15.7652 32.4352L 15.7652 30.4352ZM 0.999998 15.7176C 0.999998 7.59214 7.60775 1 15.7652 1L 15.7652 -1C 6.50889 -1 -1 6.48187 -1 15.7176L 0.999998 15.7176ZM 15.7652 1C 23.9227 1 30.5304 7.59214 30.5304 15.7176L 32.5304 15.7176C 32.5304 6.48187 25.0215 -1 15.7652 -1L 15.7652 1Z"/>
<path id="path8_stroke" d="M 0.999998 -4.61214e-07C 0.999998 -0.552285 0.552283 -1 -1.52588e-06 -1C -0.552286 -1 -1 -0.552285 -1 -4.61214e-07L 0.999998 -4.61214e-07ZM -1 37.3595C -1 37.9118 -0.552286 38.3595 -1.52588e-06 38.3595C 0.552283 38.3595 0.999998 37.9118 0.999998 37.3595L -1 37.3595ZM -1 -4.61214e-07L -1 37.3595L 0.999998 37.3595L 0.999998 -4.61214e-07L -1 -4.61214e-07Z"/>
<path id="path9_stroke" d="M 0.999998 -1.84486e-06C 0.999998 -0.552287 0.552283 -1 -1.52588e-06 -1C -0.552286 -1 -1 -0.552287 -1 -1.84486e-06L 0.999998 -1.84486e-06ZM -1 37.4804C -1 38.0327 -0.552286 38.4804 -1.52588e-06 38.4804C 0.552283 38.4804 0.999998 38.0327 0.999998 37.4804L -1 37.4804ZM -1 -1.84486e-06L -1 37.4804L 0.999998 37.4804L 0.999998 -1.84486e-06L -1 -1.84486e-06Z"/>
<path id="path10_stroke" d="M 37.594 1C 38.1462 1 38.594 0.552285 38.594 7.62939e-07C 38.594 -0.552284 38.1462 -0.999999 37.594 -0.999999L 37.594 1ZM 4.62611e-07 -0.999999C -0.552284 -0.999999 -1 -0.552284 -1 7.62939e-07C -1 0.552285 -0.552284 1 4.62611e-07 1L 4.62611e-07 -0.999999ZM 37.594 -0.999999L 4.62611e-07 -0.999999L 4.62611e-07 1L 37.594 1L 37.594 -0.999999Z"/>
<path id="path11_stroke" d="M 27.6266 0.709766C 28.0186 0.320717 28.0209 -0.312444 27.6319 -0.704438C 27.2428 -1.09643 26.6097 -1.09882 26.2177 -0.709769L 27.6266 0.709766ZM -0.704435 26.0101C -1.09643 26.3992 -1.09882 27.0323 -0.709767 27.4243C -0.320718 27.8163 0.312443 27.8187 0.704436 27.4297L -0.704435 26.0101ZM 26.2177 -0.709769L -0.704435 26.0101L 0.704436 27.4297L 27.6266 0.709766L 26.2177 -0.709769Z"/>
<path id="path12_stroke" d="M 27.7494 0.708176C 28.1405 0.318243 28.1415 -0.314921 27.7516 -0.706036C 27.3616 -1.09715 26.7285 -1.09811 26.3374 -0.708175L 27.7494 0.708176ZM -0.706033 26.2535C -1.09715 26.6435 -1.0981 27.2766 -0.708172 27.6677C -0.318239 28.0589 0.314926 28.0598 0.70604 27.6699L -0.706033 26.2535ZM 26.3374 -0.708175L -0.706033 26.2535L 0.70604 27.6699L 27.7494 0.708176L 26.3374 -0.708175Z"/>
<path id="path13_stroke" d="M 26.2161 27.549C 26.6072 27.9389 27.2404 27.9379 27.6303 27.5468C 28.0202 27.1557 28.0193 26.5226 27.6282 26.1326L 26.2161 27.549ZM 0.706036 -0.708176C 0.314921 -1.09811 -0.318243 -1.09715 -0.708176 -0.706036C -1.09811 -0.314922 -1.09715 0.318243 -0.706037 0.708176L 0.706036 -0.708176ZM 27.6282 26.1326L 0.706036 -0.708176L -0.706037 0.708176L 26.2161 27.549L 27.6282 26.1326Z"/>
<path id="path14_stroke" d="M 0.70604 -0.708179C 0.314926 -1.09811 -0.318239 -1.09715 -0.708172 -0.70604C -1.0981 -0.314926 -1.09715 0.318239 -0.706033 0.708172L 0.70604 -0.708179ZM 26.2161 27.549C 26.6072 27.9389 27.2404 27.9379 27.6303 27.5468C 28.0202 27.1557 28.0193 26.5226 27.6282 26.1326L 26.2161 27.549ZM -0.706033 0.708172L 26.2161 27.549L 27.6282 26.1326L 0.70604 -0.708179L -0.706033 0.708172Z"/>
<path id="path15_fill" d="M 1.09143 1.84486e-06L 2.78924 1.84486e-06C 3.39559 1.84486e-06 3.88067 0.483617 3.88067 1.08814L 3.88067 1.57176C 3.88067 2.17628 3.39559 2.6599 2.78924 2.6599L 1.09143 2.6599C 0.48508 2.6599 3.70089e-06 2.17628 3.70089e-06 1.57176L 3.70089e-06 1.08814C 3.70089e-06 0.483617 0.48508 1.84486e-06 1.09143 1.84486e-06Z"/>
<path id="path16_fill" d="M -7.40178e-06 0L 6.06353 1.20904L 8.85277 4.83618L 8.85277 35.9086L 8.85277 80.8851L 8.85277 112.32L 5.33592 115.947L -7.40178e-06 116.794L -7.40178e-06 0Z"/>
<path id="path17_fill" d="M 4.72955 0L 4.72955 35.9086L 4.72955 80.8851L 4.72955 116.794L 0 113.529L 0 3.26442L 4.72955 0Z"/>
<path id="path18_stroke" d="M 6.06353 1L 8.61023 1L 8.61023 -1L 6.06353 -1L 6.06353 1ZM 8.61023 1C 11.4434 1 13.6738 3.32291 13.6738 6.04522L 15.6738 6.04522C 15.6738 2.2387 12.5682 -1 8.61023 -1L 8.61023 1ZM 13.6738 6.04522L 13.6738 110.99L 15.6738 110.99L 15.6738 6.04522L 13.6738 6.04522ZM 13.6738 110.99C 13.6738 113.808 11.3482 116.036 8.61023 116.036L 8.61023 118.036C 12.4209 118.036 15.6738 114.944 15.6738 110.99L 13.6738 110.99ZM 8.61023 116.036L 6.06353 116.036L 6.06353 118.036L 8.61023 118.036L 8.61023 116.036ZM 6.06353 116.036C 3.23036 116.036 0.999993 113.713 0.999993 110.99L -1.00001 110.99C -1.00001 114.797 2.10554 118.036 6.06353 118.036L 6.06353 116.036ZM 0.999993 110.99L 0.999993 6.04522L -1.00001 6.04522L -1.00001 110.99L 0.999993 110.99ZM 0.999993 6.04522C 0.999993 3.33594 3.33865 1 6.06353 1L 6.06353 -1C 2.23979 -1 -1.00001 2.22567 -1.00001 6.04522L 0.999993 6.04522Z"/>
<path id="path19_fill" d="M 1.6978 3.68971e-06L 2.18287 3.68971e-06C 3.15304 3.68971e-06 3.88067 0.725423 3.88067 1.69266L 3.88067 2.17628C 3.88067 3.14351 3.15304 3.86894 2.18287 3.86894L 1.6978 3.86894C 0.727629 3.86894 -7.40178e-06 3.14351 -7.40178e-06 2.17628L -7.40178e-06 1.69266C -7.40178e-06 0.846328 0.727629 3.68971e-06 1.6978 3.68971e-06Z"/>
<path id="path20_fill" d="M -7.40178e-06 2.17628L -7.40178e-06 1.69266C -7.40178e-06 0.725427 0.727629 -4.61214e-07 1.6978 -4.61214e-07L 2.18287 -4.61214e-07C 3.15304 -4.61214e-07 3.88067 0.725427 3.88067 1.69266L 3.88067 2.17628C 3.88067 3.14352 3.15304 3.86894 2.18287 3.86894L 1.6978 3.86894C 0.727629 3.86894 -7.40178e-06 3.14352 -7.40178e-06 2.17628Z"/>
<path id="path21_fill" d="M 5.44895 0L 3.69531e-06 0L 3.69531e-06 18.7686L 5.44895 18.7686L 5.44895 0Z"/>
<path id="path22_fill" d="M 13.9461 0L 12.7334 9.79326L 8.61023 13.5413L 5.33592 13.5413L -7.40178e-06 7.97969L -7.40178e-06 0L 13.9461 0Z"/>
<path id="path23_stroke" d="M 14.5525 4.95708L 15.5447 5.08149C 15.5499 5.04022 15.5525 4.99867 15.5525 4.95708L 14.5525 4.95708ZM 14.0674 7.61699L 13.1061 7.34149L 13.1041 7.34859L 14.0674 7.61699ZM 0 4.95708L -1 4.95708C -1 4.98011 -0.999205 5.00312 -0.997616 5.02609L 0 4.95708ZM 0 8.59078e-15L 0 -1C -0.552285 -1 -1 -0.552285 -1 8.81282e-15L 0 8.59078e-15ZM 14.5525 8.59078e-15L 15.5525 8.59078e-15C 15.5525 -0.552285 15.1048 -1 14.5525 -1L 14.5525 8.59078e-15ZM 13.5525 1.32995L 13.5525 4.95708L 15.5525 4.95708L 15.5525 1.32995L 13.5525 1.32995ZM 13.5603 4.83268C 13.4401 5.79119 13.3321 6.5615 13.1061 7.3415L 15.0287 7.89248C 15.2878 6.9798 15.4223 6.05744 15.5447 5.08149L 13.5603 4.83268ZM 13.1041 7.34859C 12.0068 11.287 9.09475 12.8648 6.53603 12.5057C 3.98667 12.1479 1.33678 9.79109 0.997616 4.88807L -0.997616 5.02609C -0.609155 10.6418 2.56195 13.9675 6.25805 14.4863C 9.94479 15.0037 13.7026 12.6521 15.0307 7.88538L 13.1041 7.34859ZM 1 4.95708L 1 1.32995L -1 1.32995L -1 4.95708L 1 4.95708ZM 1 1.32995L 1 8.59078e-15L -1 8.59078e-15L -1 1.32995L 1 1.32995ZM 0 1L 14.5525 1L 14.5525 -1L 0 -1L 0 1ZM 13.5525 8.59078e-15L 13.5525 1.32995L 15.5525 1.32995L 15.5525 8.59078e-15L 13.5525 8.59078e-15Z"/>
<path id="path24_fill" d="M 25.8307 1.84486e-06L 25.8307 14.3876L 17.8268 14.3876L 8.00387 14.3876L 7.40178e-06 14.3876L 7.40178e-06 1.84486e-06L 25.8307 1.84486e-06Z"/>
<path id="path25_stroke" d="M -3.68971e-06 1.85045e-06L -3.68971e-06 -0.999998C -0.552288 -0.999998 -1 -0.552283 -1 1.85045e-06L -3.68971e-06 1.85045e-06ZM 14.6294 1.85045e-06L 15.6294 1.85045e-06C 15.6294 -0.552283 15.1817 -0.999998 14.6294 -0.999998L 14.6294 1.85045e-06ZM 14.6294 25.7094L 14.6294 26.7094C 15.1817 26.7094 15.6294 26.2617 15.6294 25.7094L 14.6294 25.7094ZM -3.68971e-06 25.7094L -1 25.7094C -1 26.2617 -0.552288 26.7094 -3.68971e-06 26.7094L -3.68971e-06 25.7094ZM -3.68971e-06 1L 14.6294 1L 14.6294 -0.999998L -3.68971e-06 -0.999998L -3.68971e-06 1ZM 13.6294 1.85045e-06L 13.6294 25.7094L 15.6294 25.7094L 15.6294 1.85045e-06L 13.6294 1.85045e-06ZM 14.6294 24.7094L -3.68971e-06 24.7094L -3.68971e-06 26.7094L 14.6294 26.7094L 14.6294 24.7094ZM 0.999996 25.7094L 0.999996 1.85045e-06L -1 1.85045e-06L -1 25.7094L 0.999996 25.7094Z"/>
<path id="path26_fill" d="M -7.40178e-06 4.61214e-07L 9.0953 4.61214e-07L 9.0953 15.4758L 9.0953 34.6996L 9.0953 50.0545L -7.40178e-06 50.0545L -7.40178e-06 4.61214e-07Z"/>
<path id="path27_fill" d="M 0 4.61214e-07L 5.33591 4.61214e-07L 5.33591 15.4758L 5.33591 34.6996L 5.33591 50.0545L 0 50.0545L 0 4.61214e-07Z"/>
<path id="path28_stroke" d="M -7.40178e-06 2.30607e-07L -7.40178e-06 -1C -0.552292 -1 -1.00001 -0.552285 -1.00001 2.30607e-07L -7.40178e-06 2.30607e-07ZM 14.6738 2.30607e-07L 15.6738 2.30607e-07C 15.6738 -0.552285 15.2261 -1 14.6738 -1L 14.6738 2.30607e-07ZM 14.6738 54.6488L 14.6738 55.6488C 15.2261 55.6488 15.6738 55.2011 15.6738 54.6488L 14.6738 54.6488ZM -7.40178e-06 54.6488L -1.00001 54.6488C -1.00001 55.2011 -0.552292 55.6488 -7.40178e-06 55.6488L -7.40178e-06 54.6488ZM -7.40178e-06 1L 14.6738 1L 14.6738 -1L -7.40178e-06 -1L -7.40178e-06 1ZM 13.6738 2.30607e-07L 13.6738 54.6488L 15.6738 54.6488L 15.6738 2.30607e-07L 13.6738 2.30607e-07ZM 14.6738 53.6488L -7.40178e-06 53.6488L -7.40178e-06 55.6488L 14.6738 55.6488L 14.6738 53.6488ZM 0.999993 54.6488L 0.999993 2.30607e-07L -1.00001 2.30607e-07L -1.00001 54.6488L 0.999993 54.6488Z"/>
<path id="path29_fill" d="M 10.0655 24.1809L 6.91244 17.8939L 3.03177 9.91417L 3.70089e-06 3.62714L 7.27625 3.68971e-06L 10.0655 24.1809Z"/>
<path id="path30_stroke" d="M 7.40178e-06 3.74804L -0.446124 2.85307C -0.938753 3.09864 -1.1403 3.69616 -0.897055 4.18994L 7.40178e-06 3.74804ZM 7.5188 3.68971e-06L 8.5133 -0.104735C 8.47897 -0.430688 8.28709 -0.719129 7.99972 -0.876756C 7.71236 -1.03438 7.36599 -1.04119 7.07266 -0.894964L 7.5188 3.68971e-06ZM 10.0655 24.1809L 9.16841 24.6228C 9.38255 25.0575 9.87756 25.2761 10.3431 25.1416C 10.8086 25.0071 11.1107 24.5581 11.06 24.0762L 10.0655 24.1809ZM 0.446139 4.64301L 7.96493 0.894971L 7.07266 -0.894964L -0.446124 2.85307L 0.446139 4.64301ZM 6.5243 0.104742L 9.07097 24.2856L 11.06 24.0762L 8.5133 -0.104735L 6.5243 0.104742ZM 10.9625 23.739L 0.89707 3.30614L -0.897055 4.18994L 9.16841 24.6228L 10.9625 23.739Z"/>
<path id="path31_fill" d="M 15.8865 21.4001L 13.3398 14.7503L 10.1867 6.52884L 7.64007 0L 0 2.90171L 15.8865 21.4001Z"/>
<path id="path32_stroke" d="M 7.76132 0L 8.69196 -0.365956C 8.49225 -0.873805 7.92228 -1.12778 7.41113 -0.936677L 7.76132 0ZM 0 2.90171L -0.350194 1.96503C -0.658031 2.08012 -0.889666 2.33912 -0.96981 2.65785C -1.04995 2.97657 -0.968375 3.31433 -0.751588 3.56134L 0 2.90171ZM 16.129 21.2792L 15.3774 21.9388C 15.698 22.304 16.2347 22.386 16.6496 22.133C 17.0645 21.8801 17.2375 21.3655 17.0597 20.9132L 16.129 21.2792ZM 7.41113 -0.936677L -0.350194 1.96503L 0.350194 3.83839L 8.11152 0.936677L 7.41113 -0.936677ZM -0.751588 3.56134L 15.3774 21.9388L 16.8806 20.6196L 0.751588 2.24208L -0.751588 3.56134ZM 17.0597 20.9132L 8.69196 -0.365956L 6.83069 0.365956L 15.1984 21.6451L 17.0597 20.9132Z"/>
<path id="path33_fill" d="M 13.4611 -3.68971e-06L 16.6141 7.49608L 12.4909 9.30965L 7.39751 11.4859L 3.27431 13.2995L 3.70089e-06 5.80342L 13.4611 -3.68971e-06Z"/>
<path id="path34_stroke" d="M -3.69148e-06 3.69913e-06L -3.69148e-06 -0.999996C -0.552288 -0.999996 -1 -0.552281 -1 3.69913e-06L -3.69148e-06 3.69913e-06ZM 8.34641 3.69913e-06L 9.34641 3.69913e-06C 9.34641 -0.552281 8.8987 -0.999996 8.34641 -0.999996L 8.34641 3.69913e-06ZM 8.34641 14.6668L 8.34641 15.6668C 8.8987 15.6668 9.34641 15.2191 9.34641 14.6668L 8.34641 14.6668ZM -3.69148e-06 14.6668L -1 14.6668C -1 15.2191 -0.552288 15.6668 -3.69148e-06 15.6668L -3.69148e-06 14.6668ZM -3.69148e-06 1L 8.34641 1L 8.34641 -0.999996L -3.69148e-06 -0.999996L -3.69148e-06 1ZM 7.34641 3.69913e-06L 7.34641 14.6668L 9.34641 14.6668L 9.34641 3.69913e-06L 7.34641 3.69913e-06ZM 8.34641 13.6668L -3.69148e-06 13.6668L -3.69148e-06 15.6668L 8.34641 15.6668L 8.34641 13.6668ZM 0.999996 14.6668L 0.999996 3.69913e-06L -1 3.69913e-06L -1 14.6668L 0.999996 14.6668Z"/>
<path id="path35_fill" d="M 7.40178e-06 14.7503L 7.40178e-06 -9.22428e-07L 8.00387 -9.22428e-07L 17.8268 -9.22428e-07L 25.7094 -9.22428e-07L 25.7094 14.7503L 7.40178e-06 14.7503Z"/>
<path id="path36_stroke" d="M -3.68971e-06 -9.25223e-07L -3.68971e-06 -1C -0.552288 -1 -1 -0.552286 -1 -9.25223e-07L -3.68971e-06 -9.25223e-07ZM 14.6294 -9.25223e-07L 15.6294 -9.25223e-07C 15.6294 -0.552286 15.1817 -1 14.6294 -1L 14.6294 -9.25223e-07ZM 14.6294 25.7094L 14.6294 26.7094C 15.1817 26.7094 15.6294 26.2617 15.6294 25.7094L 14.6294 25.7094ZM -3.68971e-06 25.7094L -1 25.7094C -1 26.2617 -0.552288 26.7094 -3.68971e-06 26.7094L -3.68971e-06 25.7094ZM -3.68971e-06 0.999999L 14.6294 0.999999L 14.6294 -1L -3.68971e-06 -1L -3.68971e-06 0.999999ZM 13.6294 -9.25223e-07L 13.6294 25.7094L 15.6294 25.7094L 15.6294 -9.25223e-07L 13.6294 -9.25223e-07ZM 14.6294 24.7094L -3.68971e-06 24.7094L -3.68971e-06 26.7094L 14.6294 26.7094L 14.6294 24.7094ZM 0.999996 25.7094L 0.999996 -9.25223e-07L -1 -9.25223e-07L -1 25.7094L 0.999996 25.7094Z"/>
<path id="path37_fill" d="M 3.70089e-06 8.82603L 1.21271 2.7808L 4.85084 -1.15303e-07L 36.0174 -1.15303e-07L 81.1302 -1.15303e-07L 112.661 -1.15303e-07L 116.299 3.50623L 117.148 8.82603L 3.70089e-06 8.82603Z"/>
<path id="path38_fill" d="M 3.70089e-06 -4.61214e-07L 36.0174 -4.61214e-07L 81.1302 -4.61214e-07L 117.148 -4.61214e-07L 113.873 4.71527L 3.27431 4.71527L 3.70089e-06 -4.61214e-07Z"/>
<path id="path39_stroke" d="M 6.06354 14.6294L 6.06354 13.6294C 6.05123 13.6294 6.03893 13.6297 6.02664 13.6301L 6.06354 14.6294ZM 0.999996 8.70512L 0.999996 6.04522L -1 6.04522L -1 8.70512L 0.999996 8.70512ZM 0.999996 6.04522C 0.999996 3.33594 3.33866 1 6.06354 1L 6.06354 -1C 2.2398 -1 -1 2.22567 -1 6.04522L 0.999996 6.04522ZM 6.06354 1L 111.327 1L 111.327 -1L 6.06354 -1L 6.06354 1ZM 111.327 1C 114.16 1 116.39 3.32291 116.39 6.04522L 118.39 6.04522C 118.39 2.2387 115.285 -1 111.327 -1L 111.327 1ZM 116.39 6.04522L 116.39 8.58422L 118.39 8.58422L 118.39 6.04522L 116.39 6.04522ZM 116.39 8.58422C 116.39 11.4015 114.065 13.6294 111.327 13.6294L 111.327 15.6294C 115.137 15.6294 118.39 12.5376 118.39 8.58422L 116.39 8.58422ZM 111.327 13.6294L 6.06354 13.6294L 6.06354 15.6294L 111.327 15.6294L 111.327 13.6294ZM 6.02664 13.6301C 3.33789 13.7294 0.999996 11.4222 0.999996 8.70512L -1 8.70512C -1 12.5169 2.24056 15.7713 6.10044 15.6288L 6.02664 13.6301Z"/>
<path id="path40_fill" d="M 7.40178e-06 2.17628L 7.40178e-06 1.69266C 7.40178e-06 0.725427 0.727625 -2.30607e-07 1.69779 -2.30607e-07L 2.18287 -2.30607e-07C 3.15303 -2.30607e-07 3.88067 0.725427 3.88067 1.69266L 3.88067 2.17628C 3.88067 3.14352 3.15303 3.86894 2.18287 3.86894L 1.69779 3.86894C 0.848896 3.86894 7.40178e-06 3.14352 7.40178e-06 2.17628Z"/>
<path id="path41_fill" d="M 2.18287 3.86894L 1.6978 3.86894C 0.727632 3.86894 -3.70089e-06 3.14352 -3.70089e-06 2.17628L -3.70089e-06 1.69266C -3.70089e-06 0.725427 0.727632 -2.30607e-07 1.6978 -2.30607e-07L 2.18287 -2.30607e-07C 3.15304 -2.30607e-07 3.88066 0.725427 3.88066 1.69266L 3.88066 2.17628C 3.88066 3.14352 3.15304 3.86894 2.18287 3.86894Z"/>
<path id="path42_fill" d="M 33.4707 -1.84486e-06L -7.40178e-06 15.5967L 2.06161 20.0701L 35.5323 4.35256L 33.4707 -1.84486e-06Z"/>
<path id="path43_fill" d="M 7.27625 14.5085C 11.2948 14.5085 14.5525 11.2607 14.5525 7.25427C 14.5525 3.24785 11.2948 0 7.27625 0C 3.25769 0 3.70089e-06 3.24785 3.70089e-06 7.25427C 3.70089e-06 11.2607 3.25769 14.5085 7.27625 14.5085Z"/>
<path id="path44_fill" d="M 2.78923 5.56161C 4.32967 5.56161 5.57846 4.31659 5.57846 2.7808C 5.57846 1.245 4.32967 0 2.78923 0C 1.24878 0 -7.40178e-06 1.245 -7.40178e-06 2.7808C -7.40178e-06 4.31659 1.24878 5.56161 2.78923 5.56161Z"/>
<path id="path45_fill" d="M 6.06354 53.4398L 2.42542 53.4398C 1.09144 53.4398 0 52.3516 0 51.0217L 0 2.41809C 0 1.08814 1.09144 3.68971e-06 2.42542 3.68971e-06L 6.06354 3.68971e-06C 7.39752 3.68971e-06 8.48896 1.08814 8.48896 2.41809L 8.48896 51.0217C 8.48896 52.3516 7.39752 53.4398 6.06354 53.4398Z"/>
<path id="path46_fill" d="M 117.026 43.5256L -1.85045e-06 43.5256L 15.0376 7.37942e-06L 102.474 7.37942e-06L 117.026 43.5256Z"/>
<path id="path47_stroke" d="M -0.945182 43.1991C -1.12553 43.7211 -0.848559 44.2905 -0.32655 44.4708C 0.195458 44.6511 0.764831 44.3742 0.945179 43.8522L -0.945182 43.1991ZM 15.0376 7.37942e-06L 15.0376 -0.999993L 14.3251 -0.999993L 14.0924 -0.326541L 15.0376 7.37942e-06ZM 102.474 7.37942e-06L 103.422 -0.317082L 103.194 -0.999993L 102.474 -0.999993L 102.474 7.37942e-06ZM 116.078 43.8427C 116.253 44.3665 116.82 44.6491 117.343 44.474C 117.867 44.2989 118.15 43.7323 117.975 43.2085L 116.078 43.8427ZM 0.945179 43.8522L 15.9828 0.326556L 14.0924 -0.326541L -0.945182 43.1991L 0.945179 43.8522ZM 15.0376 1.00001L 102.474 1.00001L 102.474 -0.999993L 15.0376 -0.999993L 15.0376 1.00001ZM 101.525 0.317097L 116.078 43.8427L 117.975 43.2085L 103.422 -0.317082L 101.525 0.317097Z"/>
<path id="path48_fill" d="M 226.291 4.23166C 226.291 1.81357 224.715 1.84486e-06 222.653 1.84486e-06L 3.63812 1.84486e-06C 1.69779 1.84486e-06 0 1.93447 0 4.23166L 0 140.733C 0 143.151 1.57652 144.964 3.63812 144.964L 222.653 144.964C 224.594 144.964 226.291 143.03 226.291 140.733L 226.291 4.23166Z"/>
<path id="path49_fill" d="M 226.17 0L 226.17 16.5639C 226.17 22.4882 221.926 27.2035 216.59 27.2035L 9.5804 27.2035C 4.36575 27.2035 4.62611e-07 22.4882 4.62611e-07 16.5639L 4.62611e-07 0L 226.17 0Z"/>
<path id="path50_fill" d="M 209.435 0L 0 0L 0 117.761L 209.435 117.761L 209.435 0Z"/>
<path id="path51_fill" d="M 135.581 7.37942e-06L 0 7.37942e-06L 0 9.79326L 135.581 9.79326L 135.581 7.37942e-06Z"/>
<path id="path52_stroke" d="M 117.997 -0.999993C 117.444 -0.999993 116.997 -0.552277 116.997 7.37942e-06C 116.997 0.552292 117.444 1.00001 117.997 1.00001L 117.997 -0.999993ZM 53.723 1.00001C 54.2753 1.00001 54.723 0.552292 54.723 7.37942e-06C 54.723 -0.552277 54.2753 -0.999993 53.723 -0.999993L 53.723 1.00001ZM 117.997 1.00001L 130.609 1.00001L 130.609 -0.999993L 117.997 -0.999993L 117.997 1.00001ZM 130.609 1.00001C 132.727 1.00001 134.46 2.73142 134.46 4.83619L 136.46 4.83619C 136.46 1.62115 133.826 -0.999993 130.609 -0.999993L 130.609 1.00001ZM 134.46 4.83619C 134.46 6.94095 132.727 8.67236 130.609 8.67236L 130.609 10.6724C 133.826 10.6724 136.46 8.05122 136.46 4.83619L 134.46 4.83619ZM 130.609 8.67236L 4.85083 8.67236L 4.85083 10.6724L 130.609 10.6724L 130.609 8.67236ZM 4.85083 8.67236C 2.7323 8.67236 1 6.94095 1 4.83619L -1 4.83619C -1 8.05122 1.63344 10.6724 4.85083 10.6724L 4.85083 8.67236ZM 1 4.83619C 1 2.73142 2.7323 1.00001 4.85083 1.00001L 4.85083 -0.999993C 1.63344 -0.999993 -1 1.62115 -1 4.83619L 1 4.83619ZM 4.85083 1.00001L 53.723 1.00001L 53.723 -0.999993L 4.85083 -0.999993L 4.85083 1.00001Z"/>
<path id="path53_stroke" d="M 227.291 4.23166C 227.291 1.4051 225.401 -1 222.653 -1L 222.653 1C 224.029 1 225.291 2.22203 225.291 4.23166L 227.291 4.23166ZM 222.653 -1L 3.63812 -1L 3.63812 1L 222.653 1L 222.653 -1ZM 3.63812 -1C 1.01465 -1 -1 1.52283 -1 4.23166L 1 4.23166C 1 2.34611 2.38093 1 3.63812 1L 3.63812 -1ZM -1 4.23166L -1 160.198L 1 160.198L 1 4.23166L -1 4.23166ZM -1 160.198C -1 163.025 0.89063 165.43 3.63812 165.43L 3.63812 163.43C 2.26241 163.43 1 162.208 1 160.198L -1 160.198ZM 3.63812 165.43L 222.653 165.43L 222.653 163.43L 3.63812 163.43L 3.63812 165.43ZM 222.653 165.43C 225.277 165.43 227.291 162.907 227.291 160.198L 225.291 160.198C 225.291 162.084 223.91 163.43 222.653 163.43L 222.653 165.43ZM 227.291 160.198L 227.291 4.23166L 225.291 4.23166L 225.291 160.198L 227.291 160.198Z"/>
<path id="path54_stroke" d="M 4.62611e-07 -1C -0.552284 -1 -1 -0.552285 -1 0C -1 0.552285 -0.552284 1 4.62611e-07 1L 4.62611e-07 -1ZM 226.17 1C 226.722 1 227.17 0.552285 227.17 0C 227.17 -0.552285 226.722 -1 226.17 -1L 226.17 1ZM 4.62611e-07 1L 226.17 1L 226.17 -1L 4.62611e-07 -1L 4.62611e-07 1Z"/>
<path id="path55_fill" d="M 23.2968 1.84486e-06C 14.444 3.14352 6.92526 9.79326 2.92332 18.982C -4.83801 36.6341 3.4084 57.1878 21.1139 64.9257C 25.1159 66.6184 29.2391 67.5856 33.3623 67.8274L 31.6645 32.2815L 23.2968 1.84486e-06Z"/>
<path id="path56_fill" d="M 33.7133 17.6616C 30.0752 11.3746 24.4967 6.0548 17.2205 2.91128C 11.642 0.493191 5.69973 -0.353144 3.70089e-06 0.130474L 6.18481 29.6312L 33.7133 17.6616Z"/>
<path id="path57_fill" d="M 2.42542 45.9437C 13.3398 43.7674 23.1627 36.5132 27.8923 25.5108C 31.5304 17.0475 31.6517 7.9797 28.7412 1.84486e-06L 0 11.8486L 2.42542 45.9437Z"/>
<path id="path58_fill" d="M 94.3487 3.68971e-06L 3.70089e-06 3.68971e-06L 3.70089e-06 3.62714L 94.3487 3.62714L 94.3487 3.68971e-06Z"/>
<path id="path59_fill" d="M 94.3487 0L 3.70089e-06 0L 3.70089e-06 3.62713L 94.3487 3.62713L 94.3487 0Z"/>
<path id="path60_fill" d="M 60.5141 0L 3.70089e-06 0L 3.70089e-06 3.62714L 60.5141 3.62714L 60.5141 0Z"/>
</defs>
</svg>
