<svg width="40" height="40" viewBox="0 0 40 40" version="1.1" xmlns="http://www.w3.org/2000/svg" xmlns:xlink="http://www.w3.org/1999/xlink">
<title>Vector</title>
<desc>Created using Figma</desc>
<g id="Canvas" transform="translate(-143 399)">
<g id="Vector">
<use xlink:href="#path0_fill" transform="translate(143 -399)" fill="#092F57"/>
<use xlink:href="#path1_fill" transform="translate(143 -399)" fill="#092F57"/>
</g>
</g>
<defs>
<path id="path0_fill" d="M 13.4297 24.3206C 12.6477 23.5342 11.3751 23.5342 10.5931 24.3206L 8.75794 26.1664C 7.9823 26.9465 7.9823 28.2066 8.75794 28.9867L 18.2899 38.5736C 19.0719 39.36 20.3445 39.36 21.1265 38.5736L 22.9616 36.7278C 23.7373 35.9477 23.7373 34.6876 22.9616 33.9075L 13.4297 24.3206Z"/>
<path id="path1_fill" d="M 33.9167 23.3308C 34.6987 24.1172 35.9713 24.1172 36.7533 23.3308L 38.5962 21.4772C 39.3725 20.6964 39.3717 19.435 38.5944 18.6552L 21.4165 1.42114C 20.6349 0.637018 19.3651 0.637018 18.5835 1.42114L 1.40556 18.6552C 0.628271 19.435 0.627487 20.6964 1.40381 21.4772L 3.24674 23.3308C 4.02871 24.1172 5.30132 24.1172 6.08328 23.3308L 10.891 18.4954C 11.6723 17.7095 12.9437 17.7088 13.726 18.4939L 26.2409 31.0538C 27.0232 31.8388 28.2946 31.8382 29.076 31.0523L 30.8906 29.2272C 31.6656 28.4477 31.6663 27.1888 30.8921 26.4084L 18.3641 13.7811C 17.5929 13.0037 17.5902 11.7508 18.358 10.9701L 18.5653 10.7593C 19.3459 9.96547 20.6245 9.96198 21.4095 10.7515L 33.9167 23.3308Z"/>
</defs>
</svg>
