<svg width="75" height="50" viewBox="0 0 75 50" version="1.1" xmlns="http://www.w3.org/2000/svg" xmlns:xlink="http://www.w3.org/1999/xlink">
<title>Vector</title>
<desc>Created using Figma</desc>
<g id="Canvas" transform="translate(661 404)">
<g id="Vector">
<use xlink:href="#path0_fill" transform="translate(-661 -404)" fill="#092F57"/>
</g>
</g>
<defs>
<path id="path0_fill" fill-rule="evenodd" d="M 70.3134 6.49864L 70.3134 11.3606L 68.3096 11.3606L 68.3096 6.49864L 63.6565 0.128217L 66.1403 0.128217L 69.3365 4.60509L 72.5987 0.128217L 75 0.128217L 70.3134 6.49864ZM 69.9158 26.3799L 69.9158 24.6148L 74.9168 24.6148L 74.9168 28.9634C 73.8406 30.1025 72.1016 30.7445 70.3464 30.7445C 66.7694 30.7445 64.1696 28.4819 64.1696 24.9999C 64.1696 21.7908 66.6534 19.2555 70.1311 19.2555C 72.0851 19.2555 73.7909 19.9295 74.652 21.0686L 73.3106 22.3041C 72.6317 21.5661 71.5883 21.1168 70.2304 21.1168C 67.8293 21.1168 66.2561 22.6252 66.2561 24.9999C 66.2561 27.471 67.9948 28.8832 70.3794 28.8832C 71.2738 28.8832 72.2507 28.6585 72.996 28.0968L 72.996 26.3799L 69.9158 26.3799ZM 69.3035 43.1163L 72.5657 38.6394L 74.9668 38.6394L 70.2804 45.0096L 70.2804 49.8716L 68.2766 49.8716L 68.2766 45.0096L 63.6232 38.6394L 66.1073 38.6394L 69.3035 43.1163ZM 60.9404 45.3787L 64.4181 49.8716L 61.9838 49.8716L 58.8209 45.7478L 56.37 45.7478L 56.37 49.8716L 54.3662 49.8716L 54.3662 38.6394L 58.9201 38.6394C 62.5301 38.6394 63.4907 40.3403 63.4907 42.1374C 63.4907 43.6778 62.4806 44.9456 60.9404 45.3787ZM 58.8706 40.4687L 56.37 40.4687L 56.37 43.9185L 58.9699 43.9185C 60.4933 43.9185 61.4042 43.2445 61.4042 42.1374C 61.4042 41.1587 60.8246 40.4687 58.8706 40.4687ZM 52.2465 22.9621L 52.2465 30.6161L 50.2922 30.6161L 50.2922 19.3839L 51.8489 19.3839L 58.241 27.0699L 58.241 19.3839L 60.1951 19.3839L 60.1951 30.6161L 58.6386 30.6161L 52.2465 22.9621ZM 50.4747 0.128217L 59.0859 0.128217L 59.0859 1.95754L 52.4785 1.95754L 52.4785 4.78176L 58.6553 4.78176L 58.6553 6.54663L 52.4785 6.54663L 52.4785 9.53129L 59.2514 9.53129L 59.2514 11.3606L 50.4747 11.3606L 50.4747 0.128217ZM 46.732 50C 43.4531 50 40.8035 47.5931 40.8035 44.2556C 40.8035 41.0143 43.4035 38.5109 46.732 38.5109C 50.0274 38.5109 52.6605 40.9178 52.6605 44.2556C 52.6605 47.5609 50.0274 50 46.732 50ZM 46.732 40.3723C 44.662 40.3723 42.8902 41.9127 42.8902 44.2556C 42.8902 46.5822 44.6785 48.1387 46.732 48.1387C 48.8848 48.1387 50.574 46.5822 50.574 44.2556C 50.574 41.9127 48.7523 40.3723 46.732 40.3723ZM 43.7016 19.3839L 45.7054 19.3839L 45.7054 30.6161L 43.7016 30.6161L 43.7016 19.3839ZM 36.4319 3.70665L 36.4319 11.3606L 34.4778 11.3606L 34.4778 0.128217L 36.0345 0.128217L 42.4267 7.81441L 42.4267 0.128217L 44.3807 0.128217L 44.3807 11.3606L 42.824 11.3606L 36.4319 3.70665ZM 39.9923 19.3839L 34.7261 24.4223L 40.3731 30.6161L 37.707 30.6161L 33.2192 25.7221L 32.176 26.7008L 32.176 30.6161L 30.1723 30.6161L 30.1723 19.3839L 32.176 19.3839L 32.176 24.3099L 37.3757 19.3839L 39.9923 19.3839ZM 29.0794 41.672C 28.2845 40.8216 27.2081 40.3723 25.9497 40.3723C 23.5649 40.3723 22.0084 41.9127 22.0084 44.2556C 22.0084 46.5982 23.6644 48.1387 26.0325 48.1387C 27.4897 48.1387 28.6158 47.5771 29.4107 46.6625L 30.5863 47.914C 29.6259 49.2298 27.854 50 25.8834 50C 22.2402 50 19.9219 47.7376 19.9219 44.2556C 19.9219 41.0463 22.2567 38.5109 25.8502 38.5109C 27.9535 38.5109 29.6094 39.3294 30.4043 40.4525L 29.0794 41.672ZM 23.0681 11.4888C 19.7891 11.4888 17.1395 9.08195 17.1395 5.74442C 17.1395 2.5031 19.7394 0 23.0681 0C 26.3635 0 28.9964 2.40688 28.9964 5.74442C 28.9964 9.04996 26.3635 11.4888 23.0681 11.4888ZM 23.0681 1.86132C 20.998 1.86132 19.2261 3.40176 19.2261 5.74442C 19.2261 8.07107 21.0146 9.62751 23.0681 9.62751C 25.2209 9.62751 26.9098 8.07107 26.9098 5.74442C 26.9098 3.40176 25.0883 1.86132 23.0681 1.86132ZM 21.6769 19.3839L 26.7608 30.6161L 24.6578 30.6161L 23.5316 28.129L 18.2489 28.129L 17.1395 30.6161L 15.0695 30.6161L 20.1534 19.3839L 21.6769 19.3839ZM 22.7865 26.4601L 20.882 22.1919L 18.9778 26.4601L 22.7865 26.4601ZM 17.9511 49.8716L 16.825 47.3845L 11.5423 47.3845L 10.4329 49.8716L 8.36286 49.8716L 13.4468 38.6394L 14.9702 38.6394L 20.0542 49.8716L 17.9511 49.8716ZM 14.1754 41.4474L 12.2709 45.7158L 16.0799 45.7158L 14.1754 41.4474ZM 9.6543 22.8337L 6.12708 27.2945L 5.61375 27.2945L 2.00377 22.8177L 2.00377 30.6161L 0 30.6161L 0 19.3839L 1.77198 19.3839L 5.9118 24.5988L 9.90282 19.3839L 11.6581 19.3839L 11.6581 30.6161L 9.6543 30.6161L 9.6543 22.8337ZM 9.6543 3.5782L 6.12708 8.03907L 5.61375 8.03907L 2.00377 3.56221L 2.00377 11.3606L 0 11.3606L 0 0.128217L 1.77198 0.128217L 5.9118 5.34331L 9.90282 0.128217L 11.6581 0.128217L 11.6581 11.3606L 9.6543 11.3606L 9.6543 3.5782ZM 8.52839 40.4687L 2.00377 40.4687L 2.00377 43.6458L 8.09783 43.6458L 8.09783 45.4749L 2.00377 45.4749L 2.00377 49.8716L 0 49.8716L 0 38.6394L 8.52839 38.6394L 8.52839 40.4687ZM 40.8532 40.4687L 36.9617 40.4687L 36.9617 49.8716L 34.9579 49.8716L 34.9579 40.4687L 31.0662 40.4687L 31.0662 38.6394L 40.8532 38.6394L 40.8532 40.4687Z"/>
</defs>
</svg>
