<svg width="105" height="104" viewBox="0 0 105 104" version="1.1" xmlns="http://www.w3.org/2000/svg" xmlns:xlink="http://www.w3.org/1999/xlink">
<title>Group</title>
<desc>Created using Figma</desc>
<g id="Canvas" transform="translate(-9017 -5082)">
<g id="Group">
<g id="Vector">
<use xlink:href="#path0_fill" transform="translate(9017 5082)" fill="url(#paint0_radial)"/>
</g>
<g id="Group">
<g id="Vector">
<use xlink:href="#path1_fill" transform="translate(9029.95 5093.8)" fill="#FFFFFF"/>
</g>
<g id="Vector">
<use xlink:href="#path2_fill" transform="translate(9046.94 5111.61)" fill="#FFFFFF"/>
</g>
<g id="Vector">
<use xlink:href="#path3_fill" transform="translate(9085.95 5107.95)" fill="#FFFFFF"/>
</g>
</g>
</g>
</g>
<defs>
<radialGradient id="paint0_radial" cx="0.5" cy="0.5" r="0.5" gradientUnits="userSpaceOnUse" gradientTransform="matrix(211.708 0 0 210.133 -75.3363 -1.31846)">
<stop offset="0" stop-color="#FFD776"/>
<stop offset="0.2463" stop-color="#F3A554"/>
<stop offset="0.3793" stop-color="#F15C3C"/>
<stop offset="0.5394" stop-color="#D94867"/>
<stop offset="0.6995" stop-color="#C32F87"/>
<stop offset="0.9122" stop-color="#7D63A7"/>
<stop offset="0.9852" stop-color="#5C6CB3"/>
</radialGradient>
<path id="path0_fill" d="M 105 81.2188C 105 93.802 94.7746 104 82.1462 104L 22.8538 104C 10.2254 104 0 93.802 0 81.2188L 0 22.7812C 0 10.198 10.2254 0 22.8538 0L 82.1462 0C 94.7746 0 105 10.198 105 22.7812L 105 81.2188Z"/>
<path id="path1_fill" d="M 55.2954 80.6104L 23.8101 80.6104C 10.6913 80.6104 -1.87082e-07 69.9986 -1.87082e-07 56.9773L -1.87082e-07 23.633C -1.87082e-07 10.6118 10.6913 -6.91752e-15 23.8101 -6.91752e-15L 55.2954 -6.91752e-15C 68.4143 -6.91752e-15 79.1056 10.6118 79.1056 23.633L 79.1056 56.9773C 79.1056 69.9986 68.4143 80.6104 55.2954 80.6104ZM 23.8101 8.54294C 15.4239 8.54294 8.60696 15.3092 8.60696 23.633L 8.60696 56.9773C 8.60696 65.3012 15.4239 72.0674 23.8101 72.0674L 55.2954 72.0674C 63.6817 72.0674 70.4986 65.3012 70.4986 56.9773L 70.4986 23.633C 70.4986 15.3092 63.6817 8.54294 55.2954 8.54294L 23.8101 8.54294Z"/>
<path id="path2_fill" d="M 22.5596 44.7928C 10.1273 44.7928 -3.74165e-07 34.7408 -3.74165e-07 22.401C -3.74165e-07 16.3163 2.52569 10.4019 6.91499 6.16698C 11.2062 2.02937 16.8216 -0.161132 22.7312 0.00923996C 29.6952 0.203951 35.4823 2.56482 39.5037 6.82412C 43.3291 10.8644 45.2662 16.2919 45.1436 22.5227C 45.021 28.4857 42.6425 34.0593 38.4738 38.2213C 34.2071 42.4562 28.5673 44.7928 22.5596 44.7928ZM 22.0936 10.4263C 19.1756 10.4263 16.4047 11.5702 14.2468 13.639C 11.8683 15.9269 10.5196 19.1153 10.5196 22.401C 10.5196 28.9968 15.9388 34.3757 22.5841 34.3757C 29.2048 34.3757 34.5014 29.0699 34.6485 22.3036C 34.8202 15.002 30.3573 10.6697 22.4369 10.4506C 22.2898 10.4263 22.1917 10.4263 22.0936 10.4263Z"/>
<path id="path3_fill" d="M 4.85521 9.63819C 7.53666 9.63819 9.71041 7.48061 9.71041 4.8191C 9.71041 2.15758 7.53666 0 4.85521 0C 2.17375 0 2.99332e-06 2.15758 2.99332e-06 4.8191C 2.99332e-06 7.48061 2.17375 9.63819 4.85521 9.63819Z"/>
</defs>
</svg>
