<svg width="520" height="311" viewBox="0 0 520 311" version="1.1" xmlns="http://www.w3.org/2000/svg" xmlns:xlink="http://www.w3.org/1999/xlink">
<title>bg CL</title>
<desc>Created using Figma</desc>
<g id="Canvas" transform="translate(-11230 -6940)">
<g id="bg CL">
<g id="Rectangle 19">
<use xlink:href="#path0_fill" transform="translate(11266 7028)" fill="#89F5C5"/>
</g>
<g id="Rectangle 19">
<use xlink:href="#path1_fill" transform="translate(11245.2 6940)" fill="#89F5C5"/>
</g>
<g id="Rectangle 19">
<use xlink:href="#path2_fill" transform="translate(11298.8 7073)" fill="#89F5C5"/>
</g>
<g id="Vector">
<use xlink:href="#path3_fill" transform="translate(11325.1 7117)" fill="#89F5C5"/>
</g>
<g id="Vector">
<use xlink:href="#path4_fill" transform="translate(11230 7162)" fill="#89F5C5"/>
</g>
<g id="Rectangle 19">
<use xlink:href="#path5_fill" transform="translate(11374.7 7206)" fill="#89F5C5"/>
</g>
<g id="Vector">
<use xlink:href="#path6_fill" transform="translate(11326.1 6985)" fill="#89F5C5"/>
</g>
</g>
</g>
<defs>
<path id="path0_fill" d="M 0 22.5C 0 10.0736 10.0736 0 22.5 0L 440.5 0C 452.926 0 463 10.0736 463 22.5C 463 34.9264 452.926 45 440.5 45L 22.5 45C 10.0736 45 0 34.9264 0 22.5Z"/>
<path id="path1_fill" d="M 0 22.5C 0 10.0736 10.0736 0 22.5 0L 466.138 0C 478.565 0 488.638 10.0736 488.638 22.5C 488.638 34.9264 478.565 45 466.138 45L 22.5 45C 10.0736 45 0 34.9264 0 22.5Z"/>
<path id="path2_fill" d="M 0 22C 0 9.84974 9.84974 0 22 0L 429.206 0C 441.357 0 451.206 9.84974 451.206 22C 451.206 34.1503 441.357 44 429.206 44L 22 44C 9.84974 44 0 34.1503 0 22Z"/>
<path id="path3_fill" fill-rule="evenodd" d="M 1.62429 44.9276C 2.16007 44.9755 2.70178 45 3.24858 45L 355.235 45C 366.333 45 375.331 34.9264 375.331 22.5C 375.331 10.0736 366.333 0 355.235 0L 3.24858 0C 2.70178 0 2.16007 0.024452 1.62429 0.072432C 11.9634 0.998317 20.0959 10.6858 20.0959 22.5C 20.0959 34.3142 11.9634 44.0017 1.62429 44.9276Z"/>
<path id="path4_fill" fill-rule="evenodd" d="M 22.7848 0C 10.2011 0 0 9.84974 0 22C 0 34.1503 10.2011 44 22.7848 44L 420.247 44C 407.663 44 397.462 34.1503 397.462 22C 397.462 9.84974 407.663 0 420.247 0L 22.7848 0Z"/>
<path id="path5_fill" d="M 0 22.5C 0 10.0736 10.0736 0 22.5 0L 303.259 0C 315.685 0 325.759 10.0736 325.759 22.5C 325.759 34.9264 315.685 45 303.259 45L 22.5 45C 10.0736 45 0 34.9264 0 22.5Z"/>
<path id="path6_fill" fill-rule="evenodd" d="M 3.47975 42.7204C 4.61243 42.9044 5.77479 43 6.9595 43L 362.281 43C 362.603 43 362.923 42.9929 363.242 42.979C 351.801 42.4769 342.681 33.0525 342.681 21.5C 342.681 9.94752 351.801 0.523138 363.242 0.0210424C 362.923 0.007063 362.603 4.07378e-14 362.281 4.07378e-14L 6.9595 4.07378e-14C 5.77479 4.07378e-14 4.61243 0.0956294 3.47975 0.279582C 13.7112 1.9412 21.5216 10.8094 21.5216 21.5C 21.5216 32.1906 13.7112 41.0588 3.47975 42.7204Z"/>
</defs>
</svg>
