<svg width="335" height="248" viewBox="0 0 335 248" version="1.1" xmlns="http://www.w3.org/2000/svg" xmlns:xlink="http://www.w3.org/1999/xlink">
<title>Group</title>
<desc>Created using Figma</desc>
<g id="Canvas" transform="translate(-11344 -6966)">
<g id="Group">
<g id="XMLID 1">
<g id="XMLID 54">
<use xlink:href="#path0_fill" transform="translate(11389.8 7156.91)" fill="#62F1A8"/>
</g>
<g id="XMLID 53">
<use xlink:href="#path1_fill" transform="translate(11393.3 7156.91)" fill="#13EA6E"/>
</g>
<g id="XMLID 52">
<use xlink:href="#path2_stroke" transform="translate(11390.5 7156.91)" fill="#2F6A78"/>
</g>
<g id="XMLID 51">
<use xlink:href="#path3_stroke" transform="translate(11372.7 7156.91)" fill="#2F6A78"/>
</g>
<g id="XMLID 50">
<use xlink:href="#path4_stroke" transform="translate(11646.1 7156.91)" fill="#2F6A78"/>
</g>
<g id="XMLID 49">
<use xlink:href="#path5_stroke" transform="translate(11357.6 7156.91)" fill="#2F6A78"/>
</g>
<clipPath id="clip-0" clip-rule="evenodd">
<path d="M 11381.4 7027.66L 11397.9 7027.66L 11381.4 7027.66Z" fill="#FFFFFF"/>
</clipPath>
<g id="XMLID 43" clip-path="url(#clip-0)">
</g>
<clipPath id="clip-1" clip-rule="evenodd">
<path d="M 11616 7104.51L 11632.1 7104.51L 11632.1 7120.93L 11616 7120.93L 11616 7104.51Z" fill="#FFFFFF"/>
</clipPath>
<g id="XMLID 40" clip-path="url(#clip-1)">
</g>
<g id="XMLID 33">
<use xlink:href="#path6_fill" transform="translate(11418.5 6967.58)" fill="#FEFEFF"/>
</g>
<g id="XMLID 32">
<use xlink:href="#path7_fill" transform="translate(11418.5 6967.23)" fill="#13EA6E"/>
</g>
<g id="XMLID 31">
<use xlink:href="#path8_stroke" transform="translate(11418.5 6967.58)" fill="#2F6A78"/>
</g>
<g id="XMLID 30">
<use xlink:href="#path9_stroke" transform="translate(11418.5 6985.75)" fill="#2F6A78"/>
</g>
<g id="XMLID 29">
<use xlink:href="#path10_fill" transform="translate(11432.9 6974.92)" fill="#FFFFFF"/>
</g>
<g id="XMLID 28">
<use xlink:href="#path11_fill" transform="translate(11442 6974.92)" fill="#FFFFFF"/>
</g>
<g id="XMLID 27">
<use xlink:href="#path12_fill" transform="translate(11451.1 6974.92)" fill="#FFFFFF"/>
</g>
<g id="XMLID 26">
<use xlink:href="#path13_stroke" transform="translate(11438.1 7016.83)" fill="#13CA6E"/>
</g>
<g id="XMLID 25">
<use xlink:href="#path13_stroke" transform="translate(11438.1 7041.29)" fill="#13CA6E"/>
</g>
<g id="XMLID 24">
<use xlink:href="#path14_stroke" transform="translate(11438.1 7065.39)" fill="#13CA6E"/>
</g>
<g id="XMLID 23">
<use xlink:href="#path14_stroke" transform="translate(11438.1 7089.84)" fill="#13CA6E"/>
</g>
<g id="XMLID 22">
<use xlink:href="#path14_stroke" transform="translate(11438.1 7114.29)" fill="#13CA6E"/>
</g>
<g id="XMLID 21">
<use xlink:href="#path14_stroke" transform="translate(11438.1 7138.74)" fill="#13CA6E"/>
</g>
<g id="XMLID 20" opacity="0.55">
<use xlink:href="#path15_fill" transform="translate(11415 7067.83)" fill="#13CA6E"/>
</g>
<g id="XMLID 14">
<g id="XMLID 19">
<use xlink:href="#path16_fill" transform="translate(11345 7067.83)" fill="#13EA6E"/>
</g>
<g id="XMLID 18">
<use xlink:href="#path17_stroke" transform="translate(11345 7067.83)" fill="#2F6A78"/>
</g>
<g id="XMLID 17">
<use xlink:href="#path18_stroke" transform="translate(11367.8 7082.85)" fill="#FEFEFF"/>
</g>
<g id="XMLID 16">
<use xlink:href="#path19_stroke" transform="translate(11367.8 7097.87)" fill="#FEFEFF"/>
</g>
<g id="XMLID 15">
<use xlink:href="#path20_stroke" transform="translate(11367.8 7112.54)" fill="#FEFEFF"/>
</g>
</g>
<g id="XMLID 13" opacity="0.55">
<use xlink:href="#path21_fill" transform="translate(11542.1 7008.8)" fill="#13CA6E"/>
</g>
<g id="XMLID 4">
<g id="XMLID 12">
<use xlink:href="#path22_fill" transform="translate(11551.9 7004.61)" fill="#EFF6FE"/>
</g>
<g id="XMLID 11">
<use xlink:href="#path23_stroke" transform="translate(11551.9 7004.61)" fill="#2F6A78"/>
</g>
<g id="XMLID 10">
<g id="Vector">
<use xlink:href="#path24_fill" transform="translate(11570.5 7018.23)" fill="#13CA6E"/>
</g>
</g>
<g id="XMLID 9">
<g id="Vector">
<use xlink:href="#path25_fill" transform="translate(11570.5 7038.49)" fill="#13CA6E"/>
</g>
</g>
<g id="XMLID 8">
<g id="Vector">
<use xlink:href="#path26_fill" transform="translate(11570.5 7058.4)" fill="#13CA6E"/>
</g>
</g>
<g id="XMLID 7">
<use xlink:href="#path27_stroke" transform="translate(11583.5 7021.03)" fill="#13CA6E"/>
</g>
<g id="XMLID 6">
<use xlink:href="#path28_stroke" transform="translate(11583.5 7041.29)" fill="#13CA6E"/>
</g>
<g id="XMLID 5">
<use xlink:href="#path27_stroke" transform="translate(11583.5 7061.2)" fill="#13CA6E"/>
</g>
</g>
<g id="XMLID 3">
<use xlink:href="#path29_stroke" transform="translate(11507.5 7091.94)" fill="#2F6A78"/>
</g>
<g id="XMLID 2">
<use xlink:href="#path30_stroke" transform="translate(11536.2 7081.46)" fill="#2F6A78"/>
</g>
</g>
</g>
</g>
<defs>
<path id="path0_fill" d="M 235.657 5.33003e-06L 6.67876e-07 5.33003e-06C 6.67876e-07 5.33003e-06 43.4197 57.2866 117.653 55.8894C 117.653 55.8894 179.281 62.5262 235.657 5.33003e-06Z"/>
<path id="path1_fill" d="M 107.849 46.1087C 57.0759 46.8073 19.9591 22.0064 6.67876e-07 4.1917C 11.9054 17.4654 52.1737 56.9373 114.152 55.8894C 114.152 55.8894 175.78 62.5262 231.805 5.33003e-06L 219.55 5.33003e-06C 163.874 52.3963 107.849 46.1087 107.849 46.1087Z"/>
<path id="path2_stroke" d="M 235.663 0.707972C 236.054 0.317922 236.055 -0.315242 235.665 -0.706241C 235.275 -1.09724 234.642 -1.09801 234.251 -0.707961L 235.663 0.707972ZM 234.607 0.349309L 233.9 -0.358658L 233.866 -0.324812L 233.836 -0.287877L 234.607 0.349309ZM 0.774627 -0.28311C 0.425352 -0.710924 -0.204603 -0.774594 -0.632418 -0.425319C -1.06023 -0.0760436 -1.1239 0.553912 -0.774627 0.981727L 0.774627 -0.28311ZM 234.251 -0.707961L 233.9 -0.358658L 235.313 1.05727L 235.663 0.707972L 234.251 -0.707961ZM 233.836 -0.287877C 206.003 33.3782 164.26 54.8894 117.303 54.8894L 117.303 56.8894C 164.889 56.8894 207.185 35.0863 235.377 0.986494L 233.836 -0.287877ZM 117.303 54.8894C 70.3428 54.8894 28.2541 33.3756 0.774627 -0.28311L -0.774627 0.981727C 27.071 35.0889 69.7209 56.8894 117.303 56.8894L 117.303 54.8894Z"/>
<path id="path3_stroke" d="M -1.33575e-06 -0.999998C -0.552286 -0.999998 -1 -0.552283 -1 1.52588e-06C -1 0.552286 -0.552286 1 -1.33575e-06 1L -1.33575e-06 -0.999998ZM 266.121 1C 266.673 1 267.121 0.552286 267.121 1.52588e-06C 267.121 -0.552283 266.673 -0.999998 266.121 -0.999998L 266.121 1ZM -1.33575e-06 1L 266.121 1L 266.121 -0.999998L -1.33575e-06 -0.999998L -1.33575e-06 1Z"/>
<path id="path4_stroke" d="M 10.1546 1C 10.7069 1 11.1546 0.552286 11.1546 1.52588e-06C 11.1546 -0.552283 10.7069 -0.999998 10.1546 -0.999998L 10.1546 1ZM 0 -0.999998C -0.552285 -0.999998 -1 -0.552283 -1 1.52588e-06C -1 0.552286 -0.552285 1 0 1L 0 -0.999998ZM 10.1546 -0.999998L 0 -0.999998L 0 1L 10.1546 1L 10.1546 -0.999998Z"/>
<path id="path5_stroke" d="M 9.10414 1C 9.65642 1 10.1041 0.552286 10.1041 1.52588e-06C 10.1041 -0.552283 9.65642 -0.999998 9.10414 -0.999998L 9.10414 1ZM -3.33938e-07 -0.999998C -0.552285 -0.999998 -1 -0.552283 -1 1.52588e-06C -1 0.552286 -0.552285 1 -3.33938e-07 1L -3.33938e-07 -0.999998ZM 9.10414 -0.999998L -3.33938e-07 -0.999998L -3.33938e-07 1L 9.10414 1L 9.10414 -0.999998Z"/>
<path id="path6_fill" d="M 181.733 189.325L 0 189.325L 0 8.73271C 0 3.84239 3.85175 -6.66253e-07 8.75398 -6.66253e-07L 173.329 -6.66253e-07C 178.231 -6.66253e-07 182.083 3.84239 182.083 8.73271L 182.083 189.325L 181.733 189.325Z"/>
<path id="path7_fill" d="M 181.733 18.5134L 0 18.5134L 0 8.73272C 0 3.8424 3.85175 1.33251e-06 8.75398 1.33251e-06L 173.329 1.33251e-06C 178.231 1.33251e-06 182.083 3.8424 182.083 8.73272L 182.083 18.5134L 181.733 18.5134Z"/>
<path id="path8_stroke" d="M 0 189.325L -1 189.325L -1 190.325L 0 190.325L 0 189.325ZM 182.083 189.325L 182.083 190.325L 183.083 190.325L 183.083 189.325L 182.083 189.325ZM 181.733 188.325L 0 188.325L 0 190.325L 181.733 190.325L 181.733 188.325ZM 1 189.325L 1 8.73271L -1 8.73271L -1 189.325L 1 189.325ZM 1 8.73271C 1 4.39697 4.40174 0.999999 8.75398 0.999999L 8.75398 -1C 3.30176 -1 -1 3.28782 -1 8.73271L 1 8.73271ZM 8.75398 0.999999L 173.329 0.999999L 173.329 -1L 8.75398 -1L 8.75398 0.999999ZM 173.329 0.999999C 177.681 0.999999 181.083 4.39697 181.083 8.73271L 183.083 8.73271C 183.083 3.28782 178.781 -1 173.329 -1L 173.329 0.999999ZM 181.083 8.73271L 181.083 189.325L 183.083 189.325L 183.083 8.73271L 181.083 8.73271ZM 182.083 188.325L 181.733 188.325L 181.733 190.325L 182.083 190.325L 182.083 188.325Z"/>
<path id="path9_stroke" d="M 0 -1C -0.552285 -1 -1 -0.552285 -1 -3.8147e-07C -1 0.552284 -0.552285 1 0 1L 0 -1ZM 181.733 1C 182.285 1 182.733 0.552284 182.733 -3.8147e-07C 182.733 -0.552285 182.285 -1 181.733 -1L 181.733 1ZM 0 1L 181.733 1L 181.733 -1L 0 -1L 0 1Z"/>
<path id="path10_fill" d="M 1.7508 3.49309C 2.71774 3.49309 3.50159 2.71113 3.50159 1.74654C 3.50159 0.781954 2.71774 0 1.7508 0C 0.783859 0 0 0.781954 0 1.74654C 0 2.71113 0.783859 3.49309 1.7508 3.49309Z"/>
<path id="path11_fill" d="M 1.7508 3.49309C 2.71774 3.49309 3.50159 2.71113 3.50159 1.74654C 3.50159 0.781954 2.71774 0 1.7508 0C 0.783861 0 2.6715e-06 0.781954 2.6715e-06 1.74654C 2.6715e-06 2.71113 0.783861 3.49309 1.7508 3.49309Z"/>
<path id="path12_fill" d="M 1.75079 3.49309C 2.71773 3.49309 3.50159 2.71113 3.50159 1.74654C 3.50159 0.781954 2.71773 0 1.75079 0C 0.783855 0 -2.6715e-06 0.781954 -2.6715e-06 1.74654C -2.6715e-06 2.71113 0.783855 3.49309 1.75079 3.49309Z"/>
<path id="path13_stroke" d="M 1.33575e-06 -1C -0.552283 -1 -0.999999 -0.552285 -0.999999 -7.62939e-07C -0.999999 0.552284 -0.552283 0.999999 1.33575e-06 0.999999L 1.33575e-06 -1ZM 139.013 0.999999C 139.565 0.999999 140.013 0.552284 140.013 -7.62939e-07C 140.013 -0.552285 139.565 -1 139.013 -1L 139.013 0.999999ZM 1.33575e-06 0.999999L 139.013 0.999999L 139.013 -1L 1.33575e-06 -1L 1.33575e-06 0.999999Z"/>
<path id="path14_stroke" d="M 1.33575e-06 -0.999999C -0.552283 -0.999999 -0.999999 -0.552284 -0.999999 7.62939e-07C -0.999999 0.552285 -0.552283 1 1.33575e-06 1L 1.33575e-06 -0.999999ZM 139.013 1C 139.565 1 140.013 0.552285 140.013 7.62939e-07C 140.013 -0.552284 139.565 -0.999999 139.013 -0.999999L 139.013 1ZM 1.33575e-06 1L 139.013 1L 139.013 -0.999999L 1.33575e-06 -0.999999L 1.33575e-06 1Z"/>
<path id="path15_fill" d="M 0 65.3207L 66.8804 65.3207C 71.7826 65.3207 75.9845 61.4783 75.9845 56.2387L 75.9845 47.1567L 87.1896 35.9788C 88.2401 34.9309 88.5903 33.8829 88.5903 32.4857C 88.5903 31.0885 88.2401 30.0405 87.1896 28.9926L 75.9845 17.8147L 75.9845 9.08202C 75.9845 4.1917 72.1328 5.33003e-06 66.8804 5.33003e-06L 0 5.33003e-06L 0 65.3207Z"/>
<path id="path16_fill" d="M 139.363 6.28756L 139.363 16.4175L 151.269 28.294C 151.969 28.9926 151.969 30.3899 151.269 31.4378L 139.363 43.3143L 139.363 53.4442C 139.363 56.9373 136.562 59.7318 133.061 59.7318L 6.30287 59.7318C 2.80127 59.7318 7.7751e-16 56.9373 7.7751e-16 53.4442L 7.7751e-16 6.28756C 7.7751e-16 2.79447 2.80127 5.33003e-06 6.30287 5.33003e-06L 133.061 5.33003e-06C 136.562 5.33003e-06 139.363 2.79447 139.363 6.28756Z"/>
<path id="path17_stroke" d="M 139.363 16.4175L 138.363 16.4175L 138.363 16.8324L 138.657 17.1255L 139.363 16.4175ZM 151.269 28.294L 150.563 29.002L 151.269 28.294ZM 151.269 31.4378L 151.975 32.1457L 152.045 32.0758L 152.1 31.9934L 151.269 31.4378ZM 139.363 43.3143L 138.657 42.6063L 138.363 42.8993L 138.363 43.3143L 139.363 43.3143ZM 133.061 5.33003e-06L 133.061 1.00001L 133.061 5.33003e-06ZM 138.363 6.28756L 138.363 16.4175L 140.363 16.4175L 140.363 6.28756L 138.363 6.28756ZM 138.657 17.1255L 150.563 29.002L 151.975 27.586L 140.07 15.7095L 138.657 17.1255ZM 150.563 29.002C 150.812 29.2504 150.973 30.0813 150.437 30.8821L 152.1 31.9934C 152.966 30.6984 153.127 28.7348 151.975 27.586L 150.563 29.002ZM 150.563 30.7298L 138.657 42.6063L 140.07 44.0222L 151.975 32.1457L 150.563 30.7298ZM 138.363 43.3143L 138.363 53.4442L 140.363 53.4442L 140.363 43.3143L 138.363 43.3143ZM 138.363 53.4442C 138.363 56.3827 136.012 58.7318 133.061 58.7318L 133.061 60.7318C 137.112 60.7318 140.363 57.4919 140.363 53.4442L 138.363 53.4442ZM 133.061 58.7318L 6.30287 58.7318L 6.30287 60.7318L 133.061 60.7318L 133.061 58.7318ZM 6.30287 58.7318C 3.35126 58.7318 1 56.3827 1 53.4442L -1 53.4442C -1 57.4919 2.25128 60.7318 6.30287 60.7318L 6.30287 58.7318ZM 1 53.4442L 1 6.28756L -1 6.28756L -1 53.4442L 1 53.4442ZM 1 6.28756C 1 3.34905 3.35126 1.00001 6.30287 1.00001L 6.30287 -0.999995C 2.25128 -0.999995 -1 2.23989 -1 6.28756L 1 6.28756ZM 6.30287 1.00001L 133.061 1.00001L 133.061 -0.999995L 6.30287 -0.999995L 6.30287 1.00001ZM 133.061 1.00001C 136.012 1.00001 138.363 3.34905 138.363 6.28756L 140.363 6.28756C 140.363 2.23989 137.112 -0.999995 133.061 -0.999995L 133.061 1.00001Z"/>
<path id="path18_stroke" d="M 0 -0.999999C -0.552285 -0.999999 -1 -0.552284 -1 7.62939e-07C -1 0.552285 -0.552285 1 0 1L 0 -0.999999ZM 100.846 1C 101.398 1 101.846 0.552285 101.846 7.62939e-07C 101.846 -0.552284 101.398 -0.999999 100.846 -0.999999L 100.846 1ZM 0 1L 100.846 1L 100.846 -0.999999L 0 -0.999999L 0 1Z"/>
<path id="path19_stroke" d="M 0 -1C -0.552285 -1 -1 -0.552285 -1 0C -1 0.552285 -0.552285 1 0 1L 0 -1ZM 100.846 1C 101.398 1 101.846 0.552285 101.846 0C 101.846 -0.552285 101.398 -1 100.846 -1L 100.846 1ZM 0 1L 100.846 1L 100.846 -1L 0 -1L 0 1Z"/>
<path id="path20_stroke" d="M 0 -0.999999C -0.552285 -0.999999 -1 -0.552284 -1 7.62939e-07C -1 0.552285 -0.552285 1 0 1L 0 -0.999999ZM 50.4229 1C 50.9752 1 51.4229 0.552285 51.4229 7.62939e-07C 51.4229 -0.552284 50.9752 -0.999999 50.4229 -0.999999L 50.4229 1ZM 0 1L 50.4229 1L 50.4229 -0.999999L 0 -0.999999L 0 1Z"/>
<path id="path21_fill" d="M 57.7763 0L -2.6715e-06 0L -2.6715e-06 78.5944L 57.7763 78.5944L 57.7763 0Z"/>
<path id="path22_fill" d="M 126.057 -2.66501e-06L -5.34301e-06 -2.66501e-06L -5.34301e-06 73.3548L 126.057 73.3548L 126.057 -2.66501e-06Z"/>
<path id="path23_stroke" d="M 2.99999 0.999997L 123.057 0.999997L 123.057 -1L 2.99999 -1L 2.99999 0.999997ZM 125.057 3L 125.057 70.3548L 127.057 70.3548L 127.057 3L 125.057 3ZM 123.057 72.3548L 2.99999 72.3548L 2.99999 74.3548L 123.057 74.3548L 123.057 72.3548ZM 0.999995 70.3548L 0.999995 3L -1.00001 3L -1.00001 70.3548L 0.999995 70.3548ZM 2.99999 -1C 0.790856 -1 -1.00001 0.790858 -1.00001 3L 0.999995 3C 0.999995 1.89543 1.89543 0.999997 2.99999 0.999997L 2.99999 -1ZM 123.057 0.999997C 124.162 0.999997 125.057 1.89543 125.057 3L 127.057 3C 127.057 0.790858 125.266 -1 123.057 -1L 123.057 0.999997ZM 125.057 70.3548C 125.057 71.4594 124.162 72.3548 123.057 72.3548L 123.057 74.3548C 125.266 74.3548 127.057 72.5639 127.057 70.3548L 125.057 70.3548ZM 2.99999 72.3548C 1.89543 72.3548 0.999995 71.4594 0.999995 70.3548L -1.00001 70.3548C -1.00001 72.5639 0.790856 74.3548 2.99999 74.3548L 2.99999 72.3548Z"/>
<path id="path24_fill" d="M 2.80126 2.66501e-06C 1.40063 2.66501e-06 5.343e-06 1.39723 5.343e-06 2.79447C 5.343e-06 4.1917 1.40063 5.58893 2.80126 5.58893C 4.2019 5.58893 5.60255 4.1917 5.60255 2.79447C 5.60255 1.04793 4.55206 2.66501e-06 2.80126 2.66501e-06Z"/>
<path id="path25_fill" d="M 2.80126 0C 1.40063 0 5.343e-06 1.39723 5.343e-06 2.79447C 5.343e-06 4.1917 1.40063 5.58893 2.80126 5.58893C 4.2019 5.58893 5.60255 4.1917 5.60255 2.79447C 5.60255 1.04792 4.55206 0 2.80126 0Z"/>
<path id="path26_fill" d="M 2.80126 2.66501e-06C 1.40063 2.66501e-06 5.343e-06 1.39723 5.343e-06 2.79447C 5.343e-06 4.1917 1.40063 5.58893 2.80126 5.58893C 4.2019 5.58893 5.60255 4.1917 5.60255 2.79447C 5.60255 1.39723 4.55206 2.66501e-06 2.80126 2.66501e-06Z"/>
<path id="path27_stroke" d="M -5.343e-06 -1C -0.55229 -1 -1.00001 -0.552285 -1.00001 0C -1.00001 0.552285 -0.55229 1 -5.343e-06 1L -5.343e-06 -1ZM 81.2369 1C 81.7892 1 82.2369 0.552285 82.2369 0C 82.2369 -0.552285 81.7892 -1 81.2369 -1L 81.2369 1ZM -5.343e-06 1L 81.2369 1L 81.2369 -1L -5.343e-06 -1L -5.343e-06 1Z"/>
<path id="path28_stroke" d="M -5.343e-06 -1C -0.55229 -1 -1.00001 -0.552285 -1.00001 -7.62939e-07C -1.00001 0.552284 -0.55229 0.999999 -5.343e-06 0.999999L -5.343e-06 -1ZM 81.2369 0.999999C 81.7892 0.999999 82.2369 0.552284 82.2369 -7.62939e-07C 82.2369 -0.552285 81.7892 -1 81.2369 -1L 81.2369 0.999999ZM -5.343e-06 0.999999L 81.2369 0.999999L 81.2369 -1L -5.343e-06 -1L -5.343e-06 0.999999Z"/>
<path id="path29_stroke" d="M 10.9054 5.93825C 10.9054 8.66327 8.6903 10.8765 5.9527 10.8765L 5.9527 12.8765C 9.79028 12.8765 12.9054 9.77242 12.9054 5.93825L 10.9054 5.93825ZM 5.9527 10.8765C 3.21511 10.8765 1.00001 8.66327 1.00001 5.93825L -0.999995 5.93825C -0.999995 9.77242 2.11512 12.8765 5.9527 12.8765L 5.9527 10.8765ZM 1.00001 5.93825C 1.00001 3.21322 3.21511 0.999997 5.9527 0.999997L 5.9527 -1C 2.11512 -1 -0.999995 2.10407 -0.999995 5.93825L 1.00001 5.93825ZM 5.9527 0.999997C 8.6903 0.999997 10.9054 3.21322 10.9054 5.93825L 12.9054 5.93825C 12.9054 2.10407 9.79028 -1 5.9527 -1L 5.9527 0.999997Z"/>
<path id="path30_stroke" d="M 10.9054 5.93825C 10.9054 8.66327 8.6903 10.8765 5.9527 10.8765L 5.9527 12.8765C 9.79028 12.8765 12.9054 9.77242 12.9054 5.93825L 10.9054 5.93825ZM 5.9527 10.8765C 3.2151 10.8765 0.999995 8.66327 0.999995 5.93825L -1.00001 5.93825C -1.00001 9.77242 2.11512 12.8765 5.9527 12.8765L 5.9527 10.8765ZM 0.999995 5.93825C 0.999995 3.21322 3.2151 0.999997 5.9527 0.999997L 5.9527 -1C 2.11512 -1 -1.00001 2.10407 -1.00001 5.93825L 0.999995 5.93825ZM 5.9527 0.999997C 8.6903 0.999997 10.9054 3.21322 10.9054 5.93825L 12.9054 5.93825C 12.9054 2.10407 9.79028 -1 5.9527 -1L 5.9527 0.999997Z"/>
</defs>
</svg>
