<svg width="240" height="216" viewBox="0 0 240 216" version="1.1" xmlns="http://www.w3.org/2000/svg" xmlns:xlink="http://www.w3.org/1999/xlink">
<title>auto icon</title>
<desc>Created using Figma</desc>
<g id="Canvas" transform="translate(-10833 -7438)">
<g id="auto icon">
<g id="Vector">
<use xlink:href="#path0_stroke" transform="translate(10940.2 7456.77)" fill="#13CA6E"/>
</g>
<g id="Vector" opacity="0.5">
<use xlink:href="#path1_fill" transform="translate(10879 7438)" fill="#13CA6E"/>
</g>
<g id="Vector">
<use xlink:href="#path2_fill" transform="translate(10914.8 7448.35)" fill="#13CA6E"/>
</g>
<g id="Vector">
<use xlink:href="#path3_stroke" transform="translate(10923.3 7474.66)" fill="#34AD59"/>
</g>
<g id="Vector">
<use xlink:href="#path4_stroke" transform="translate(10883.7 7468.95)" fill="#34AD59"/>
</g>
<g id="Vector">
<use xlink:href="#path5_stroke" transform="translate(10935 7468.44)" fill="#34AD59"/>
</g>
<g id="Group">
<g id="Group">
<g id="Vector">
<use xlink:href="#path6_fill" transform="translate(10995.2 7504.09)" fill="#13CA6E"/>
</g>
</g>
<g id="XMLID 14">
<use xlink:href="#path7_fill" transform="translate(10891.5 7597.06)" fill="#F2F2F2"/>
</g>
<g id="XMLID 12">
<use xlink:href="#path8_stroke" transform="translate(10891.5 7597.06)" fill="#2F6A78"/>
</g>
<g id="XMLID 11">
<use xlink:href="#path9_fill" transform="translate(10834 7443.33)" fill="#13EA6E"/>
</g>
<g id="XMLID 10">
<use xlink:href="#path10_fill" transform="translate(10834.1 7587.42)" fill="#F2F2F2"/>
</g>
<g id="XMLID 9">
<use xlink:href="#path11_fill" transform="translate(10842.9 7453.6)" fill="#FEFEFF"/>
</g>
<g id="adwords">
<g id="Vector">
<use xlink:href="#path12_fill" transform="translate(10887.5 7471.8)" fill="#97F7BE"/>
</g>
<g id="Vector">
<use xlink:href="#path13_fill" transform="translate(10887.5 7471.8)" fill="#13EA6E"/>
</g>
<g id="Vector">
<use xlink:href="#path14_fill" transform="translate(10857.8 7471.8)" fill="#2F6A78"/>
</g>
</g>
<g id="XMLID 8">
<use xlink:href="#path15_fill" transform="translate(10881.7 7642.73)" fill="#F2F2F2"/>
</g>
<g id="XMLID 7">
<use xlink:href="#path16_stroke" transform="translate(10881.8 7642.73)" fill="#2F6A78"/>
</g>
<g id="XMLID 6">
<use xlink:href="#path17_stroke" transform="translate(10834 7443.33)" fill="#2F6A78"/>
</g>
<g id="XMLID 5">
<use xlink:href="#path18_stroke" transform="translate(10834.1 7587.42)" fill="#2F6A78"/>
</g>
<g id="XMLID 1">
<g id="XMLID 4">
<use xlink:href="#path19_fill" transform="translate(10952.8 7517.33)" fill="#97F7BE"/>
</g>
<g id="XMLID 3">
<use xlink:href="#path20_fill" transform="translate(10952.8 7527.86)" fill="#97F7BE"/>
</g>
<g id="XMLID 4">
<use xlink:href="#path19_fill" transform="translate(10952.8 7495.45)" fill="#97F7BE"/>
</g>
<g id="XMLID 3">
<use xlink:href="#path20_fill" transform="translate(10952.8 7505.98)" fill="#97F7BE"/>
</g>
<g id="XMLID 2">
<use xlink:href="#path21_fill" transform="translate(10952.8 7538.38)" fill="#97F7BE"/>
</g>
</g>
</g>
</g>
</g>
<defs>
<path id="path0_stroke" d="M 39.539 1.5C 40.3674 1.5 41.039 0.828427 41.039 0C 41.039 -0.828427 40.3674 -1.5 39.539 -1.5L 39.539 1.5ZM 1.94618e-06 -1.5C -0.828425 -1.5 -1.5 -0.828427 -1.5 0C -1.5 0.828427 -0.828425 1.5 1.94618e-06 1.5L 1.94618e-06 -1.5ZM 39.539 -1.5L 1.94618e-06 -1.5L 1.94618e-06 1.5L 39.539 1.5L 39.539 -1.5Z"/>
<path id="path1_fill" d="M -4.86546e-07 58.2212C 10.4587 72.9351 27.8048 82.4483 47.1917 82.4483C 79.2055 82.4483 105.097 56.6991 105.097 24.8614C 105.097 15.9823 103.056 7.61062 99.4852 9.6774e-07L 102.291 13.826L 100.633 33.6136L 92.9804 50.4838L 82.2666 62.7876L 73.5935 68.6224L 55.227 75.5988L 34.4372 76.4867L 15.5605 69.3835L 3.82635 60.6312L -4.86546e-07 58.2212Z"/>
<path id="path2_fill" d="M 7.70282 0.0498425C 12.422 -0.457532 16.631 2.96725 17.1412 7.66046C 17.6513 12.3537 14.2076 16.5395 9.48846 17.0469C 4.76929 17.5543 0.560297 14.1295 0.0501162 9.43627C -0.460064 4.74305 2.98365 0.557217 7.70282 0.0498425Z"/>
<path id="path3_stroke" d="M 0.999998 -1.93548e-06C 0.999998 -0.552287 0.552283 -1 -1.52588e-06 -1C -0.552286 -1 -1 -0.552287 -1 -1.93548e-06L 0.999998 -1.93548e-06ZM -1 39.3215C -1 39.8738 -0.552286 40.3215 -1.52588e-06 40.3215C 0.552283 40.3215 0.999998 39.8738 0.999998 39.3215L -1 39.3215ZM -1 -1.93548e-06L -1 39.3215L 0.999998 39.3215L 0.999998 -1.93548e-06L -1 -1.93548e-06Z"/>
<path id="path4_stroke" d="M 29.0186 0.710642C 29.411 0.322081 29.4142 -0.311076 29.0257 -0.703554C 28.6371 -1.09603 28.0039 -1.09921 27.6115 -0.710646L 29.0186 0.710642ZM -0.703551 27.3218C -1.09603 27.7104 -1.0992 28.3435 -0.710643 28.736C -0.322082 29.1285 0.311075 29.1316 0.703552 28.7431L -0.703551 27.3218ZM 27.6115 -0.710646L -0.703551 27.3218L 0.703552 28.7431L 29.0186 0.710642L 27.6115 -0.710646Z"/>
<path id="path5_stroke" d="M 0.705158 -0.709058C 0.313559 -1.0985 -0.319604 -1.09676 -0.70905 -0.705158C -1.0985 -0.313559 -1.09675 0.319604 -0.70515 0.70905L 0.705158 -0.709058ZM 27.6099 28.8683C 28.0015 29.2578 28.6346 29.256 29.0241 28.8644C 29.4135 28.4728 29.4118 27.8397 29.0202 27.4502L 27.6099 28.8683ZM -0.70515 0.70905L 27.6099 28.8683L 29.0202 27.4502L 0.705158 -0.709058L -0.70515 0.70905Z"/>
<path id="path6_fill" d="M 1.78564 3.87096e-06L 2.29581 3.87096e-06C 3.31617 3.87096e-06 4.08145 0.761058 4.08145 1.77581L 4.08145 2.28318C 4.08145 3.29793 3.31617 4.059 2.29581 4.059L 1.78564 4.059C 0.765275 4.059 -7.78474e-06 3.29793 -7.78474e-06 2.28318L -7.78474e-06 1.77581C -7.78474e-06 0.887902 0.765275 3.87096e-06 1.78564 3.87096e-06Z"/>
<path id="path7_fill" d="M 123.081 45.6637L -1.94618e-06 45.6637L 15.8156 7.74192e-06L 107.776 7.74192e-06L 123.081 45.6637Z"/>
<path id="path8_stroke" d="M -0.944931 45.3364C -1.12568 45.8583 -0.849147 46.4279 -0.327278 46.6086C 0.194592 46.7894 0.764178 46.5129 0.944927 45.991L -0.944931 45.3364ZM 15.8156 7.74192e-06L 15.8156 -0.999992L 15.1037 -0.999992L 14.8707 -0.327268L 15.8156 7.74192e-06ZM 107.776 7.74192e-06L 108.724 -0.317793L 108.495 -0.999992L 107.776 -0.999992L 107.776 7.74192e-06ZM 122.133 45.9815C 122.308 46.5052 122.875 46.7874 123.399 46.6119C 123.922 46.4364 124.205 45.8696 124.029 45.3459L 122.133 45.9815ZM 0.944927 45.991L 16.7605 0.327283L 14.8707 -0.327268L -0.944931 45.3364L 0.944927 45.991ZM 15.8156 1.00001L 107.776 1.00001L 107.776 -0.999992L 15.8156 -0.999992L 15.8156 1.00001ZM 106.827 0.317808L 122.133 45.9815L 124.029 45.3459L 108.724 -0.317793L 106.827 0.317808Z"/>
<path id="path9_fill" d="M 237.999 4.43953C 237.999 1.90266 236.341 1.93548e-06 234.173 1.93548e-06L 3.82635 1.93548e-06C 1.78563 1.93548e-06 0 2.0295 0 4.43953L 0 147.646C 0 150.183 1.65809 152.086 3.82635 152.086L 234.173 152.086C 236.214 152.086 237.999 150.056 237.999 147.646L 237.999 4.43953Z"/>
<path id="path10_fill" d="M 237.872 0L 237.872 17.3776C 237.872 25.7115 237.184 29.3834 227.796 28.5398L 10.0761 28.5398C 4.59162 28.5398 0 23.5929 0 17.3776L 0 0L 237.872 0Z"/>
<path id="path11_fill" d="M 220.27 0L 0 0L 0 123.546L 220.27 123.546L 220.27 0Z"/>
<path id="path12_fill" d="M 38.1455 87.8676L 59.5786 87.8676L 30.1734 -7.27772e-07L 1.25725e-06 -7.27772e-07L 26.6624 79.6725C 28.2986 84.564 32.928 87.8676 38.1455 87.8676Z"/>
<path id="path13_fill" d="M 26.6624 79.6728C 27.2992 81.5747 28.3895 83.2356 29.7891 84.5567L 29.7891 2.1405e-06L -8.67072e-07 2.1405e-06L 26.6624 79.6728Z"/>
<path id="path14_fill" d="M 21.4324 87.8683L 2.03762e-06 87.8683L 29.4052 -3.42481e-07L 59.5786 -3.42481e-07L 32.9163 79.6725C 31.2794 84.5647 26.6499 87.8683 21.4324 87.8683Z"/>
<path id="path15_fill" d="M 142.595 7.74192e-06L 1.94618e-06 7.74192e-06L 1.94618e-06 10.2743L 142.595 10.2743L 142.595 7.74192e-06Z"/>
<path id="path16_stroke" d="M 124.101 -0.999992C 123.549 -0.999992 123.101 -0.552277 123.101 7.74192e-06C 123.101 0.552292 123.549 1.00001 124.101 1.00001L 124.101 -0.999992ZM 56.5025 1.00001C 57.0548 1.00001 57.5025 0.552292 57.5025 7.74192e-06C 57.5025 -0.552277 57.0548 -0.999992 56.5025 -0.999992L 56.5025 1.00001ZM 124.101 1.00001L 137.366 1.00001L 137.366 -0.999992L 124.101 -0.999992L 124.101 1.00001ZM 137.366 1.00001C 139.625 1.00001 141.468 2.84067 141.468 5.07375L 143.468 5.07375C 143.468 1.72572 140.719 -0.999992 137.366 -0.999992L 137.366 1.00001ZM 141.468 5.07375C 141.468 7.30683 139.625 9.1475 137.366 9.1475L 137.366 11.1475C 140.719 11.1475 143.468 8.42179 143.468 5.07375L 141.468 5.07375ZM 137.366 9.1475L 5.1018 9.1475L 5.1018 11.1475L 137.366 11.1475L 137.366 9.1475ZM 5.1018 9.1475C 2.84289 9.1475 1 7.30683 1 5.07375L -1 5.07375C -1 8.42179 1.74873 11.1475 5.1018 11.1475L 5.1018 9.1475ZM 1 5.07375C 1 2.84067 2.84289 1.00001 5.1018 1.00001L 5.1018 -0.999992C 1.74873 -0.999992 -1 1.72572 -1 5.07375L 1 5.07375ZM 5.1018 1.00001L 56.5025 1.00001L 56.5025 -0.999992L 5.1018 -0.999992L 5.1018 1.00001Z"/>
<path id="path17_stroke" d="M 238.999 4.43953C 238.999 1.49171 237.025 -1 234.173 -1L 234.173 1C 235.657 1 236.999 2.3136 236.999 4.43953L 238.999 4.43953ZM 234.173 -1L 3.82635 -1L 3.82635 1L 234.173 1L 234.173 -1ZM 3.82635 -1C 1.10464 -1 -1 1.61537 -1 4.43953L 1 4.43953C 1 2.44362 2.46662 1 3.82635 1L 3.82635 -1ZM -1 4.43953L -1 168.068L 1 168.068L 1 4.43953L -1 4.43953ZM -1 168.068C -1 171.016 0.974342 173.507 3.82635 173.507L 3.82635 171.507C 2.34183 171.507 1 170.194 1 168.068L -1 168.068ZM 3.82635 173.507L 234.173 173.507L 234.173 171.507L 3.82635 171.507L 3.82635 173.507ZM 234.173 173.507C 236.895 173.507 238.999 170.892 238.999 168.068L 236.999 168.068C 236.999 170.064 235.533 171.507 234.173 171.507L 234.173 173.507ZM 238.999 168.068L 238.999 4.43953L 236.999 4.43953L 236.999 168.068L 238.999 168.068Z"/>
<path id="path18_stroke" d="M 4.86546e-07 -1C -0.552284 -1 -1 -0.552285 -1 0C -1 0.552285 -0.552284 1 4.86546e-07 1L 4.86546e-07 -1ZM 237.872 1C 238.424 1 238.872 0.552285 238.872 0C 238.872 -0.552285 238.424 -1 237.872 -1L 237.872 1ZM 4.86546e-07 1L 237.872 1L 237.872 -1L 4.86546e-07 -1L 4.86546e-07 1Z"/>
<path id="path19_fill" d="M 99.2301 3.87096e-06L 3.89237e-06 3.87096e-06L 3.89237e-06 3.80531L 99.2301 3.80531L 99.2301 3.87096e-06Z"/>
<path id="path20_fill" d="M 99.2301 -1.93548e-06L 3.89237e-06 -1.93548e-06L 3.89237e-06 3.80531L 99.2301 3.80531L 99.2301 -1.93548e-06Z"/>
<path id="path21_fill" d="M 63.645 1.93548e-06L 3.89237e-06 1.93548e-06L 3.89237e-06 3.80531L 63.645 3.80531L 63.645 1.93548e-06Z"/>
</defs>
</svg>
