<svg width="288" height="230" viewBox="0 0 288 230" version="1.1" xmlns="http://www.w3.org/2000/svg" xmlns:xlink="http://www.w3.org/1999/xlink">
<title>Group</title>
<desc>Created using Figma</desc>
<g id="Canvas" transform="translate(-11062 -6266)">
<g id="Group">
<g id="XMLID 79">
<use xlink:href="#path0_fill" transform="translate(11091.2 6334.36)" fill="#13EA6E"/>
</g>
<g id="XMLID 78">
<use xlink:href="#path1_stroke" transform="translate(11090.4 6333.5)" fill="#2F6A78"/>
</g>
<g id="XMLID 77">
<use xlink:href="#path2_fill" transform="translate(11103.2 6348.24)" fill="#FFFFFF"/>
</g>
<g id="XMLID 76">
<use xlink:href="#path3_fill" transform="translate(11080.9 6481.39)" fill="#FEFEFF"/>
</g>
<g id="XMLID 75">
<use xlink:href="#path3_fill" transform="translate(11080.9 6481.39)" fill="#F2F2F2"/>
<use xlink:href="#path4_stroke" transform="translate(11080.9 6481.39)" fill="#2F6A78"/>
</g>
<g id="XMLID 74">
<use xlink:href="#path5_stroke" transform="translate(11196.6 6488.15)" fill="#2F6A78"/>
</g>
<g id="XMLID 73">
<use xlink:href="#path6_fill" transform="translate(11117.3 6352.63)" fill="#FFFFFF"/>
</g>
<g id="XMLID 72">
<use xlink:href="#path6_fill" transform="translate(11125.6 6352.63)" fill="#FFFFFF"/>
</g>
<g id="XMLID 71">
<use xlink:href="#path7_fill" transform="translate(11133.8 6352.63)" fill="#FFFFFF"/>
</g>
<g id="XMLID 70">
<use xlink:href="#path8_stroke" transform="translate(11103.2 6348.24)" fill="#2F6A78"/>
</g>
<g id="Vector" opacity="0.55">
<use xlink:href="#path9_fill" transform="translate(11120.5 6334.63)" fill="#13CA6E"/>
</g>
<g id="Vector">
<use xlink:href="#path10_fill" transform="translate(11126.9 6267.09)" fill="#FFFFFF"/>
<use xlink:href="#path11_stroke" transform="translate(11126.9 6267.09)" fill="#13CA6E"/>
</g>
<g id="XMLID 69">
<use xlink:href="#path12_fill" transform="translate(11126.5 6267)" fill="#13EA6E"/>
</g>
<g id="Group">
<g id="XMLID 68">
<use xlink:href="#path13_fill" transform="translate(11139.3 6357.81)" fill="#97F7BE"/>
</g>
<g id="XMLID 67">
<use xlink:href="#path14_fill" transform="translate(11139.3 6365.1)" fill="#97F7BE"/>
</g>
<g id="XMLID 66">
<use xlink:href="#path15_fill" transform="translate(11139.3 6372.39)" fill="#97F7BE"/>
</g>
<g id="XMLID 65">
<use xlink:href="#path16_fill" transform="translate(11139.3 6394.26)" fill="#97F7BE"/>
</g>
<g id="XMLID 64">
<use xlink:href="#path17_fill" transform="translate(11141 6406)" fill="#97F7BE"/>
</g>
<g id="XMLID 63">
<use xlink:href="#path17_fill" transform="translate(11141 6417)" fill="#97F7BE"/>
</g>
<g id="XMLID 62">
<use xlink:href="#path18_fill" transform="translate(11141 6428)" fill="#97F7BE"/>
</g>
</g>
<g id="XMLID 61">
<use xlink:href="#path19_fill" transform="translate(11139.3 6272.36)" fill="#FFFFFF"/>
</g>
<g id="XMLID 60">
<use xlink:href="#path20_fill" transform="translate(11149 6272.36)" fill="#FFFFFF"/>
</g>
<g id="XMLID 59">
<use xlink:href="#path21_fill" transform="translate(11158.8 6272.36)" fill="#FFFFFF"/>
</g>
<g id="Vector">
<use xlink:href="#path22_stroke" transform="translate(11126.9 6267.09)" fill="#2F6A78"/>
</g>
<g id="Group">
<g id="Group" opacity="0.55">
<g id="XMLID 58" opacity="0.55">
<use xlink:href="#path23_fill" transform="translate(11259.2 6374.85)" fill="#13CA6E"/>
</g>
<g id="XMLID 57" opacity="0.55">
<use xlink:href="#path24_fill" transform="translate(11259.1 6374.94)" fill="#13CA6E"/>
</g>
<g id="XMLID 56" opacity="0.5">
<use xlink:href="#path25_fill" transform="translate(11263.8 6387.32)" fill="#13CA6E"/>
</g>
<g id="XMLID 51" opacity="0.55">
<g id="XMLID 52" opacity="0.55">
<use xlink:href="#path26_fill" transform="translate(11273.5 6385.13)" fill="#13CA6E"/>
</g>
</g>
<g id="XMLID 50" opacity="0.55">
<use xlink:href="#path23_fill" transform="translate(11259.2 6374.85)" fill="#13CA6E"/>
</g>
</g>
<g id="Group">
<g id="XMLID 49">
<use xlink:href="#path23_fill" transform="translate(11261.8 6373.1)" fill="#42F285"/>
</g>
<g id="XMLID 48">
<use xlink:href="#path24_fill" transform="translate(11261.7 6373.18)" fill="#CAF9E0"/>
</g>
<g id="XMLID 47" opacity="0.5">
<use xlink:href="#path25_fill" transform="translate(11266.4 6385.57)" fill="#13CA6E"/>
</g>
<g id="XMLID 42">
<g id="XMLID 43">
<use xlink:href="#path26_fill" transform="translate(11276.1 6383.37)" fill="#2F6A78"/>
</g>
</g>
<g id="XMLID 41">
<use xlink:href="#path27_stroke" transform="translate(11261.8 6373.1)" fill="#2F6A78"/>
</g>
</g>
<g id="Group" opacity="0.55">
<g id="XMLID 40" opacity="0.55">
<use xlink:href="#path28_fill" transform="translate(11232.5 6340.34)" fill="#13CA6E"/>
</g>
<g id="XMLID 39" opacity="0.55">
<use xlink:href="#path29_fill" transform="translate(11232.5 6340.43)" fill="#13CA6E"/>
</g>
<g id="XMLID 38" opacity="0.5">
<use xlink:href="#path30_fill" transform="translate(11235.8 6349.12)" fill="#13CA6E"/>
</g>
<g id="XMLID 33" opacity="0.55">
<g id="XMLID 34" opacity="0.55">
<use xlink:href="#path31_fill" transform="translate(11242.6 6347.54)" fill="#13CA6E"/>
</g>
</g>
<g id="XMLID 32" opacity="0.55">
<use xlink:href="#path28_fill" transform="translate(11232.5 6340.34)" fill="#13CA6E"/>
</g>
</g>
<g id="Group">
<g id="XMLID 31">
<use xlink:href="#path28_fill" transform="translate(11235.2 6338.58)" fill="#42F285"/>
</g>
<g id="XMLID 30">
<use xlink:href="#path29_fill" transform="translate(11235.2 6338.67)" fill="#CAF9E0"/>
</g>
<g id="XMLID 29" opacity="0.5">
<use xlink:href="#path30_fill" transform="translate(11238.4 6347.36)" fill="#13CA6E"/>
</g>
<g id="XMLID 24">
<g id="XMLID 25">
<use xlink:href="#path31_fill" transform="translate(11245.2 6345.78)" fill="#2F6A78"/>
</g>
</g>
<g id="XMLID 23">
<use xlink:href="#path32_stroke" transform="translate(11235.2 6338.58)" fill="#2F6A78"/>
</g>
</g>
<g id="Group" opacity="0.55">
<g id="XMLID 22" opacity="0.55">
<use xlink:href="#path33_fill" transform="matrix(0.597054 -0.80218 0.800618 0.599146 11276.2 6338.17)" fill="#13CA6E"/>
</g>
<g id="XMLID 21" opacity="0.55">
<use xlink:href="#path34_fill" transform="translate(11287.7 6303.63)" fill="#13CA6E"/>
</g>
<g id="XMLID 20" opacity="0.5">
<use xlink:href="#path35_fill" transform="translate(11287.6 6333.57)" fill="#13CA6E"/>
</g>
<g id="XMLID 15" opacity="0.55">
<g id="XMLID 16" opacity="0.55">
<use xlink:href="#path36_fill" transform="translate(11304.1 6320.02)" fill="#13CA6E"/>
</g>
</g>
<g id="XMLID 14" opacity="0.55">
<use xlink:href="#path33_fill" transform="matrix(0.597054 -0.80218 0.800618 0.599146 11276.2 6338.17)" fill="#13CA6E"/>
</g>
</g>
<g id="Group">
<g id="XMLID 13">
<use xlink:href="#path37_fill" transform="translate(11290.3 6301.87)" fill="#42F285"/>
</g>
<g id="XMLID 12">
<use xlink:href="#path34_fill" transform="translate(11290.3 6301.88)" fill="#CAF9E0"/>
</g>
<g id="XMLID 11" opacity="0.5">
<use xlink:href="#path35_fill" transform="translate(11290.3 6331.82)" fill="#13CA6E"/>
</g>
<g id="XMLID 6">
<g id="XMLID 7">
<use xlink:href="#path38_fill" transform="translate(11306.7 6318.26)" fill="#2F6A78"/>
</g>
</g>
<g id="XMLID 5">
<use xlink:href="#path39_stroke" transform="matrix(0.597054 -0.80218 0.800618 0.599146 11278.8 6336.42)" fill="#2F6A78"/>
</g>
</g>
</g>
<g id="Vector">
<use xlink:href="#path40_fill" transform="translate(11139.3 6295.19)" fill="#97F7BE"/>
</g>
<g id="Group">
<g id="Vector" opacity="0.55">
<use xlink:href="#path41_fill" transform="translate(11062 6330.52)" fill="#28CF7B"/>
</g>
<g id="Group">
<g id="Vector">
<use xlink:href="#path42_fill" transform="translate(11081.4 6383.83)" fill="url(#paint58_linear)"/>
</g>
<g id="Vector">
<use xlink:href="#path43_fill" transform="translate(11163.5 6356.08)" fill="#28CF7B"/>
</g>
<g id="Vector">
<use xlink:href="#path44_fill" transform="translate(11162.7 6356.08)" fill="url(#paint60_linear)"/>
</g>
<g id="Vector">
<use xlink:href="#path45_fill" transform="translate(11128.2 6327.8)" fill="#13EA6E"/>
</g>
<g id="Vector">
<use xlink:href="#path46_fill" transform="translate(11069.4 6359.42)" fill="url(#paint62_linear)"/>
</g>
<g id="Vector">
<use xlink:href="#path47_fill" transform="translate(11065.4 6359.42)" fill="#13CA6E"/>
</g>
<g id="Vector" opacity="0.5">
<use xlink:href="#path48_fill" transform="translate(11088.5 6383.83)" fill="#13CA6E"/>
</g>
<g id="Vector">
<use xlink:href="#path49_fill" transform="translate(11102.5 6346.51)" fill="#97F7BE"/>
</g>
<g id="Vector">
<use xlink:href="#path50_fill" transform="translate(11074.5 6353.36)" fill="url(#paint66_linear)"/>
</g>
<g id="Vector">
<use xlink:href="#path51_stroke" transform="translate(11167.9 6356.08)" fill="#2F6A78"/>
</g>
<g id="Vector">
<use xlink:href="#path52_stroke" transform="translate(11162.7 6356.08)" fill="#2F6A78"/>
</g>
<g id="Group">
<g id="Vector">
<use xlink:href="#path53_stroke" transform="translate(11132.6 6327.8)" fill="#2F6A78"/>
</g>
<g id="Vector">
<use xlink:href="#path54_stroke" transform="translate(11070 6359.42)" fill="#2F6A78"/>
</g>
</g>
<g id="Vector">
<use xlink:href="#path55_stroke" transform="translate(11065.4 6359.42)" fill="#2F6A78"/>
</g>
<g id="Vector">
<use xlink:href="#path56_fill" transform="translate(11081.4 6383.83)" fill="#13EA6E"/>
<use xlink:href="#path57_stroke" transform="translate(11081.4 6383.83)" fill="#2F6A78"/>
</g>
<g id="Vector">
<use xlink:href="#path58_stroke" transform="translate(11102.5 6346.51)" fill="#2F6A78"/>
</g>
<g id="Vector">
<use xlink:href="#path59_stroke" transform="translate(11088.5 6353.36)" fill="#13CA6E"/>
</g>
<g id="Vector">
<use xlink:href="#path60_fill" transform="translate(11074.5 6353.36)" fill="#42F285"/>
</g>
<g id="Vector">
<use xlink:href="#path61_stroke" transform="translate(11074.5 6353.36)" fill="#2F6A78"/>
</g>
</g>
</g>
<g id="XMLID 1">
<g id="XMLID 4">
<use xlink:href="#path62_fill" transform="translate(11227.3 6295.63)" fill="#97F7BE"/>
</g>
<g id="XMLID 3">
<use xlink:href="#path63_fill" transform="translate(11227.3 6302.92)" fill="#97F7BE"/>
</g>
<g id="XMLID 2">
<use xlink:href="#path64_fill" transform="translate(11227.3 6310.21)" fill="#97F7BE"/>
</g>
</g>
<g id="Vector">
<use xlink:href="#path65_stroke" transform="translate(11126.9 6281.84)" fill="#2F6A78"/>
</g>
</g>
</g>
<defs>
<linearGradient id="paint58_linear" x1="0" y1="0" x2="1" y2="0" gradientUnits="userSpaceOnUse" gradientTransform="matrix(14.4721 0 0 14.5115 -0.0342471 9.5803)">
<stop offset="0" stop-color="#13EA6E"/>
<stop offset="1" stop-color="#15E9A6"/>
</linearGradient>
<linearGradient id="paint60_linear" x1="0" y1="0" x2="1" y2="0" gradientUnits="userSpaceOnUse" gradientTransform="matrix(5.15511 0 0 5.16917 0.0409915 9.94136)">
<stop offset="0" stop-color="#78E9AC"/>
<stop offset="1" stop-color="#BBF3D9"/>
</linearGradient>
<linearGradient id="paint62_linear" x1="0" y1="0" x2="1" y2="0" gradientUnits="userSpaceOnUse" gradientTransform="matrix(5.12306 0 0 5.13703 0.0182184 6.62052)">
<stop offset="0" stop-color="#78E9AC"/>
<stop offset="1" stop-color="#BBF3D9"/>
</linearGradient>
<linearGradient id="paint66_linear" x1="0" y1="0" x2="1" y2="0" gradientUnits="userSpaceOnUse" gradientTransform="matrix(13.9932 0 0 14.0313 -0.0264518 8.23321)">
<stop offset="0" stop-color="#13EA6E"/>
<stop offset="1" stop-color="#15E9A6"/>
</linearGradient>
<path id="path0_fill" d="M 244.985 152.644L 0.875885 152.644C 0.350354 152.644 -3.34124e-07 152.293 -3.34124e-07 151.766L -3.34124e-07 0.878276C -3.34124e-07 0.439139 0.350354 1.34014e-06 0.875885 1.34014e-06L 244.985 1.34014e-06C 245.423 1.34014e-06 245.861 0.439139 245.861 0.878276L 245.861 151.854C 245.861 152.293 245.511 152.644 244.985 152.644Z"/>
<path id="path1_stroke" d="M 246.328 153.103L 245.328 153.103L 246.328 153.103ZM 245.451 152.9L 0.87755 152.9L 0.87755 154.9L 245.451 154.9L 245.451 152.9ZM 0.87755 152.9C 0.858273 152.9 0.861519 152.897 0.88011 152.904C 0.8996 152.912 0.926245 152.927 0.951614 152.953C 0.976919 152.978 0.991018 153.004 0.997496 153.021C 1.00363 153.037 1 153.037 1 153.015L -1 153.015C -1 153.505 -0.833943 153.992 -0.468962 154.36C -0.103187 154.73 0.384312 154.9 0.87755 154.9L 0.87755 152.9ZM 1 153.015L 1 0.885502L -1 0.885502L -1 153.015L 1 153.015ZM 1 0.885502C 1 0.921835 0.988712 0.941398 0.975443 0.955744C 0.966254 0.965678 0.951574 0.977652 0.930775 0.987069C 0.908588 0.997115 0.888674 1 0.87755 1L 0.87755 -0.999999C -0.273291 -0.999999 -1 -0.0346442 -1 0.885502L 1 0.885502ZM 0.87755 1L 245.451 1L 245.451 -0.999999L 0.87755 -0.999999L 0.87755 1ZM 245.451 1C 245.392 1 245.357 0.985654 245.347 0.980811C 245.337 0.975996 245.338 0.97472 245.344 0.980631C 245.35 0.986503 245.349 0.988483 245.345 0.980117C 245.341 0.971706 245.328 0.939719 245.328 0.885502L 247.328 0.885502C 247.328 0.342071 247.069 -0.119915 246.764 -0.427191C 246.46 -0.733906 245.999 -0.999999 245.451 -0.999999L 245.451 1ZM 245.328 0.885502L 245.328 153.103L 247.328 153.103L 247.328 0.885502L 245.328 0.885502ZM 245.328 153.103C 245.328 153.051 245.353 152.985 245.403 152.938C 245.453 152.891 245.486 152.9 245.451 152.9L 245.451 154.9C 246.467 154.9 247.328 154.158 247.328 153.103L 245.328 153.103Z"/>
<path id="path2_fill" d="M 220.636 -2.68028e-06L 0 -2.68028e-06L 0 127.174L 220.636 127.174L 220.636 -2.68028e-06Z"/>
<path id="path3_fill" d="M 255.128 13.6132L 11.0191 13.6132C 8.6542 13.6132 1.64711 2.81048 0.0705142 0.43914C -0.104663 0.263485 0.0705142 2.68028e-06 0.33328 2.68028e-06L 267.128 2.68028e-06C 267.391 2.68028e-06 267.566 0.263477 267.391 0.526959C 265.727 2.81047 258.194 13.6132 255.128 13.6132Z"/>
<path id="path4_stroke" d="M 0.0705142 0.43914L 0.903261 -0.114515C 0.866821 -0.169323 0.825059 -0.220401 0.778583 -0.267003L 0.0705142 0.43914ZM 267.391 0.526959L 268.199 1.11593C 268.207 1.10433 268.216 1.09256 268.224 1.08061L 267.391 0.526959ZM 255.128 12.6132L 11.0191 12.6132L 11.0191 14.6132L 255.128 14.6132L 255.128 12.6132ZM 11.0191 12.6132C 11.1014 12.5902 10.8561 12.5789 10.5147 12.3301C 10.1411 12.066 9.73596 11.6956 9.25162 11.1935C 8.26812 10.1768 7.16121 8.80063 6.04962 7.31602C 3.82431 4.34537 1.69412 1.07502 0.903261 -0.114515L -0.762232 0.992794C 0.0235057 2.1746 2.18516 5.49131 4.44876 8.51487C 5.58162 10.0274 6.76844 11.5001 7.81316 12.583C 8.34294 13.1307 8.8855 13.6228 9.35398 13.9588C 9.80686 14.2815 10.3938 14.6132 11.0191 14.6132L 11.0191 12.6132ZM 0.778583 -0.267003C 0.889487 -0.155797 0.980463 0.0112277 0.997281 0.213599C 1.01331 0.406506 0.957131 0.569047 0.886314 0.682662C 0.750438 0.900656 0.531707 1 0.33328 1L 0.33328 -0.999997C -0.127913 -0.999997 -0.565616 -0.76891 -0.810977 -0.375261C -1.08362 0.0621582 -1.08913 0.692478 -0.637555 1.14528L 0.778583 -0.267003ZM 0.33328 1L 267.128 1L 267.128 -0.999997L 0.33328 -0.999997L 0.33328 1ZM 267.128 1C 266.919 1 266.682 0.888622 266.549 0.649297C 266.403 0.386612 266.462 0.118147 266.558 -0.0266953L 268.224 1.08061C 268.495 0.672289 268.553 0.140346 268.298 -0.319947C 268.056 -0.756879 267.6 -0.999997 267.128 -0.999997L 267.128 1ZM 266.583 -0.0620099C 265.746 1.08672 263.465 4.33329 261.015 7.28838C 259.791 8.76563 258.56 10.1341 257.434 11.1468C 256.879 11.6478 256.405 12.0196 255.955 12.2858C 255.509 12.5516 255.244 12.6132 255.128 12.6132L 255.128 14.6132C 255.779 14.6132 256.42 14.3373 256.98 14.0034C 257.535 13.6699 258.165 13.1799 258.773 12.6325C 259.974 11.5482 261.305 10.0733 262.555 8.56446C 265.054 5.54728 267.372 2.25072 268.199 1.11593L 266.583 -0.0620099Z"/>
<path id="path5_stroke" d="M 2.67299e-06 -1C -0.552282 -1 -0.999997 -0.552285 -0.999997 0C -0.999997 0.552285 -0.552282 1 2.67299e-06 1L 2.67299e-06 -1ZM 35.9113 1C 36.4636 1 36.9113 0.552285 36.9113 0C 36.9113 -0.552285 36.4636 -1 35.9113 -1L 35.9113 1ZM 2.67299e-06 1L 35.9113 1L 35.9113 -1L 2.67299e-06 -1L 2.67299e-06 1Z"/>
<path id="path6_fill" d="M 1.75177 3.51309C 2.71925 3.51309 3.50354 2.72666 3.50354 1.75655C 3.50354 0.786431 2.71925 -2.68028e-06 1.75177 -2.68028e-06C 0.784295 -2.68028e-06 0 0.786431 0 1.75655C 0 2.72666 0.784295 3.51309 1.75177 3.51309Z"/>
<path id="path7_fill" d="M 1.75177 3.51309C 2.71925 3.51309 3.50354 2.72666 3.50354 1.75655C 3.50354 0.786431 2.71925 -2.68028e-06 1.75177 -2.68028e-06C 0.784293 -2.68028e-06 0 0.786431 0 1.75655C 0 2.72666 0.784293 3.51309 1.75177 3.51309Z"/>
<path id="path8_stroke" d="M 3.34124e-07 -2.68028e-06L 3.34124e-07 -1L -1 -1L -1 -2.68028e-06L 3.34124e-07 -2.68028e-06ZM 220.636 -2.68028e-06L 221.636 -2.68028e-06L 221.636 -1L 220.636 -1L 220.636 -2.68028e-06ZM 220.636 127.174L 220.636 128.174L 221.636 128.174L 221.636 127.174L 220.636 127.174ZM 3.34124e-07 127.174L -1 127.174L -1 128.174L 3.34124e-07 128.174L 3.34124e-07 127.174ZM 3.34124e-07 0.999997L 220.636 0.999997L 220.636 -1L 3.34124e-07 -1L 3.34124e-07 0.999997ZM 219.636 -2.68028e-06L 219.636 127.174L 221.636 127.174L 221.636 -2.68028e-06L 219.636 -2.68028e-06ZM 220.636 126.174L 3.34124e-07 126.174L 3.34124e-07 128.174L 220.636 128.174L 220.636 126.174ZM 1 127.174L 1 -2.68028e-06L -1 -2.68028e-06L -1 127.174L 1 127.174Z"/>
<path id="path9_fill" d="M 182.535 141.139L 5.78085 140.787L 1.3365e-06 -2.68028e-06L 187.615 -2.68028e-06L 182.535 141.139Z"/>
<path id="path10_fill" d="M 175.615 208.327L 6.68248e-07 208.327L 6.68248e-07 10.5393C 6.68248e-07 4.74268 4.72978 1.04698e-08 10.5106 1.04698e-08L 165.104 1.04698e-08C 170.885 1.04698e-08 175.615 4.74268 175.615 10.5393L 175.615 208.327Z"/>
<path id="path11_stroke" d="M 175.615 208.327L 175.615 209.077L 176.365 209.077L 176.365 208.327L 175.615 208.327ZM 6.68248e-07 208.327L -0.749999 208.327L -0.749999 209.077L 6.68248e-07 209.077L 6.68248e-07 208.327ZM 175.615 207.577L 6.68248e-07 207.577L 6.68248e-07 209.077L 175.615 209.077L 175.615 207.577ZM 0.750001 208.327L 0.750001 10.5393L -0.749999 10.5393L -0.749999 208.327L 0.750001 208.327ZM 0.750001 10.5393C 0.750001 5.15497 5.14592 0.75 10.5106 0.75L 10.5106 -0.75C 4.31364 -0.75 -0.749999 4.3304 -0.749999 10.5393L 0.750001 10.5393ZM 10.5106 0.75L 165.104 0.75L 165.104 -0.75L 10.5106 -0.75L 10.5106 0.75ZM 165.104 0.75C 170.469 0.75 174.865 5.15497 174.865 10.5393L 176.365 10.5393C 176.365 4.3304 171.301 -0.75 165.104 -0.75L 165.104 0.75ZM 174.865 10.5393L 174.865 208.327L 176.365 208.327L 176.365 10.5393L 174.865 10.5393Z"/>
<path id="path12_fill" d="M 176.053 14.8428L 6.68248e-07 14.8428L 6.68248e-07 9.66102L 3.8539 3.24962L 8.49609 -1.04698e-08L 168.783 -1.04698e-08L 175.352 5.97227L 176.053 14.8428Z"/>
<path id="path13_fill" d="M 150.915 0L 2.67299e-06 0L 2.67299e-06 2.63482L 150.915 2.63482L 150.915 0Z"/>
<path id="path14_fill" d="M 150.915 0L 2.67299e-06 0L 2.67299e-06 2.63482L 150.915 2.63482L 150.915 0Z"/>
<path id="path15_fill" d="M 150.915 -2.68028e-06L 2.67299e-06 -2.68028e-06L 2.67299e-06 2.63482L 150.915 2.63482L 150.915 -2.68028e-06Z"/>
<path id="path16_fill" d="M 150.915 5.36056e-06L 2.67299e-06 5.36056e-06L 2.67299e-06 2.63483L 150.915 2.63483L 150.915 5.36056e-06Z"/>
<path id="path17_fill" d="M 149 6.10352e-06L 0 6.10352e-06L 0 3.00001L 149 3.00001L 149 6.10352e-06Z"/>
<path id="path18_fill" d="M 149 0L 0 0L 0 3L 149 3L 149 0Z"/>
<path id="path19_fill" d="M 2.10212 4.21572C 3.2631 4.21572 4.20425 3.272 4.20425 2.10786C 4.20425 0.94372 3.2631 0 2.10212 0C 0.941151 0 2.67299e-06 0.94372 2.67299e-06 2.10786C 2.67299e-06 3.272 0.941151 4.21572 2.10212 4.21572Z"/>
<path id="path20_fill" d="M 2.10213 4.21572C 3.2631 4.21572 4.20425 3.272 4.20425 2.10786C 4.20425 0.94372 3.2631 0 2.10213 0C 0.941156 0 0 0.94372 0 2.10786C 0 3.272 0.941156 4.21572 2.10213 4.21572Z"/>
<path id="path21_fill" d="M 2.10213 4.21572C 3.2631 4.21572 4.20425 3.272 4.20425 2.10786C 4.20425 0.94372 3.2631 0 2.10213 0C 0.941154 0 0 0.94372 0 2.10786C 0 3.272 0.941154 4.21572 2.10213 4.21572Z"/>
<path id="path22_stroke" d="M 175.615 208.327L 175.615 209.327L 176.615 209.327L 176.615 208.327L 175.615 208.327ZM 6.68248e-07 208.327L -0.999999 208.327L -0.999999 209.327L 6.68248e-07 209.327L 6.68248e-07 208.327ZM 175.615 207.327L 6.68248e-07 207.327L 6.68248e-07 209.327L 175.615 209.327L 175.615 207.327ZM 1 208.327L 1 10.5393L -0.999999 10.5393L -0.999999 208.327L 1 208.327ZM 1 10.5393C 1 5.2924 5.28463 1 10.5106 1L 10.5106 -1C 4.17493 -1 -0.999999 4.19297 -0.999999 10.5393L 1 10.5393ZM 10.5106 1L 165.104 1L 165.104 -1L 10.5106 -1L 10.5106 1ZM 165.104 1C 170.33 1 174.615 5.2924 174.615 10.5393L 176.615 10.5393C 176.615 4.19297 171.44 -1 165.104 -1L 165.104 1ZM 174.615 10.5393L 174.615 208.327L 176.615 208.327L 176.615 10.5393L 174.615 10.5393Z"/>
<path id="path23_fill" d="M 21.1089 42.3328C 32.7669 42.3328 42.2177 32.8563 42.2177 21.1664C 42.2177 9.47653 32.7669 0 21.1089 0C 9.45076 0 -2.67299e-06 9.47653 -2.67299e-06 21.1664C -2.67299e-06 32.8563 9.45076 42.3328 21.1089 42.3328Z"/>
<path id="path24_fill" d="M 2.18972 23.8012C 2.18972 12.1202 11.6493 2.63482 23.2986 2.63482C 29.4298 2.63482 34.8603 5.26965 38.7142 9.39754C 34.9478 3.68876 28.4663 -1.34014e-06 21.1088 -1.34014e-06C 9.45956 -1.34014e-06 5.34598e-06 9.48536 5.34598e-06 21.1664C 5.34598e-06 26.7874 2.18972 31.7935 5.69326 35.5701C 3.50355 32.1449 2.18972 28.1048 2.18972 23.8012Z"/>
<path id="path25_fill" d="M 35.6486 -2.68028e-06C 36.0865 2.19568 36.1741 4.4792 35.9113 6.85054C 34.5099 19.1464 23.3862 28.017 11.1237 26.6117C 6.9195 26.1726 3.15319 24.5038 0 22.1325C 3.8539 26.8752 9.80992 29.9492 16.3791 29.9492C 28.0283 29.9492 37.4879 20.4638 37.4879 8.78274C 37.5755 5.62095 36.8748 2.72265 35.6486 -2.68028e-06Z"/>
<path id="path26_fill" d="M 6.48155 21.7812L 6.48155 19.849C 4.11666 19.5855 1.92695 18.6194 0 16.9507L 1.92695 14.6672C 3.41595 15.9846 4.90496 16.6872 6.48155 16.9507L 6.48155 11.8567C 4.46701 11.4176 3.0656 10.8028 2.18971 10.0123C 1.31383 9.22189 0.788292 8.08012 0.788292 6.58705C 0.788292 5.09399 1.31383 3.86441 2.36489 2.89831C 3.41595 1.9322 4.81737 1.40524 6.48155 1.31741L 6.48155 -2.68028e-06L 8.14574 -2.68028e-06L 8.14574 1.31741C 10.0727 1.49306 11.912 2.10785 13.5762 3.24961L 11.9121 5.70878C 10.7734 4.91833 9.54716 4.39137 8.14574 4.21572L 8.14574 9.13406L 8.23332 9.13406C 10.2479 9.5732 11.7369 10.2758 12.7003 11.0663C 13.6638 11.8567 14.1018 12.9985 14.1018 14.5794C 14.1018 16.0724 13.5762 17.3898 12.4376 18.3559C 11.3865 19.322 9.89751 19.849 8.14574 19.9368L 8.14574 21.869L 6.48155 21.869L 6.48155 21.7812ZM 4.6422 4.83051C 4.20425 5.18182 3.94149 5.70878 3.94149 6.32357C 3.94149 6.93836 4.11667 7.3775 4.46702 7.72881C 4.81738 8.08012 5.51808 8.43144 6.48155 8.69492L 6.48155 4.12788C 5.69325 4.21571 5.08014 4.4792 4.6422 4.83051ZM 10.1603 16.3359C 10.6858 15.8968 10.861 15.4576 10.861 14.8428C 10.861 14.228 10.6858 13.7011 10.2479 13.3498C 9.89751 12.9985 9.10921 12.6471 8.05815 12.2958L 8.05815 17.0385C 9.02162 17.0385 9.72234 16.775 10.1603 16.3359Z"/>
<path id="path27_stroke" d="M 41.2177 21.1664C 41.2177 32.3066 32.2121 41.3328 21.1089 41.3328L 21.1089 43.3328C 33.3218 43.3328 43.2177 33.406 43.2177 21.1664L 41.2177 21.1664ZM 21.1089 41.3328C 10.0056 41.3328 0.999997 32.3066 0.999997 21.1664L -1 21.1664C -1 33.406 8.89591 43.3328 21.1089 43.3328L 21.1089 41.3328ZM 0.999997 21.1664C 0.999997 10.0262 10.0056 1 21.1089 1L 21.1089 -1C 8.89591 -1 -1 8.92682 -1 21.1664L 0.999997 21.1664ZM 21.1089 1C 32.2121 1 41.2177 10.0262 41.2177 21.1664L 43.2177 21.1664C 43.2177 8.92682 33.3218 -1 21.1089 -1L 21.1089 1Z"/>
<path id="path28_fill" d="M 14.8025 29.6857C 22.9776 29.6857 29.6049 23.0403 29.6049 14.8428C 29.6049 6.64536 22.9776 -2.68028e-06 14.8025 -2.68028e-06C 6.62729 -2.68028e-06 2.67299e-06 6.64536 2.67299e-06 14.8428C 2.67299e-06 23.0403 6.62729 29.6857 14.8025 29.6857Z"/>
<path id="path29_fill" d="M 1.48901 16.6872C 1.48901 8.51926 8.14573 1.84438 16.2915 1.84438C 20.5833 1.84438 24.4372 3.68875 27.1525 6.58706C 24.5248 2.63483 19.9702 2.68028e-06 14.8025 2.68028e-06C 6.65673 2.68028e-06 2.67299e-06 6.67488 2.67299e-06 14.8428C 2.67299e-06 18.7951 1.489 22.3082 4.02907 24.943C 2.36489 22.5716 1.48901 19.6733 1.48901 16.6872Z"/>
<path id="path30_fill" d="M 25.0503 -2.68028e-06C 25.3131 1.58089 25.4007 3.16179 25.2255 4.74268C 24.262 13.3498 16.4666 19.5855 7.79538 18.6194C 4.81737 18.2681 2.18971 17.1264 2.48942e-14 15.4576C 2.71525 18.7951 6.83191 20.9029 11.4741 20.9029C 19.6198 20.9029 26.2766 14.228 26.2766 6.06009C 26.3642 3.95223 25.9262 1.84437 25.0503 -2.68028e-06Z"/>
<path id="path31_fill" d="M 4.55461 15.282L 4.55461 13.9646C 2.89042 13.7889 1.40142 13.0863 2.67299e-06 11.9445L 1.31383 10.3636C 2.36489 11.2419 3.41595 11.7689 4.46701 11.9445L 4.46701 8.34361C 3.0656 7.9923 2.10212 7.55316 1.40141 7.0262C 0.788292 6.49923 0.437946 5.70878 0.437946 4.65485C 0.437946 3.60092 0.788303 2.72265 1.5766 2.02003C 2.27731 1.31741 3.24077 0.966103 4.46701 0.878276L 4.46701 1.34014e-06L 5.60567 1.34014e-06L 5.60567 0.966102C 6.9195 1.05393 8.23333 1.49306 9.45957 2.37134L 8.23333 4.04006C 7.44503 3.42527 6.56914 3.07396 5.60567 2.98614L 5.60567 6.4114L 5.69326 6.4114C 7.09468 6.76271 8.14574 7.20185 8.75886 7.72881C 9.45957 8.25578 9.72233 9.13405 9.72233 10.188C 9.72233 11.2419 9.37198 12.1202 8.58369 12.8228C 7.79539 13.5254 6.83191 13.8767 5.60567 13.9646L 5.60567 15.282L 4.55461 15.282ZM 3.24078 3.42527C 2.89042 3.68876 2.80283 4.04006 2.80283 4.4792C 2.80283 4.91834 2.89042 5.18182 3.15318 5.4453C 3.41595 5.70878 3.8539 5.88444 4.55461 6.14792L 4.55461 2.98614C 3.94149 2.98614 3.50354 3.16179 3.24078 3.42527ZM 7.09467 11.5054C 7.44502 11.2419 7.62021 10.8906 7.62021 10.4515C 7.62021 10.0123 7.44503 9.66102 7.18226 9.39753C 6.9195 9.13405 6.39397 8.87057 5.69326 8.69492L 5.69326 12.0324C 6.30638 11.9445 6.74432 11.7689 7.09467 11.5054Z"/>
<path id="path32_stroke" d="M 28.6049 14.8428C 28.6049 22.4906 22.4228 28.6857 14.8025 28.6857L 14.8025 30.6857C 23.5325 30.6857 30.6049 23.59 30.6049 14.8428L 28.6049 14.8428ZM 14.8025 28.6857C 7.18214 28.6857 1 22.4906 1 14.8428L -0.999997 14.8428C -0.999997 23.59 6.07244 30.6857 14.8025 30.6857L 14.8025 28.6857ZM 1 14.8428C 1 7.19508 7.18214 0.999997 14.8025 0.999997L 14.8025 -1C 6.07244 -1 -0.999997 6.09565 -0.999997 14.8428L 1 14.8428ZM 14.8025 0.999997C 22.4228 0.999997 28.6049 7.19508 28.6049 14.8428L 30.6049 14.8428C 30.6049 6.09565 23.5325 -1 14.8025 -1L 14.8025 0.999997Z"/>
<path id="path33_fill" d="M 28.6916 57.3389C 44.5376 57.3389 57.3833 44.5031 57.3833 28.6694C 57.3833 12.8357 44.5376 0 28.6916 0C 12.8457 0 -2.67768e-06 12.8357 -2.67768e-06 28.6694C -2.67768e-06 44.5031 12.8457 57.3389 28.6916 57.3389Z"/>
<path id="path34_fill" d="M 5.84265 16.1522C 15.3022 3.4172 33.2579 0.870205 45.8706 10.3556C 52.5274 15.2739 56.3813 22.5636 57.1696 30.2046C 57.6951 20.9827 53.666 11.673 45.6955 5.70072C 32.9951 -3.78465 15.127 -1.14983 5.66747 11.4973C 1.20045 17.5574 -0.55132 24.8471 0.149389 31.7855C 0.499743 26.3402 2.3391 20.8949 5.84265 16.1522Z"/>
<path id="path35_fill" d="M 56.5822 4.91834C 55.2684 7.64099 53.5166 10.188 51.3269 12.5593C 39.8528 24.7673 20.6709 25.3821 8.40851 13.8767C 4.20425 9.9245 1.489 5.09399 -2.67299e-06 0C 0.350352 8.34361 4.29184 16.4237 11.4741 21.7812C 24.1745 31.2666 42.0425 28.6317 51.5021 15.9846C 54.0422 12.5593 55.7063 8.78274 56.5822 4.91834Z"/>
<path id="path36_fill" d="M 3.0656 23.9218L 4.64218 21.814C 2.27729 19.6183 0.700709 16.8078 0 13.4704L 3.94149 12.5043C 4.46702 15.0513 5.51808 17.1591 7.00709 18.6522L 11.1238 13.1191C 9.37199 11.0112 8.32092 9.16682 7.88297 7.58592C 7.53262 6.00503 7.97056 4.42413 9.1968 2.75541C 10.423 1.08669 11.9996 0.208419 13.9266 0.0327644C 15.8535 -0.14289 17.7805 0.384076 19.7074 1.70149L 20.7585 0.296249L 22.5978 1.70149L 21.5468 3.19455C 23.5613 4.86327 24.9627 7.05896 25.8386 9.78161L 22.0723 11.0112C 21.4592 9.16682 20.5833 7.58593 19.2695 6.35634L 15.2404 11.7138L 15.328 11.8016C 17.1674 13.9095 18.2184 15.8417 18.5688 17.5104C 18.9191 19.1791 18.4812 20.76 17.255 22.4288C 16.0287 24.0975 14.4521 24.9758 12.4376 25.1514C 10.5106 25.3271 8.49609 24.7123 6.48155 23.3949L 4.99256 25.4149L 3.0656 23.9218ZM 14.8025 3.985C 14.0142 4.07283 13.4011 4.42414 12.8755 5.03893C 12.4376 5.65372 12.1748 6.35634 12.35 6.97113C 12.4376 7.58593 12.8755 8.55203 13.7514 9.69378L 17.4301 4.77545C 16.3791 4.16066 15.5908 3.89717 14.8025 3.985ZM 11.4741 20.9357C 12.35 20.9357 12.9631 20.5844 13.4886 19.8818C 14.0142 19.1791 14.1894 18.5644 14.0142 17.8617C 13.9266 17.1591 13.401 16.193 12.5252 15.0513L 8.67126 20.1452C 9.63474 20.76 10.5982 21.0235 11.4741 20.9357Z"/>
<path id="path37_fill" d="M 28.6415 57.4391C 44.4597 57.4391 57.2829 44.581 57.2829 28.7196C 57.2829 12.8582 44.4597 0 28.6415 0C 12.8232 0 -2.67299e-06 12.8582 -2.67299e-06 28.7196C -2.67299e-06 44.581 12.8232 57.4391 28.6415 57.4391Z"/>
<path id="path38_fill" d="M 3.0656 23.9218L 4.64218 21.814C 2.27729 19.6183 0.700709 16.8078 0 13.4704L 3.94149 12.5043C 4.46702 15.0513 5.51808 17.1591 7.00709 18.6522L 11.1238 13.1191C 9.37199 11.0112 8.32092 9.16682 7.88297 7.58592C 7.53262 6.00503 7.97056 4.42414 9.1968 2.75542C 10.423 1.0867 11.9996 0.208419 13.9266 0.0327644C 15.8535 -0.14289 17.7805 0.384076 19.7074 1.70149L 20.7585 0.296249L 22.5978 1.70149L 21.5468 3.19455C 23.5613 4.86328 24.9627 7.05896 25.8386 9.78161L 22.0723 11.0112C 21.4592 9.16682 20.5833 7.58593 19.2695 6.35634L 15.2404 11.7138L 15.328 11.8016C 17.1674 13.9095 18.2184 15.8417 18.5688 17.5104C 18.9191 19.1791 18.4812 20.76 17.255 22.4288C 16.0287 24.0975 14.4521 24.9758 12.4376 25.1514C 10.5106 25.3271 8.49609 24.7123 6.48155 23.3949L 4.99256 25.4149L 3.0656 23.9218ZM 14.8025 3.985C 14.0142 4.07283 13.4011 4.42414 12.8755 5.03893C 12.4376 5.65372 12.1748 6.35634 12.35 6.97113C 12.4376 7.58593 12.8755 8.55203 13.7514 9.69378L 17.4301 4.77545C 16.3791 4.16066 15.5908 3.89717 14.8025 3.985ZM 11.4741 20.9357C 12.35 20.9357 12.9631 20.5844 13.4886 19.8818C 14.0142 19.1791 14.1894 18.5644 14.0142 17.8617C 13.9266 17.1591 13.401 16.193 12.5252 15.0513L 8.67126 20.1452C 9.63474 20.76 10.5982 21.0235 11.4741 20.9357Z"/>
<path id="path39_stroke" d="M 56.3833 28.6694C 56.3833 43.9501 43.9861 56.3389 28.6916 56.3389L 28.6916 58.3389C 45.0892 58.3389 58.3833 45.0561 58.3833 28.6694L 56.3833 28.6694ZM 28.6916 56.3389C 13.3972 56.3389 0.999997 43.9501 0.999997 28.6694L -1 28.6694C -1 45.0561 12.2941 58.3389 28.6916 58.3389L 28.6916 56.3389ZM 0.999997 28.6694C 0.999997 13.3888 13.3972 1 28.6916 1L 28.6916 -0.999999C 12.2941 -0.999999 -1 12.2827 -1 28.6694L 0.999997 28.6694ZM 28.6916 1C 43.9861 1 56.3833 13.3888 56.3833 28.6694L 58.3833 28.6694C 58.3833 12.2827 45.0892 -0.999999 28.6916 -0.999999L 28.6916 1Z"/>
<path id="path40_fill" d="M 80.4063 0L 2.67299e-06 0L 2.67299e-06 56.1217L 80.4063 56.1217L 80.4063 0Z"/>
<path id="path41_fill" d="M 103.004 28.2804L 102.566 28.2804L 97.3985 28.2804L 97.3985 -2.68028e-06C 87.0631 8.25578 76.5524 14.3159 67.268 18.7072C 50.1007 26.7874 37.1376 29.1587 37.1376 29.1587L 37.1376 25.5578L 9.10921 25.5578L 9.10921 31.6179L 4.55461 31.6179L 2.48942e-14 31.6179L 2.48942e-14 49.886L 3.94149 49.886L 4.55461 49.886L 9.10921 49.886L 9.10921 55.9461L 16.0287 55.9461L 19.7074 72.9846L 23.2986 89.6718L 30.3932 89.6718L 37.5755 89.4962L 30.2181 55.9461L 37.1376 55.9461L 37.1376 52.3451C 37.1376 52.3451 50.1883 54.7165 67.268 62.7966C 76.5524 67.188 87.0631 73.2481 97.3985 81.5039L 97.3985 53.2234L 102.566 53.2234L 103.004 53.2234C 105.632 53.2234 107.734 51.1156 107.734 48.4807L 107.734 32.9353C 107.734 30.3883 105.632 28.2804 103.004 28.2804Z"/>
<path id="path42_fill" d="M 6.68248e-07 -5.36056e-06L 7.26985 33.6379L 14.4521 33.5501L 7.00708 -5.36056e-06L 6.68248e-07 -5.36056e-06Z"/>
<path id="path43_fill" d="M 4.81737 2.68028e-06L 4.37942 2.68028e-06L -5.34598e-06 12.4715L 4.37942 24.943L 4.81737 24.943C 7.44502 24.943 9.54716 22.8351 9.54716 20.2003L 9.54716 4.65485C 9.54716 2.19568 7.44502 2.68028e-06 4.81737 2.68028e-06Z"/>
<path id="path44_fill" d="M 5.16772 2.68028e-06L 0 2.68028e-06L 0 25.0308L 5.16772 25.0308L 5.16772 2.68028e-06Z"/>
<path id="path45_fill" d="M 34.5099 -1.34014e-06C 24.1744 8.25578 13.6638 14.3159 4.37943 18.7072L -1.3365e-06 41.3667L 4.37943 62.8844C 13.6638 67.2758 24.1744 73.3359 34.5099 81.5917L 34.5099 -1.34014e-06Z"/>
<path id="path46_fill" d="M 5.16773 -1.34014e-06L 1.3365e-06 -1.34014e-06L 1.3365e-06 18.3559L 5.16773 18.3559L 5.16773 -1.34014e-06Z"/>
<path id="path47_fill" d="M 4.55461 0L 0 0L 0 18.3559L 4.55461 18.3559L 4.55461 0Z"/>
<path id="path48_fill" d="M 7.00708 0.17566L -2.67299e-06 -5.36056e-06L 7.44503 33.5501L 14.5397 33.5501L 7.00708 0.17566Z"/>
<path id="path49_fill" d="M -2.67299e-06 10.4515L -2.67299e-06 33.7257C -2.67299e-06 33.7257 13.0507 36.0971 30.1305 44.1772L 30.1305 1.34014e-06C 13.0507 8.08012 -2.67299e-06 10.4515 -2.67299e-06 10.4515Z"/>
<path id="path50_fill" d="M 14.0142 -2.68028e-06L 0 -2.68028e-06L 0 30.4761L 14.0142 30.4761L 14.0142 -2.68028e-06Z"/>
<path id="path51_stroke" d="M -5.34598e-06 2.68028e-06L -5.34598e-06 -0.999997L -1.00001 -0.999997L -1.00001 2.68028e-06L -5.34598e-06 2.68028e-06ZM -5.34598e-06 25.0308L -1.00001 25.0308L -1.00001 26.0308L -5.34598e-06 26.0308L -5.34598e-06 25.0308ZM 0.437938 -0.999997L -5.34598e-06 -0.999997L -5.34598e-06 1L 0.437938 1L 0.437938 -0.999997ZM -1.00001 2.68028e-06L -1.00001 25.0308L 0.999995 25.0308L 0.999995 2.68028e-06L -1.00001 2.68028e-06ZM -5.34598e-06 26.0308L 0.437938 26.0308L 0.437938 24.0308L -5.34598e-06 24.0308L -5.34598e-06 26.0308ZM 0.437938 26.0308C 3.62045 26.0308 6.16773 23.4727 6.16773 20.2881L 4.16773 20.2881C 4.16773 22.3732 2.51074 24.0308 0.437938 24.0308L 0.437938 26.0308ZM 6.16773 20.2881L 6.16773 4.74268L 4.16773 4.74268L 4.16773 20.2881L 6.16773 20.2881ZM 6.16773 4.74268C 6.16773 1.65803 3.6324 -0.999997 0.437938 -0.999997L 0.437938 1C 2.49879 1 4.16773 2.73334 4.16773 4.74268L 6.16773 4.74268Z"/>
<path id="path52_stroke" d="M 0 2.68028e-06L 0 -0.999997L -1 -0.999997L -1 2.68028e-06L 0 2.68028e-06ZM 5.16772 2.68028e-06L 6.16772 2.68028e-06L 6.16772 -0.999997L 5.16772 -0.999997L 5.16772 2.68028e-06ZM 5.16772 25.0308L 5.16772 26.0308L 6.16772 26.0308L 6.16772 25.0308L 5.16772 25.0308ZM 0 25.0308L -1 25.0308L -1 26.0308L 0 26.0308L 0 25.0308ZM 0 1L 5.16772 1L 5.16772 -0.999997L 0 -0.999997L 0 1ZM 4.16772 2.68028e-06L 4.16772 25.0308L 6.16772 25.0308L 6.16772 2.68028e-06L 4.16772 2.68028e-06ZM 5.16772 24.0308L 0 24.0308L 0 26.0308L 5.16772 26.0308L 5.16772 24.0308ZM 1 25.0308L 1 2.68028e-06L -1 2.68028e-06L -1 25.0308L 1 25.0308Z"/>
<path id="path53_stroke" d="M 30.1305 -1.34014e-06L 31.1305 -1.34014e-06C 31.1305 -0.384272 30.9103 -0.734553 30.564 -0.901144C 30.2177 -1.06773 29.8066 -1.02116 29.5064 -0.781334L 30.1305 -1.34014e-06ZM -1.3365e-06 18.7072L -0.427571 17.8033C -0.777099 17.9686 -1 18.3206 -1 18.7072L -1.3365e-06 18.7072ZM -1.3365e-06 62.8844L -1 62.8844C -1 63.2711 -0.777099 63.6231 -0.427571 63.7884L -1.3365e-06 62.8844ZM 30.1305 81.5917L 29.5064 82.373C 29.8066 82.6129 30.2177 82.6594 30.564 82.4928C 30.9103 82.3262 31.1305 81.976 31.1305 81.5917L 30.1305 81.5917ZM 29.5064 -0.781334C 19.2316 7.4296 8.82048 13.43 -0.427571 17.8033L 0.427568 19.6112C 9.7483 15.2018 20.3584 9.08196 30.7546 0.781331L 29.5064 -0.781334ZM -1 18.7072L -1 62.8844L 0.999999 62.8844L 0.999999 18.7072L -1 18.7072ZM -0.427571 63.7884C 8.82048 68.1617 19.2316 74.1621 29.5064 82.373L 30.7546 80.8104C 20.3584 72.5097 9.7483 66.3899 0.427568 61.9805L -0.427571 63.7884ZM 31.1305 81.5917L 31.1305 -1.34014e-06L 29.1305 -1.34014e-06L 29.1305 81.5917L 31.1305 81.5917Z"/>
<path id="path54_stroke" d="M 4.55461 -1.34014e-06L 5.30461 -1.34014e-06C 5.30461 -0.414215 4.96882 -0.750001 4.55461 -0.750001L 4.55461 -1.34014e-06ZM -1.3365e-06 -1.34014e-06L -1.3365e-06 -0.750001C -0.414215 -0.750001 -0.750001 -0.414215 -0.750001 -1.34014e-06L -1.3365e-06 -1.34014e-06ZM -1.3365e-06 18.3559L -0.750001 18.3559C -0.750001 18.7701 -0.414215 19.1059 -1.3365e-06 19.1059L -1.3365e-06 18.3559ZM 4.55461 18.3559L 4.55461 19.1059C 4.96882 19.1059 5.30461 18.7701 5.30461 18.3559L 4.55461 18.3559ZM 4.55461 -0.750001L -1.3365e-06 -0.750001L -1.3365e-06 0.749999L 4.55461 0.749999L 4.55461 -0.750001ZM -0.750001 -1.34014e-06L -0.750001 18.3559L 0.749999 18.3559L 0.749999 -1.34014e-06L -0.750001 -1.34014e-06ZM -1.3365e-06 19.1059L 4.55461 19.1059L 4.55461 17.6059L -1.3365e-06 17.6059L -1.3365e-06 19.1059ZM 5.30461 18.3559L 5.30461 -1.34014e-06L 3.80461 -1.34014e-06L 3.80461 18.3559L 5.30461 18.3559Z"/>
<path id="path55_stroke" d="M 1.3365e-06 -1.34014e-06L 1.3365e-06 -1C -0.552283 -1 -0.999999 -0.552286 -0.999999 -1.34014e-06L 1.3365e-06 -1.34014e-06ZM 4.55461 -1.34014e-06L 5.55461 -1.34014e-06C 5.55461 -0.552286 5.10689 -1 4.55461 -1L 4.55461 -1.34014e-06ZM 4.55461 18.3559L 4.55461 19.3559C 5.10689 19.3559 5.55461 18.9082 5.55461 18.3559L 4.55461 18.3559ZM 1.3365e-06 18.3559L -0.999999 18.3559C -0.999999 18.9082 -0.552283 19.3559 1.3365e-06 19.3559L 1.3365e-06 18.3559ZM 1.3365e-06 0.999999L 4.55461 0.999999L 4.55461 -1L 1.3365e-06 -1L 1.3365e-06 0.999999ZM 3.55461 -1.34014e-06L 3.55461 18.3559L 5.55461 18.3559L 5.55461 -1.34014e-06L 3.55461 -1.34014e-06ZM 4.55461 17.3559L 1.3365e-06 17.3559L 1.3365e-06 19.3559L 4.55461 19.3559L 4.55461 17.3559ZM 1 18.3559L 1 -1.34014e-06L -0.999999 -1.34014e-06L -0.999999 18.3559L 1 18.3559Z"/>
<path id="path56_fill" d="M 21.5468 33.5501L 14.3645 33.6379L 7.26985 33.6379L 6.68248e-07 -5.36056e-06L 6.65674 -5.36056e-06L 6.9195 -5.36056e-06L 14.1018 -5.36056e-06L 21.5468 33.5501Z"/>
<path id="path57_stroke" d="M 21.5468 33.5501L 21.559 34.55C 21.8601 34.5463 22.1435 34.4072 22.3306 34.1711C 22.5176 33.9351 22.5883 33.6274 22.523 33.3334L 21.5468 33.5501ZM 14.3645 33.6379L 14.3645 34.638L 14.3768 34.6378L 14.3645 33.6379ZM 7.26985 33.6379L 6.29242 33.8491C 6.39189 34.3094 6.79897 34.6379 7.26985 34.6379L 7.26985 33.6379ZM 6.68248e-07 -5.36056e-06L 6.68248e-07 -1.00001C -0.302299 -1.00001 -0.588374 -0.863255 -0.778216 -0.628001C -0.968059 -0.392746 -1.04129 -0.0842394 -0.977433 0.211238L 6.68248e-07 -5.36056e-06ZM 14.1018 -5.36056e-06L 15.078 -0.216643C 14.9765 -0.674321 14.5706 -1.00001 14.1018 -1.00001L 14.1018 -5.36056e-06ZM 21.5346 32.5502L 14.3523 32.638L 14.3768 34.6378L 21.559 34.55L 21.5346 32.5502ZM 14.3645 32.6379L 7.26985 32.6379L 7.26985 34.6379L 14.3645 34.6379L 14.3645 32.6379ZM 8.24729 33.4267L 0.977434 -0.211249L -0.977433 0.211238L 6.29242 33.8491L 8.24729 33.4267ZM 6.68248e-07 0.999995L 6.65674 0.999995L 6.65674 -1.00001L 6.68248e-07 -1.00001L 6.68248e-07 0.999995ZM 6.65674 0.999995L 6.9195 0.999995L 6.9195 -1.00001L 6.65674 -1.00001L 6.65674 0.999995ZM 6.9195 0.999995L 14.1018 0.999995L 14.1018 -1.00001L 6.9195 -1.00001L 6.9195 0.999995ZM 13.1255 0.216633L 20.5705 33.7667L 22.523 33.3334L 15.078 -0.216643L 13.1255 0.216633Z"/>
<path id="path58_stroke" d="M -2.67299e-06 10.4515L -0.178778 9.46758L -1 9.6168L -1 10.4515L -2.67299e-06 10.4515ZM -2.67299e-06 33.7257L -1 33.7257L -1 34.5604L -0.178777 34.7096L -2.67299e-06 33.7257ZM 30.1305 44.1772L 29.7028 45.0811L 31.1305 45.7565L 31.1305 44.1772L 30.1305 44.1772ZM 30.1305 1.34014e-06L 31.1305 1.34014e-06L 31.1305 -1.57934L 29.7028 -0.903947L 30.1305 1.34014e-06ZM -1 10.4515L -1 33.7257L 0.999997 33.7257L 0.999997 10.4515L -1 10.4515ZM -2.67299e-06 33.7257C -0.178777 34.7096 -0.178905 34.7096 -0.178983 34.7096C -0.178943 34.7096 -0.178971 34.7096 -0.178891 34.7096C -0.178611 34.7097 -0.178371 34.7097 -0.177814 34.7098C -0.176463 34.71 -0.174796 34.7104 -0.172104 34.7109C -0.166244 34.7119 -0.158193 34.7134 -0.146546 34.7156C -0.122298 34.7202 -0.087532 34.7268 -0.0396046 34.7361C 0.0581758 34.755 0.200707 34.7832 0.391791 34.8227C 0.777876 34.9025 1.34168 35.0239 2.07831 35.1962C 3.55966 35.5426 5.69623 36.0842 8.37565 36.88C 13.7517 38.4762 21.2124 41.0628 29.7028 45.0811L 30.5581 43.2732C 21.9688 39.2114 14.3642 36.5723 8.94499 34.9628C 6.22676 34.1558 4.03317 33.5995 2.53377 33.2488C 1.78002 33.0725 1.19081 32.9456 0.796466 32.8641C 0.597336 32.823 0.442802 32.7923 0.34107 32.7726C 0.289241 32.7626 0.24864 32.7549 0.222459 32.75C 0.208891 32.7474 0.197963 32.7454 0.191147 32.7441C 0.187501 32.7434 0.184406 32.7429 0.182579 32.7425C 0.181548 32.7424 0.180595 32.7422 0.180079 32.7421C 0.179762 32.742 0.179435 32.742 0.179276 32.7419C 0.178999 32.7419 0.178772 32.7418 -2.67299e-06 33.7257ZM 31.1305 44.1772L 31.1305 1.34014e-06L 29.1305 1.34014e-06L 29.1305 44.1772L 31.1305 44.1772ZM 29.7028 -0.903947C 21.2124 3.11435 13.7517 5.70098 8.37565 7.29715C 5.69623 8.09303 3.55966 8.63456 2.07831 8.98097C 1.34168 9.15329 0.777876 9.27472 0.39179 9.35448C 0.200707 9.39396 0.0581753 9.42219 -0.039605 9.44114C -0.0875325 9.45044 -0.122299 9.45704 -0.146546 9.46159C -0.158193 9.46377 -0.166244 9.46527 -0.172104 9.46635C -0.174797 9.46685 -0.176463 9.46715 -0.177814 9.4674C -0.178371 9.4675 -0.178612 9.46755 -0.178891 9.4676C -0.178971 9.46761 -0.178943 9.46761 -0.178983 9.46761C -0.178905 9.4676 -0.178778 9.46758 -2.67299e-06 10.4515C 0.178772 11.4354 0.179 11.4353 0.179277 11.4353C 0.179435 11.4352 0.179762 11.4352 0.180079 11.4351C 0.180596 11.435 0.181548 11.4349 0.18258 11.4347C 0.184406 11.4343 0.187502 11.4338 0.191147 11.4331C 0.197963 11.4318 0.208892 11.4298 0.222459 11.4272C 0.24864 11.4223 0.289242 11.4146 0.34107 11.4046C 0.442802 11.3849 0.597337 11.3542 0.796467 11.3131C 1.19081 11.2316 1.78002 11.1047 2.53377 10.9284C 4.03317 10.5777 6.22676 10.0214 8.94499 9.21441C 14.3642 7.60487 21.9688 4.96577 30.5581 0.90395L 29.7028 -0.903947Z"/>
<path id="path59_stroke" d="M 14.0142 -2.68028e-06L 14.7642 -2.68028e-06C 14.7642 -0.414216 14.4284 -0.750003 14.0142 -0.750003L 14.0142 -2.68028e-06ZM -2.67299e-06 -2.68028e-06L -2.67299e-06 -0.750003C -0.414216 -0.750003 -0.750003 -0.414216 -0.750003 -2.68028e-06L -2.67299e-06 -2.68028e-06ZM -2.67299e-06 30.4761L -0.750003 30.4761C -0.750003 30.8903 -0.414216 31.2261 -2.67299e-06 31.2261L -2.67299e-06 30.4761ZM 14.0142 30.4761L 14.0142 31.2261C 14.4284 31.2261 14.7642 30.8903 14.7642 30.4761L 14.0142 30.4761ZM 14.0142 -0.750003L -2.67299e-06 -0.750003L -2.67299e-06 0.749997L 14.0142 0.749997L 14.0142 -0.750003ZM -0.750003 -2.68028e-06L -0.750003 30.4761L 0.749997 30.4761L 0.749997 -2.68028e-06L -0.750003 -2.68028e-06ZM -2.67299e-06 31.2261L 14.0142 31.2261L 14.0142 29.7261L -2.67299e-06 29.7261L -2.67299e-06 31.2261ZM 14.7642 30.4761L 14.7642 -2.68028e-06L 13.2642 -2.68028e-06L 13.2642 30.4761L 14.7642 30.4761Z"/>
<path id="path60_fill" d="M 28.0284 -2.68028e-06L 0 -2.68028e-06L 0 30.4761L 28.0284 30.4761L 28.0284 -2.68028e-06Z"/>
<path id="path61_stroke" d="M -6.68248e-07 -2.68028e-06L -6.68248e-07 -1C -0.552285 -1 -1 -0.552287 -1 -2.68028e-06L -6.68248e-07 -2.68028e-06ZM 28.0284 -2.68028e-06L 29.0284 -2.68028e-06C 29.0284 -0.552287 28.5806 -1 28.0284 -1L 28.0284 -2.68028e-06ZM 28.0284 30.4761L 28.0284 31.4761C 28.5806 31.4761 29.0284 31.0284 29.0284 30.4761L 28.0284 30.4761ZM -6.68248e-07 30.4761L -1 30.4761C -1 31.0284 -0.552285 31.4761 -6.68248e-07 31.4761L -6.68248e-07 30.4761ZM -6.68248e-07 0.999997L 28.0284 0.999997L 28.0284 -1L -6.68248e-07 -1L -6.68248e-07 0.999997ZM 27.0284 -2.68028e-06L 27.0284 30.4761L 29.0284 30.4761L 29.0284 -2.68028e-06L 27.0284 -2.68028e-06ZM 28.0284 29.4761L -6.68248e-07 29.4761L -6.68248e-07 31.4761L 28.0284 31.4761L 28.0284 29.4761ZM 0.999999 30.4761L 0.999999 -2.68028e-06L -1 -2.68028e-06L -1 30.4761L 0.999999 30.4761Z"/>
<path id="path62_fill" d="M 62.8886 0L 2.67299e-06 0L 2.67299e-06 2.63482L 62.8886 2.63482L 62.8886 0Z"/>
<path id="path63_fill" d="M 62.8886 0L 2.67299e-06 0L 2.67299e-06 2.63482L 62.8886 2.63482L 62.8886 0Z"/>
<path id="path64_fill" d="M 40.3783 0L 2.67299e-06 0L 2.67299e-06 2.63482L 40.3783 2.63482L 40.3783 0Z"/>
<path id="path65_stroke" d="M 175.615 1C 176.167 1 176.615 0.552285 176.615 3.8147e-07C 176.615 -0.552284 176.167 -1 175.615 -1L 175.615 1ZM 6.68248e-07 -1C -0.552284 -1 -0.999999 -0.552284 -0.999999 3.8147e-07C -0.999999 0.552285 -0.552284 1 6.68248e-07 1L 6.68248e-07 -1ZM 175.615 -1L 6.68248e-07 -1L 6.68248e-07 1L 175.615 1L 175.615 -1Z"/>
</defs>
</svg>
